<svg xmlns="http://www.w3.org/2000/svg" width="27.314" height="26.414" viewBox="0 0 27.314 26.414">
    <defs>
        <style>
            .cls-1{fill:#122436}.cls-2{fill:#ffcd35}.cls-3{fill:#fff}.cls-4{fill:#4ea4db}
        </style>
    </defs>
    <g id="reshot-icon-business-automation-T57KRDQJ8L" transform="translate(-98.1 -111.385)">
        <g id="Group_2945" transform="translate(108.824 111.606)">
            <g id="Group_2944" transform="translate(0 0)">
                <g id="Group_2943">
                    <g id="Group_2942">
                        <g id="Group_2941">
                            <g id="Group_2940">
                                <g id="Group_2939">
                                    <g id="Group_2938">
                                        <path id="Path_25210" d="M419.365 139.746h-.02v-.68h.02c.214 0 .432-.007.646-.02l.041.68c-.229.014-.46.02-.687.02zm-.727-.024c-.234-.017-.472-.037-.7-.068l.088-.673c.217.027.438.051.659.065zm2.117-.061l-.085-.673c.217-.027.438-.065.656-.105l.129.666c-.232.044-.466.082-.701.112zm1.386-.268l-.173-.656c.214-.054.425-.119.635-.19l.214.646c-.217.071-.448.139-.676.2zm1.342-.449l-.255-.629c.2-.082.408-.173.6-.268l.3.612c-.213.102-.428.197-.645.285zm1.267-.615l-.336-.591c.19-.109.381-.224.564-.347l.374.567c-.194.13-.397.256-.601.371zm1.183-.775l-.408-.544c.177-.133.35-.272.516-.415l.442.517c-.183.15-.363.3-.55.443zm1.07-.921l-.476-.486c.156-.153.313-.316.459-.479l.506.455c-.155.177-.322.344-.492.511zm.945-1.053l-.534-.421c.136-.173.268-.353.394-.534l.561.384c-.135.198-.275.391-.421.571zm.8-1.162l-.584-.35c.112-.19.221-.384.323-.581l.6.309c-.102.211-.218.422-.337.622zm.646-1.261l-.625-.268c.088-.2.17-.411.245-.618l.639.228c-.077.224-.165.444-.253.659zm.476-1.329l-.652-.187c.061-.211.116-.428.16-.642l.663.143c-.047.228-.105.458-.169.687zm.3-1.383l-.673-.1c.034-.217.058-.438.075-.659l.676.058a7 7 0 0 1-.081.702zm.119-1.407l-.68-.014v-.2c0-.153 0-.309-.01-.462l.68-.031c.007.163.01.33.01.493.001.076-.003.144-.003.215zm-.737-1.339c-.024-.217-.054-.438-.092-.656l.669-.116c.041.231.075.466.1.7zm-.228-1.3c-.051-.214-.112-.428-.177-.639l.649-.2c.071.224.133.452.19.68zm-.4-1.264c-.078-.2-.167-.411-.258-.608l.615-.285c.1.214.19.432.275.649zm-.554-1.2q-.158-.291-.336-.571l.574-.364c.126.2.245.4.357.608zm-.71-1.118c-.129-.177-.265-.353-.408-.523l.523-.435c.15.18.3.367.432.557zm-.843-1.019c-.15-.16-.309-.316-.469-.469l.462-.5c.173.16.34.326.5.5zm-.972-.9c-.17-.139-.347-.275-.527-.4l.394-.554c.19.136.381.282.561.428zm-1.077-.771c-.187-.116-.381-.228-.574-.333l.319-.6c.207.112.411.231.612.353zm-10.714-.058l-.353-.581c.2-.122.408-.238.615-.347l.316.6c-.195.096-.388.205-.579.32zm9.545-.567c-.2-.092-.408-.177-.612-.255l.241-.635c.221.082.438.173.652.272zm-8.37-.048l-.275-.622c.214-.1.435-.184.656-.265l.234.639c-.207.07-.411.152-.615.24zm7.129-.421c-.211-.065-.425-.122-.639-.173l.156-.663c.228.054.459.116.683.184zm-5.886-.034l-.19-.652c.224-.065.455-.126.683-.177l.15.663c-.215.042-.431.097-.642.158zm4.594-.272c-.217-.037-.438-.065-.656-.088l.068-.676c.234.024.469.054.7.1zm-3.3-.017l-.105-.673c.231-.037.469-.065.7-.085l.061.676c-.216.013-.437.04-.654.072zm1.981-.116c-.126 0-.258-.007-.384-.007h-.279l-.017-.68h.3c.136 0 .275 0 .411.007z" class="cls-1" transform="translate(-413.7 -117.9)"/>
                                    </g>
                                </g>
                            </g>
                        </g>
                    </g>
                </g>
            </g>
        </g>
        <g id="Group_2952" transform="translate(103.088 130.622)">
            <g id="Group_2951" transform="translate(0 0)">
                <g id="Group_2950">
                    <g id="Group_2949">
                        <g id="Group_2948">
                            <g id="Group_2947">
                                <g id="Group_2946">
                                    <path id="Path_25211" d="M250.748 684.677h-.065c-.133 0-.268-.007-.4-.017l.054-.676c.119.01.238.014.357.017h.282l.027.68zm.968-.078l-.112-.669a5.48 5.48 0 0 0 .622-.143l.194.652a7.018 7.018 0 0 1-.703.161zm-2.151-.041a6.186 6.186 0 0 1-.7-.187l.217-.642a5.472 5.472 0 0 0 .615.167zm3.531-.37l-.272-.622a5.263 5.263 0 0 0 .568-.292l.347.584a6.719 6.719 0 0 1-.639.329zm-4.896-.088a6.331 6.331 0 0 1-.629-.353l.37-.571a4.926 4.926 0 0 0 .554.313zm6.13-.646l-.418-.537a5.11 5.11 0 0 0 .479-.421l.479.482a6.494 6.494 0 0 1-.537.472zm-7.34-.136a5.536 5.536 0 0 1-.523-.5l.5-.462a5.115 5.115 0 0 0 .462.438zm8.359-.88l-.534-.418a5.5 5.5 0 0 0 .36-.523l.581.35a5.894 5.894 0 0 1-.403.587zm-9.341-.17a5.937 5.937 0 0 1-.387-.608l.595-.33a4.637 4.637 0 0 0 .343.537zm10.082-1.064l-.622-.275a5.248 5.248 0 0 0 .221-.6l.649.2a5.377 5.377 0 0 1-.245.671zm-10.779-.2a6.019 6.019 0 0 1-.228-.686l.656-.173a5.479 5.479 0 0 0 .2.6zm-.364-1.393a6.356 6.356 0 0 1-.051-.717l.68-.007a5.651 5.651 0 0 0 .044.635zm.659-1.363l-.676-.075a5.686 5.686 0 0 1 .116-.673l.663.153c-.041.197-.075.397-.099.595z" class="cls-1" transform="translate(-244.9 -677.5)"/>
                                </g>
                            </g>
                        </g>
                    </g>
                </g>
            </g>
        </g>
        <g id="Group_2959" transform="translate(98.1 111.385)">
            <g id="Group_2958" transform="translate(0 0)">
                <g id="Group_2957">
                    <g id="Group_2956">
                        <g id="Group_2955">
                            <g id="Group_2954">
                                <g id="Group_2953">
                                    <path id="Path_25212" d="M103.452 122.195h-.01a5.3 5.3 0 0 1-.734-.058l.1-.673a5.064 5.064 0 0 0 .642.051h.01zm.734-.044l-.085-.673a4.425 4.425 0 0 0 .632-.126l.177.656a5.144 5.144 0 0 1-.724.143zm-2.2-.17a5.141 5.141 0 0 1-.693-.255l.279-.622a4.985 4.985 0 0 0 .6.224zm3.626-.214l-.265-.625a4.56 4.56 0 0 0 .574-.292l.347.584a5.4 5.4 0 0 1-.658.333zm-4.971-.387a5.671 5.671 0 0 1-.6-.432l.435-.523a4.749 4.749 0 0 0 .523.377zm6.236-.364l-.425-.53a5.229 5.229 0 0 0 .476-.435l.493.469a6.275 6.275 0 0 1-.547.496zm-7.367-.581a5.035 5.035 0 0 1-.459-.578l.561-.387a5.247 5.247 0 0 0 .4.506zm8.38-.486l-.55-.4a4.318 4.318 0 0 0 .34-.547l.6.319a5.476 5.476 0 0 1-.393.628zm-9.216-.724a5.661 5.661 0 0 1-.289-.68l.642-.221a4.331 4.331 0 0 0 .251.595zm9.909-.578l-.639-.234a4.945 4.945 0 0 0 .18-.618l.663.143a5.657 5.657 0 0 1-.207.709zm-10.388-.816a5.3 5.3 0 0 1-.092-.731l.68-.037a4.975 4.975 0 0 0 .082.639zm10.7-.625l-.676-.051c.007-.105.014-.211.014-.316v-.054c0-.092 0-.187-.007-.279l.68-.041q.01.158.01.316v.061c-.01.127-.016.246-.027.364zm-10.1-.792l-.676-.054a5.338 5.338 0 0 1 .109-.731l.663.146a4.529 4.529 0 0 0-.105.64zm9.352-.544a4.787 4.787 0 0 0-.167-.622l.642-.221a4.7 4.7 0 0 1 .19.714zm-9.076-.714l-.639-.234a5.21 5.21 0 0 1 .3-.673l.6.319a3.946 3.946 0 0 0-.27.589zm8.658-.5a5.063 5.063 0 0 0-.33-.554l.557-.387a5.172 5.172 0 0 1 .377.632zm-8.054-.632l-.55-.4a5.359 5.359 0 0 1 .472-.567l.493.469a4.394 4.394 0 0 0-.423.496zm7.32-.428a4.783 4.783 0 0 0-.466-.445l.435-.523a5.4 5.4 0 0 1 .534.51zm-6.433-.5l-.425-.53a4.911 4.911 0 0 1 .6-.418l.347.584a4.415 4.415 0 0 0-.531.359zm5.444-.319a5.088 5.088 0 0 0-.571-.3l.279-.622a5.458 5.458 0 0 1 .652.347zm-4.336-.34l-.265-.625a5.826 5.826 0 0 1 .7-.241l.177.656a4.763 4.763 0 0 0-.621.205zm3.16-.183a4.408 4.408 0 0 0-.629-.136l.1-.673a5.129 5.129 0 0 1 .72.156zm-1.92-.15l-.085-.673a5.3 5.3 0 0 1 .737-.041l-.007.68a4.091 4.091 0 0 0-.655.03z" class="cls-1" transform="translate(-98.1 -111.385)"/>
                                </g>
                            </g>
                        </g>
                    </g>
                </g>
            </g>
        </g>
        <g id="Group_2981" transform="translate(99.585 113.12)">
            <g id="Group_2966" transform="translate(0.336 0.338)">
                <g id="Group_2965">
                    <g id="Group_2964">
                        <g id="Group_2963">
                            <g id="Group_2962">
                                <g id="Group_2961">
                                    <g id="Group_2960">
                                        <path id="Path_25213" d="M155.686 178.2l.629.751a.308.308 0 0 0 .391.071l.652-.367a.313.313 0 0 0 .143-.37l-.316-.928a2.471 2.471 0 0 0 .442-.748l.965-.166a.316.316 0 0 0 .258-.3l.007-.748a.307.307 0 0 0-.251-.306l-.962-.19a2.46 2.46 0 0 0-.425-.754l.336-.921a.311.311 0 0 0-.133-.374l-.646-.381a.307.307 0 0 0-.391.065l-.646.737a2.275 2.275 0 0 0-.435-.041 2.62 2.62 0 0 0-.435.034l-.629-.751a.308.308 0 0 0-.391-.071l-.652.367a.313.313 0 0 0-.143.37l.316.928a2.471 2.471 0 0 0-.442.748l-.965.167a.316.316 0 0 0-.258.3l-.007.748a.307.307 0 0 0 .251.306l.962.19a2.459 2.459 0 0 0 .425.754l-.336.921a.311.311 0 0 0 .133.374l.646.381a.307.307 0 0 0 .391-.065l.646-.737a2.276 2.276 0 0 0 .435.041 2.652 2.652 0 0 0 .435-.035zm-.421-1.22a1.251 1.251 0 1 1 1.264-1.237 1.249 1.249 0 0 1-1.264 1.238z" class="cls-2" transform="translate(-151.7 -172.401)"/>
                                    </g>
                                </g>
                            </g>
                        </g>
                    </g>
                </g>
            </g>
            <g id="Group_2973" transform="translate(2.65 2.404)">
                <g id="Group_2972" transform="translate(0)">
                    <g id="Group_2971">
                        <g id="Group_2970">
                            <g id="Group_2969">
                                <g id="Group_2968">
                                    <g id="Group_2967">
                                        <circle id="Ellipse_514" cx="1.251" cy="1.251" r="1.251" class="cls-3" transform="translate(0 2.501) rotate(-89.374)"/>
                                    </g>
                                </g>
                            </g>
                        </g>
                    </g>
                </g>
            </g>
            <g id="Group_2980" transform="translate(0 0)">
                <g id="Group_2979">
                    <g id="Group_2978">
                        <g id="Group_2977">
                            <g id="Group_2976">
                                <g id="Group_2975">
                                    <g id="Group_2974">
                                        <path id="Path_25214" d="M146.988 169.784a.653.653 0 0 1-.5-.234l-.51-.608a2.867 2.867 0 0 1-.591 0l-.523.595a.65.65 0 0 1-.819.133l-.646-.381a.649.649 0 0 1-.279-.782l.272-.744a2.971 2.971 0 0 1-.292-.517l-.778-.153a.652.652 0 0 1-.523-.646l.007-.748a.651.651 0 0 1 .537-.632l.782-.136a2.76 2.76 0 0 1 .3-.51l-.258-.751a.648.648 0 0 1 .3-.775l.652-.367a.653.653 0 0 1 .819.15l.51.608a2.867 2.867 0 0 1 .591 0l.523-.6a.65.65 0 0 1 .819-.133l.646.381a.649.649 0 0 1 .279.782l-.272.744a2.971 2.971 0 0 1 .292.517l.778.153a.652.652 0 0 1 .523.646l-.007.748a.651.651 0 0 1-.537.632l-.782.136a2.759 2.759 0 0 1-.3.51l.258.751a.648.648 0 0 1-.3.775l-.652.367a.614.614 0 0 1-.319.089zm-.731-1.57l.737.884.608-.343-.37-1.087.126-.146a2.183 2.183 0 0 0 .384-.646l.068-.18 1.132-.2.007-.7-1.128-.221-.065-.184a2.209 2.209 0 0 0-.367-.652l-.122-.15.394-1.081-.6-.357-.754.867-.19-.034a2.284 2.284 0 0 0-.374-.037 2.348 2.348 0 0 0-.377.027l-.19.031-.737-.883-.608.343.374 1.087-.126.146a2.183 2.183 0 0 0-.384.646l-.068.18-1.132.2-.007.7 1.128.221.065.184a2.21 2.21 0 0 0 .367.652l.122.15-.394 1.081.6.357.754-.866.19.034a2.283 2.283 0 0 0 .374.037 2.348 2.348 0 0 0 .377-.027zm-.544-.513h-.013a1.592 1.592 0 0 1-1.573-1.607 1.593 1.593 0 0 1 2.732-1.1 1.6 1.6 0 0 1 .455 1.132 1.575 1.575 0 0 1-.479 1.121 1.607 1.607 0 0 1-1.121.453zm-.01-.68a.9.9 0 0 0 .649-.262.911.911 0 0 0 .275-.642.9.9 0 0 0-.262-.649.914.914 0 1 0-.663 1.553z" class="cls-1" transform="translate(-141.799 -162.442)"/>
                                    </g>
                                </g>
                            </g>
                        </g>
                    </g>
                </g>
            </g>
        </g>
        <g id="Group_3003" transform="translate(105.022 128.286)">
            <g id="Group_2988" transform="translate(0.333 0.338)">
                <g id="Group_2987">
                    <g id="Group_2986">
                        <g id="Group_2985">
                            <g id="Group_2984">
                                <g id="Group_2983">
                                    <g id="Group_2982">
                                        <path id="Path_25215" d="M315.586 624.5l.629.751a.308.308 0 0 0 .391.071l.652-.367a.313.313 0 0 0 .143-.37l-.316-.928a2.469 2.469 0 0 0 .442-.748l.965-.166a.316.316 0 0 0 .258-.3l.007-.748a.307.307 0 0 0-.251-.306l-.962-.19a2.46 2.46 0 0 0-.425-.754l.336-.921a.311.311 0 0 0-.133-.374l-.646-.381a.307.307 0 0 0-.391.065l-.646.737a2.278 2.278 0 0 0-.435-.041 2.626 2.626 0 0 0-.435.034l-.629-.751a.308.308 0 0 0-.391-.071l-.652.367a.313.313 0 0 0-.143.37l.316.928a2.471 2.471 0 0 0-.442.748l-.965.167a.316.316 0 0 0-.258.3l-.007.748a.307.307 0 0 0 .251.306l.962.19a2.46 2.46 0 0 0 .425.754l-.336.921a.311.311 0 0 0 .133.374l.646.381a.308.308 0 0 0 .391-.065l.646-.737a2.278 2.278 0 0 0 .435.041 3 3 0 0 0 .435-.035zm-.421-1.22a1.251 1.251 0 1 1 1.264-1.237 1.249 1.249 0 0 1-1.264 1.238z" class="cls-4" transform="translate(-311.6 -618.701)"/>
                                    </g>
                                </g>
                            </g>
                        </g>
                    </g>
                </g>
            </g>
            <g id="Group_2995" transform="translate(2.646 2.404)">
                <g id="Group_2994" transform="translate(0 0)">
                    <g id="Group_2993" transform="translate(0)">
                        <g id="Group_2992">
                            <g id="Group_2991">
                                <g id="Group_2990">
                                    <g id="Group_2989">
                                        <circle id="Ellipse_515" cx="1.251" cy="1.251" r="1.251" class="cls-3" transform="translate(0 2.501) rotate(-89.374)"/>
                                    </g>
                                </g>
                            </g>
                        </g>
                    </g>
                </g>
            </g>
            <g id="Group_3002" transform="translate(0 0)">
                <g id="Group_3001">
                    <g id="Group_3000">
                        <g id="Group_2999">
                            <g id="Group_2998">
                                <g id="Group_2997">
                                    <g id="Group_2996">
                                        <path id="Path_25216" d="M306.984 616.084a.653.653 0 0 1-.5-.234l-.51-.608a2.866 2.866 0 0 1-.591 0l-.52.595a.65.65 0 0 1-.819.133l-.646-.381a.649.649 0 0 1-.279-.782l.272-.744a2.97 2.97 0 0 1-.292-.517l-.778-.153a.652.652 0 0 1-.523-.646l.007-.748a.651.651 0 0 1 .537-.632l.782-.136a2.758 2.758 0 0 1 .3-.51l-.258-.751a.648.648 0 0 1 .3-.775l.652-.367a.653.653 0 0 1 .819.15l.51.608a2.866 2.866 0 0 1 .591 0l.523-.6a.65.65 0 0 1 .819-.133l.646.381a.649.649 0 0 1 .279.782l-.272.744a2.97 2.97 0 0 1 .292.517l.778.153a.652.652 0 0 1 .523.646l-.007.748a.651.651 0 0 1-.537.632l-.782.136a2.762 2.762 0 0 1-.3.51l.258.751a.648.648 0 0 1-.3.775l-.652.367a.634.634 0 0 1-.322.089zm-.731-1.57l.737.883.608-.343-.37-1.087.126-.146a2.181 2.181 0 0 0 .384-.646l.068-.18 1.132-.2.007-.7-1.128-.221-.065-.183a2.21 2.21 0 0 0-.367-.652l-.122-.149.394-1.081-.6-.357-.754.867-.19-.034a2.278 2.278 0 0 0-.374-.037 2.348 2.348 0 0 0-.377.027l-.19.031-.737-.884-.608.343.37 1.087-.126.146a2.183 2.183 0 0 0-.384.646l-.068.18-1.132.2-.007.7 1.128.221.065.184a2.21 2.21 0 0 0 .367.652l.122.149-.394 1.081.6.357.754-.867.19.034a2.278 2.278 0 0 0 .374.037 2.348 2.348 0 0 0 .377-.027zm-.54-.513h-.013a1.593 1.593 0 0 1-1.573-1.607 1.6 1.6 0 0 1 1.611-1.577 1.592 1.592 0 0 1 1.573 1.607 1.575 1.575 0 0 1-.479 1.121 1.6 1.6 0 0 1-1.118.455zm-.014-.68a.9.9 0 0 0 .649-.262.911.911 0 0 0-.625-1.563.9.9 0 0 0-.649.262.911.911 0 0 0 .625 1.563z" class="cls-1" transform="translate(-301.799 -608.742)"/>
                                    </g>
                                </g>
                            </g>
                        </g>
                    </g>
                </g>
            </g>
        </g>
        <g id="Group_3068" transform="translate(106.652 114.124)">
            <g id="Group_3010" transform="translate(0.338 0.343)">
                <g id="Group_3009">
                    <g id="Group_3008">
                        <g id="Group_3007">
                            <g id="Group_3006">
                                <g id="Group_3005">
                                    <g id="Group_3004">
                                        <path id="Path_25217" d="M372.791 209.182l1.682-1.437a.706.706 0 0 0 .153-.884l-.846-1.465a.7.7 0 0 0-.839-.309l-2.086.741a5.663 5.663 0 0 0-1.7-.982l-.4-2.175a.7.7 0 0 0-.686-.571h-1.692a.7.7 0 0 0-.686.571l-.4 2.175a5.592 5.592 0 0 0-1.7.982l-2.086-.741a.7.7 0 0 0-.839.309l-.846 1.465a.7.7 0 0 0 .153.884l1.682 1.437a5.679 5.679 0 0 0 0 1.957l-1.682 1.441a.707.707 0 0 0-.153.884l.846 1.465a.7.7 0 0 0 .839.309l2.086-.741a5.664 5.664 0 0 0 1.7.982l.4 2.175a.7.7 0 0 0 .686.571h1.692a.7.7 0 0 0 .686-.571l.4-2.175a5.592 5.592 0 0 0 1.7-.982l2.086.741a.7.7 0 0 0 .839-.309l.846-1.465a.7.7 0 0 0-.153-.884l-1.682-1.437a5.7 5.7 0 0 0 0-1.961zm-2.742.982a2.827 2.827 0 1 1-2.827-2.827 2.827 2.827 0 0 1 2.827 2.827z" class="cls-2" transform="translate(-359.723 -202.1)"/>
                                    </g>
                                </g>
                            </g>
                        </g>
                    </g>
                </g>
            </g>
            <g id="Group_3017" transform="translate(3.575 4.143)">
                <g id="Group_3016">
                    <g id="Group_3015">
                        <g id="Group_3014">
                            <g id="Group_3013">
                                <g id="Group_3012">
                                    <g id="Group_3011">
                                        <path id="Path_25218" d="M459.258 322.453h-.1l.017-.68h.088a3.492 3.492 0 0 0 .534-.041l.1.673a4.53 4.53 0 0 1-.639.048zm-.833-.082a4.211 4.211 0 0 1-.707-.207l.245-.632a3.615 3.615 0 0 0 .595.173zm2.185-.136l-.214-.646a3.374 3.374 0 0 0 .567-.248l.323.6a4.113 4.113 0 0 1-.676.295zm-3.554-.4a3.925 3.925 0 0 1-.595-.435l.445-.513a3.775 3.775 0 0 0 .5.367zm4.846-.3l-.422-.535a3.814 3.814 0 0 0 .452-.425l.506.452a4.208 4.208 0 0 1-.538.509zm-5.953-.663a4.4 4.4 0 0 1-.415-.612l.595-.33a3.775 3.775 0 0 0 .347.513zm6.932-.432l-.574-.36a3.68 3.68 0 0 0 .282-.554l.629.255a4.151 4.151 0 0 1-.338.661zm-7.646-.853a3.96 3.96 0 0 1-.18-.717l.669-.109a3.719 3.719 0 0 0 .153.6zm8.2-.51l-.666-.139a3.384 3.384 0 0 0 .075-.615l.68.024a4.089 4.089 0 0 1-.093.732zm-7.751-.931l-.68-.007a4.433 4.433 0 0 1 .071-.734l.669.126a3.1 3.1 0 0 0-.064.617zm7.133-.445a3.707 3.707 0 0 0-.136-.6l.646-.207a4.34 4.34 0 0 1 .163.72zm-6.908-.768l-.635-.238a4.126 4.126 0 0 1 .319-.666l.584.347a3.511 3.511 0 0 0-.277.559zm6.531-.408a3.421 3.421 0 0 0-.34-.525l.537-.415a4.1 4.1 0 0 1 .4.622zm-5.9-.656l-.517-.442a4.418 4.418 0 0 1 .523-.517l.435.523a3.141 3.141 0 0 0-.448.438zm5.148-.323a3.783 3.783 0 0 0-.493-.377l.367-.571a4.167 4.167 0 0 1 .584.449zm-4.2-.469l-.336-.591a4.113 4.113 0 0 1 .669-.309l.231.639a3.856 3.856 0 0 0-.571.263zm3.16-.2a3.521 3.521 0 0 0-.591-.187l.15-.663a4.235 4.235 0 0 1 .7.224zm-2-.221l-.116-.669a4.162 4.162 0 0 1 .941-.058l-.034.68a3.635 3.635 0 0 0-.796.052z" class="cls-3" transform="translate(-455 -313.928)"/>
                                    </g>
                                </g>
                            </g>
                        </g>
                    </g>
                </g>
            </g>
            <g id="Group_3060" transform="translate(0.337 0.343)">
                <g id="Group_3024" transform="translate(0.001 10.099)">
                    <g id="Group_3023">
                        <g id="Group_3022">
                            <g id="Group_3021">
                                <g id="Group_3020">
                                    <g id="Group_3019">
                                        <g id="Group_3018">
                                            <path id="Path_25219" d="M362.05 502.141l-.547.194a.7.7 0 0 1-.839-.309l-.846-1.465a.7.7 0 0 1 .153-.884l.442-.377a7.06 7.06 0 0 0 1.637 2.841z" class="cls-3" transform="translate(-359.723 -499.3)"/>
                                        </g>
                                    </g>
                                </g>
                            </g>
                        </g>
                    </g>
                </g>
                <g id="Group_3031" transform="translate(5.862 14.982)">
                    <g id="Group_3030">
                        <g id="Group_3029">
                            <g id="Group_3028">
                                <g id="Group_3027">
                                    <g id="Group_3026">
                                        <g id="Group_3025">
                                            <path id="Path_25220" d="M533.838 643.19a7.038 7.038 0 0 0 1.638-.19l-.105.571a.7.7 0 0 1-.686.571h-1.692a.7.7 0 0 1-.686-.571L532.2 643a7.2 7.2 0 0 0 1.638.19z" class="cls-3" transform="translate(-532.2 -643)"/>
                                        </g>
                                    </g>
                                </g>
                            </g>
                        </g>
                    </g>
                </g>
                <g id="Group_3038" transform="translate(12.675 10.103)">
                    <g id="Group_3037">
                        <g id="Group_3036">
                            <g id="Group_3035">
                                <g id="Group_3034">
                                    <g id="Group_3033">
                                        <g id="Group_3032">
                                            <path id="Path_25221" d="M734.338 499.4l.442.377a.706.706 0 0 1 .153.883l-.846 1.465a.7.7 0 0 1-.839.309l-.547-.194a7.185 7.185 0 0 0 1.637-2.84z" class="cls-3" transform="translate(-732.7 -499.4)"/>
                                        </g>
                                    </g>
                                </g>
                            </g>
                        </g>
                    </g>
                </g>
                <g id="Group_3045" transform="translate(0 2.947)">
                    <g id="Group_3044">
                        <g id="Group_3043">
                            <g id="Group_3042">
                                <g id="Group_3041">
                                    <g id="Group_3040">
                                        <g id="Group_3039">
                                            <path id="Path_25222" d="M360.379 291.894l-.442-.377a.706.706 0 0 1-.153-.884l.846-1.465a.7.7 0 0 1 .839-.309l.547.194a7.186 7.186 0 0 0-1.637 2.841z" class="cls-3" transform="translate(-359.693 -288.819)"/>
                                        </g>
                                    </g>
                                </g>
                            </g>
                        </g>
                    </g>
                </g>
                <g id="Group_3052" transform="translate(12.672 2.95)">
                    <g id="Group_3051">
                        <g id="Group_3050">
                            <g id="Group_3049">
                                <g id="Group_3048">
                                    <g id="Group_3047">
                                        <g id="Group_3046">
                                            <path id="Path_25223" d="M732.6 289.153l.547-.194a.7.7 0 0 1 .839.309l.846 1.465a.7.7 0 0 1-.153.883l-.442.377a7.06 7.06 0 0 0-1.637-2.84z" class="cls-3" transform="translate(-732.6 -288.919)"/>
                                        </g>
                                    </g>
                                </g>
                            </g>
                        </g>
                    </g>
                </g>
                <g id="Group_3059" transform="translate(5.862)">
                    <g id="Group_3058">
                        <g id="Group_3057">
                            <g id="Group_3056">
                                <g id="Group_3055">
                                    <g id="Group_3054">
                                        <g id="Group_3053">
                                            <path id="Path_25224" d="M533.838 203.051a7.038 7.038 0 0 0-1.638.19l.105-.571a.7.7 0 0 1 .686-.571h1.692a.7.7 0 0 1 .686.571l.105.571a7.225 7.225 0 0 0-1.636-.19z" class="cls-3" transform="translate(-532.2 -202.1)"/>
                                        </g>
                                    </g>
                                </g>
                            </g>
                        </g>
                    </g>
                </g>
            </g>
            <g id="Group_3067" transform="translate(0 0)">
                <g id="Group_3066">
                    <g id="Group_3065">
                        <g id="Group_3064">
                            <g id="Group_3063">
                                <g id="Group_3062">
                                    <g id="Group_3061">
                                        <path id="Path_25225" d="M358.466 208.807h-1.692a1.041 1.041 0 0 1-1.023-.85l-.367-1.988a5.98 5.98 0 0 1-1.461-.846l-1.906.676a1.043 1.043 0 0 1-1.247-.459l-.846-1.465a1.041 1.041 0 0 1 .224-1.312l1.539-1.315a5.869 5.869 0 0 1-.058-.846 6.441 6.441 0 0 1 .058-.846l-1.539-1.315a1.041 1.041 0 0 1-.224-1.312l.846-1.465a1.035 1.035 0 0 1 1.247-.459l1.906.676a6.042 6.042 0 0 1 1.461-.846l.367-1.988a1.039 1.039 0 0 1 1.023-.85h1.692a1.041 1.041 0 0 1 1.023.85l.367 1.988a5.979 5.979 0 0 1 1.461.846l1.906-.676a1.043 1.043 0 0 1 1.247.459l.846 1.465a1.041 1.041 0 0 1-.224 1.312l-1.539 1.318a5.869 5.869 0 0 1 .058.846 6.43 6.43 0 0 1-.058.846l1.539 1.315a1.041 1.041 0 0 1 .224 1.312l-.846 1.465a1.035 1.035 0 0 1-1.247.459l-1.906-.676a6.042 6.042 0 0 1-1.461.846l-.367 1.988a1.042 1.042 0 0 1-1.023.847zm-4.407-4.455l.15.126a5.235 5.235 0 0 0 1.594.921l.183.068.438 2.365a.361.361 0 0 0 .353.3h1.692a.357.357 0 0 0 .353-.3l.438-2.365.184-.068a5.3 5.3 0 0 0 1.594-.921l.15-.126 2.27.805a.36.36 0 0 0 .432-.16l.846-1.465a.36.36 0 0 0-.078-.455l-1.832-1.563.034-.19a5.21 5.21 0 0 0 .078-.921 5.554 5.554 0 0 0-.078-.921l-.034-.19 1.832-1.563a.363.363 0 0 0 .078-.455l-.846-1.465a.362.362 0 0 0-.432-.16l-2.27.805-.15-.126a5.234 5.234 0 0 0-1.594-.921l-.184-.068-.438-2.365a.361.361 0 0 0-.353-.3h-1.692a.357.357 0 0 0-.353.3l-.438 2.365-.183.068a5.305 5.305 0 0 0-1.594.921l-.149.126-2.27-.805a.36.36 0 0 0-.432.16l-.846 1.465a.36.36 0 0 0 .078.455l1.832 1.563-.034.19a5.21 5.21 0 0 0-.078.921 5.554 5.554 0 0 0 .078.921l.034.19-1.832 1.563a.363.363 0 0 0-.078.455l.846 1.465a.362.362 0 0 0 .432.16zm3.561-.778a3.167 3.167 0 1 1 3.167-3.167 3.17 3.17 0 0 1-3.167 3.167zm0-5.654a2.487 2.487 0 1 0 2.487 2.487 2.489 2.489 0 0 0-2.487-2.488z" class="cls-1" transform="translate(-349.783 -192)"/>
                                    </g>
                                </g>
                            </g>
                        </g>
                    </g>
                </g>
            </g>
        </g>
        <g id="Group_3163" transform="translate(98.334 120.747)">
            <g id="Group_3075" transform="translate(0.34 2.647)">
                <g id="Group_3074">
                    <g id="Group_3073">
                        <g id="Group_3072">
                            <g id="Group_3071">
                                <g id="Group_3070">
                                    <g id="Group_3069">
                                        <path id="Path_25226" d="M123.8 472h-7.95a.85.85 0 0 1-.85-.849v-5.5a.85.85 0 0 1 .85-.849h7.95a.85.85 0 0 1 .85.849v5.5a.85.85 0 0 1-.85.849z" class="cls-2" transform="translate(-115 -464.8)"/>
                                    </g>
                                </g>
                            </g>
                        </g>
                    </g>
                </g>
            </g>
            <g id="Group_3082" transform="translate(0.343 2.647)">
                <g id="Group_3081">
                    <g id="Group_3080">
                        <g id="Group_3079">
                            <g id="Group_3078">
                                <g id="Group_3077">
                                    <g id="Group_3076">
                                        <path id="Path_25227" d="M123.986 464.8h-8.128a.758.758 0 0 0-.758.758v.918a.758.758 0 0 1 .758-.758h8.128a.758.758 0 0 1 .758.758v-.918a.758.758 0 0 0-.758-.758z" class="cls-3" transform="translate(-115.1 -464.8)"/>
                                    </g>
                                </g>
                            </g>
                        </g>
                    </g>
                </g>
            </g>
            <g id="Group_3089" transform="translate(0.972 7.714)">
                <g id="Group_3088">
                    <g id="Group_3087">
                        <g id="Group_3086">
                            <g id="Group_3085">
                                <g id="Group_3084">
                                    <g id="Group_3083">
                                        <path id="Path_25228" d="M133.9 615.358h7.785a.3.3 0 0 0 .3-.3V613.9a.66.66 0 0 1-.659.659h-7.071a.66.66 0 0 1-.659-.659v1.155a.3.3 0 0 0 .304.303z" class="cls-3" transform="translate(-133.598 -613.9)"/>
                                    </g>
                                </g>
                            </g>
                        </g>
                    </g>
                </g>
            </g>
            <g id="Group_3096" transform="translate(0 2.307)">
                <g id="Group_3095">
                    <g id="Group_3094">
                        <g id="Group_3093">
                            <g id="Group_3092">
                                <g id="Group_3091">
                                    <g id="Group_3090">
                                        <path id="Path_25229" d="M114.137 462.677h-7.948a1.191 1.191 0 0 1-1.189-1.19v-5.5a1.191 1.191 0 0 1 1.189-1.189h7.948a1.191 1.191 0 0 1 1.189 1.189v5.5a1.191 1.191 0 0 1-1.189 1.19zm-7.948-7.2a.509.509 0 0 0-.51.51v5.5a.509.509 0 0 0 .51.51h7.948a.509.509 0 0 0 .51-.51v-5.5a.509.509 0 0 0-.51-.51z" class="cls-1" transform="translate(-105 -454.8)"/>
                                    </g>
                                </g>
                            </g>
                        </g>
                    </g>
                </g>
            </g>
            <g id="Group_3103" transform="translate(0 2.307)">
                <g id="Group_3102">
                    <g id="Group_3101">
                        <g id="Group_3100">
                            <g id="Group_3099">
                                <g id="Group_3098">
                                    <g id="Group_3097">
                                        <path id="Path_25230" d="M114.137 459.078h-7.948a1.191 1.191 0 0 1-1.189-1.189v-1.9a1.191 1.191 0 0 1 1.189-1.189h7.948a1.191 1.191 0 0 1 1.189 1.189v1.9a1.191 1.191 0 0 1-1.189 1.189zm-7.948-3.6a.509.509 0 0 0-.51.51v1.9a.509.509 0 0 0 .51.51h7.948a.509.509 0 0 0 .51-.51v-1.9a.509.509 0 0 0-.51-.51z" class="cls-1" transform="translate(-105 -454.8)"/>
                                    </g>
                                </g>
                            </g>
                        </g>
                    </g>
                </g>
            </g>
            <g id="Group_3111" transform="translate(2.817 0.34)">
                <g id="Group_3110">
                    <g id="Group_3109">
                        <g id="Group_3108">
                            <g id="Group_3107">
                                <g id="Group_3106">
                                    <g id="Group_3105">
                                        <g id="Group_3104">
                                            <path id="Path_25231" d="M192.6 399.207h-1.213v-.941a.152.152 0 0 0-.153-.153h-1.964a.152.152 0 0 0-.153.153v.941H187.9v-.941a1.366 1.366 0 0 1 1.366-1.366h1.964a1.366 1.366 0 0 1 1.366 1.366z" class="cls-2" transform="translate(-187.9 -396.9)"/>
                                        </g>
                                    </g>
                                </g>
                            </g>
                        </g>
                    </g>
                </g>
            </g>
            <g id="Group_3118" transform="translate(2.817 0.34)">
                <g id="Group_3117">
                    <g id="Group_3116">
                        <g id="Group_3115">
                            <g id="Group_3114">
                                <g id="Group_3113">
                                    <g id="Group_3112">
                                        <path id="Path_25232" d="M191.23 396.9h-1.964a1.366 1.366 0 0 0-1.366 1.366v.53a1.366 1.366 0 0 1 1.366-1.366h1.964a1.366 1.366 0 0 1 1.37 1.37v-.53a1.366 1.366 0 0 0-1.37-1.37z" class="cls-3" transform="translate(-187.9 -396.9)"/>
                                    </g>
                                </g>
                            </g>
                        </g>
                    </g>
                </g>
            </g>
            <g id="Group_3126" transform="translate(2.481)">
                <g id="Group_3125">
                    <g id="Group_3124">
                        <g id="Group_3123">
                            <g id="Group_3122">
                                <g id="Group_3121">
                                    <g id="Group_3120">
                                        <g id="Group_3119">
                                            <path id="Path_25233" d="M183.372 389.887h-1.892v-1.094h-1.587v1.094H178v-1.281a1.707 1.707 0 0 1 1.706-1.706h1.964a1.707 1.707 0 0 1 1.706 1.706v1.281zm-1.213-.68h.534v-.6a1.027 1.027 0 0 0-1.026-1.026H179.7a1.027 1.027 0 0 0-1.026 1.026v.6h.533v-.6a.493.493 0 0 1 .493-.493h1.964a.493.493 0 0 1 .493.493z" class="cls-1" transform="translate(-178 -386.9)"/>
                                        </g>
                                    </g>
                                </g>
                            </g>
                        </g>
                    </g>
                </g>
            </g>
            <g id="Group_3141" transform="translate(0.982 4.988)">
                <g id="Group_3133" transform="translate(7.761)">
                    <g id="Group_3132">
                        <g id="Group_3131">
                            <g id="Group_3130">
                                <g id="Group_3129">
                                    <g id="Group_3128">
                                        <g id="Group_3127">
                                            <circle id="Ellipse_516" cx=".302" cy=".302" r=".302" class="cls-1"/>
                                        </g>
                                    </g>
                                </g>
                            </g>
                        </g>
                    </g>
                </g>
                <g id="Group_3140">
                    <g id="Group_3139">
                        <g id="Group_3138">
                            <g id="Group_3137">
                                <g id="Group_3136">
                                    <g id="Group_3135">
                                        <g id="Group_3134">
                                            <circle id="Ellipse_517" cx=".302" cy=".302" r=".302" class="cls-1"/>
                                        </g>
                                    </g>
                                </g>
                            </g>
                        </g>
                    </g>
                </g>
            </g>
            <g id="Group_3148" transform="translate(3.799 5.699)">
                <g id="Group_3147">
                    <g id="Group_3146">
                        <g id="Group_3145">
                            <g id="Group_3144">
                                <g id="Group_3143">
                                    <g id="Group_3142">
                                        <path id="Path_25234" d="M218.822 556.065h-1.312a.712.712 0 0 1-.71-.71v-.044a.712.712 0 0 1 .71-.71h1.312a.712.712 0 0 1 .71.71v.044a.708.708 0 0 1-.71.71z" class="cls-4" transform="translate(-216.8 -554.6)"/>
                                    </g>
                                </g>
                            </g>
                        </g>
                    </g>
                </g>
            </g>
            <g id="Group_3155" transform="translate(3.796 5.699)">
                <g id="Group_3154">
                    <g id="Group_3153">
                        <g id="Group_3152">
                            <g id="Group_3151">
                                <g id="Group_3150">
                                    <g id="Group_3149">
                                        <path id="Path_25235" d="M218.7 554.6h-1.267a.735.735 0 0 0-.734.734.693.693 0 0 0 .071.313.733.733 0 0 1 .663-.418h1.267a.733.733 0 0 1 .663.418.741.741 0 0 0 .071-.313.733.733 0 0 0-.734-.734z" class="cls-3" transform="translate(-216.7 -554.6)"/>
                                    </g>
                                </g>
                            </g>
                        </g>
                    </g>
                </g>
            </g>
            <g id="Group_3162" transform="translate(3.459 5.359)">
                <g id="Group_3161">
                    <g id="Group_3160">
                        <g id="Group_3159">
                            <g id="Group_3158">
                                <g id="Group_3157">
                                    <g id="Group_3156">
                                        <path id="Path_25236" d="M209.162 546.744h-1.312a1.053 1.053 0 0 1-1.05-1.05v-.044a1.053 1.053 0 0 1 1.05-1.05h1.312a1.053 1.053 0 0 1 1.05 1.05v.044a1.051 1.051 0 0 1-1.05 1.05zm-1.312-1.465a.371.371 0 0 0-.37.37v.044a.371.371 0 0 0 .37.37h1.312a.371.371 0 0 0 .37-.37v-.044a.371.371 0 0 0-.37-.37z" class="cls-1" transform="translate(-206.8 -544.6)"/>
                                    </g>
                                </g>
                            </g>
                        </g>
                    </g>
                </g>
            </g>
        </g>
    </g>
</svg>
