<svg xmlns="http://www.w3.org/2000/svg" width="151.109" height="151.109" viewBox="0 0 151.109 151.109">
    <defs>
        <filter id="Rectangle_12275" width="151.109" height="151.109" x="0" y="0" filterUnits="userSpaceOnUse">
            <feOffset dx="2" dy="10"/>
            <feGaussianBlur result="blur" stdDeviation="12.5"/>
            <feFlood flood-opacity=".059"/>
            <feComposite in2="blur" operator="in"/>
            <feComposite in="SourceGraphic"/>
        </filter>
        <style>
            .cls-2{fill:#ffcd35}.cls-3{fill:#fff}.cls-4{fill:#122436}.cls-5{fill:#4ea4db}
        </style>
    </defs>
    <g id="Group_3183" transform="translate(-652.5 -223.5)">
        <g filter="url(#Rectangle_12275)" transform="matrix(1, 0, 0, 1, 652.5, 223.5)">
            <rect id="Rectangle_12275-2" width="76.109" height="76.109" fill="#f7f4f4" rx="10" transform="translate(35.5 27.5)"/>
        </g>
        <g id="reshot-icon-online-advertising-Z5YFK39784" transform="translate(631.9 90.8)">
            <g id="Group_2787" transform="translate(72.1 185.406)">
                <g id="Group_2730" transform="translate(3.678 0.519)">
                    <g id="Group_2729">
                        <g id="Group_2728">
                            <g id="Group_2727">
                                <g id="Group_2726">
                                    <g id="Group_2725">
                                        <g id="Group_2724">
                                            <path id="Path_25185" d="M180.038 279.387H143V255.3a1.3 1.3 0 0 1 1.3-1.3h34.444a1.3 1.3 0 0 1 1.3 1.3z" class="cls-2" transform="translate(-143 -254)"/>
                                        </g>
                                    </g>
                                </g>
                            </g>
                        </g>
                    </g>
                </g>
                <g id="Group_2737" transform="translate(3.673 0.519)">
                    <g id="Group_2736">
                        <g id="Group_2735">
                            <g id="Group_2734">
                                <g id="Group_2733">
                                    <g id="Group_2732">
                                        <g id="Group_2731">
                                            <path id="Path_25186" d="M178.553 254H144.3a1.4 1.4 0 0 0-1.4 1.4v1.115a1.4 1.4 0 0 1 1.4-1.4h34.252a1.4 1.4 0 0 1 1.4 1.4V255.4a1.391 1.391 0 0 0-1.399-1.4z" class="cls-3" transform="translate(-142.9 -254)"/>
                                        </g>
                                    </g>
                                </g>
                            </g>
                        </g>
                    </g>
                </g>
                <g id="Group_2744" transform="translate(3.159 0)">
                    <g id="Group_2743">
                        <g id="Group_2742">
                            <g id="Group_2741">
                                <g id="Group_2740">
                                    <g id="Group_2739">
                                        <g id="Group_2738">
                                            <path id="Path_25187" d="M171.075 270.424H133v-24.608a1.818 1.818 0 0 1 1.816-1.816h34.444a1.818 1.818 0 0 1 1.816 1.816zm-37.038-1.037h36v-23.571a.777.777 0 0 0-.778-.778h-34.443a.777.777 0 0 0-.778.778z" class="cls-4" transform="translate(-133 -244)"/>
                                        </g>
                                    </g>
                                </g>
                            </g>
                        </g>
                    </g>
                </g>
                <g id="Group_2751" transform="translate(6.323 3.211)">
                    <g id="Group_2750">
                        <g id="Group_2749">
                            <g id="Group_2748">
                                <g id="Group_2747">
                                    <g id="Group_2746">
                                        <g id="Group_2745">
                                            <path id="Path_25188" d="M225.746 328.595H194v-22.353a.342.342 0 0 1 .342-.342H225.4a.342.342 0 0 1 .342.342v22.352z" class="cls-5" transform="translate(-194 -305.9)"/>
                                        </g>
                                    </g>
                                </g>
                            </g>
                        </g>
                    </g>
                </g>
                <g id="Group_2758" transform="translate(6.323 3.211)">
                    <g id="Group_2757">
                        <g id="Group_2756">
                            <g id="Group_2755">
                                <g id="Group_2754">
                                    <g id="Group_2753">
                                        <g id="Group_2752">
                                            <path id="Path_25189" d="M225.378 305.9h-31.01a.37.37 0 0 0-.368.368v1.115a.37.37 0 0 1 .368-.368h31a.37.37 0 0 1 .368.368v-1.115a.362.362 0 0 0-.358-.368z" class="cls-3" transform="translate(-194 -305.9)"/>
                                        </g>
                                    </g>
                                </g>
                            </g>
                        </g>
                    </g>
                </g>
                <g id="Group_2765" transform="translate(5.805 2.692)">
                    <g id="Group_2764">
                        <g id="Group_2763">
                            <g id="Group_2762">
                                <g id="Group_2761">
                                    <g id="Group_2760">
                                        <g id="Group_2759">
                                            <path id="Path_25190" d="M216.784 319.632H184v-22.871a.862.862 0 0 1 .861-.861h31.057a.862.862 0 0 1 .861.861v22.871zm-31.746-1.037h30.709v-21.658h-30.71z" class="cls-4" transform="translate(-184 -295.9)"/>
                                        </g>
                                    </g>
                                </g>
                            </g>
                        </g>
                    </g>
                </g>
                <g id="Group_2772" transform="translate(0.519 25.906)">
                    <g id="Group_2771">
                        <g id="Group_2770">
                            <g id="Group_2769">
                                <g id="Group_2768">
                                    <g id="Group_2767">
                                        <g id="Group_2766">
                                            <path id="Path_25191" d="M124.117 746.741H83.438A1.338 1.338 0 0 1 82.1 745.4v-.664a1.338 1.338 0 0 1 1.338-1.338h40.679a1.338 1.338 0 0 1 1.338 1.338v.664a1.338 1.338 0 0 1-1.338 1.341z" class="cls-2" transform="translate(-82.1 -743.4)"/>
                                        </g>
                                    </g>
                                </g>
                            </g>
                        </g>
                    </g>
                </g>
                <g id="Group_2779" transform="translate(0.514 25.906)">
                    <g id="Group_2778">
                        <g id="Group_2777">
                            <g id="Group_2776">
                                <g id="Group_2775">
                                    <g id="Group_2774">
                                        <g id="Group_2773">
                                            <path id="Path_25192" d="M123.877 743.4H83.489A1.489 1.489 0 0 0 82 744.889v.368a1.6 1.6 0 0 0 .052.389 1.483 1.483 0 0 1 1.437-1.095h40.389a1.5 1.5 0 0 1 1.437 1.095 1.381 1.381 0 0 0 .052-.389v-.373a1.491 1.491 0 0 0-1.49-1.484z" class="cls-3" transform="translate(-82 -743.4)"/>
                                        </g>
                                    </g>
                                </g>
                            </g>
                        </g>
                    </g>
                </g>
                <g id="Group_2786" transform="translate(0 25.387)">
                    <g id="Group_2785">
                        <g id="Group_2784">
                            <g id="Group_2783">
                                <g id="Group_2782">
                                    <g id="Group_2781">
                                        <g id="Group_2780">
                                            <path id="Path_25193" d="M114.636 737.778H73.957a1.859 1.859 0 0 1-1.857-1.857v-.664a1.858 1.858 0 0 1 1.857-1.857h40.679a1.859 1.859 0 0 1 1.857 1.857v.664a1.859 1.859 0 0 1-1.857 1.857zm-40.679-3.341a.821.821 0 0 0-.82.82v.664a.821.821 0 0 0 .82.82h40.679a.821.821 0 0 0 .82-.82v-.664a.821.821 0 0 0-.82-.82z" class="cls-4" transform="translate(-72.1 -733.4)"/>
                                        </g>
                                    </g>
                                </g>
                            </g>
                        </g>
                    </g>
                </g>
            </g>
            <g id="Group_2844" transform="translate(82.63 201.31)">
                <g id="Group_2794" transform="translate(22.295 6.443)">
                    <g id="Group_2793">
                        <g id="Group_2792">
                            <g id="Group_2791">
                                <g id="Group_2790">
                                    <g id="Group_2789">
                                        <g id="Group_2788">
                                            <path id="Rectangle_12285" d="M0 0H1.037V1.037H0z" class="cls-3"/>
                                        </g>
                                    </g>
                                </g>
                            </g>
                        </g>
                    </g>
                </g>
                <g id="Group_2801" transform="translate(2.054 6.443)">
                    <g id="Group_2800">
                        <g id="Group_2799">
                            <g id="Group_2798">
                                <g id="Group_2797">
                                    <g id="Group_2796">
                                        <g id="Group_2795">
                                            <path id="Path_25194" d="M333.929 675.837h-1.012V674.8h1.012zm-2.028 0h-1.011V674.8h1.01zm-2.023 0h-1.012V674.8h1.012zm-2.023 0h-1.012V674.8h1.012zm-2.023 0h-1.012V674.8h1.012zm-2.028 0h-1.012V674.8h1.008zm-2.023 0h-1.012V674.8h1.012zm-2.023 0h-1.012V674.8h1.012zm-2.023 0h-1.012V674.8h1.012zm-2.023 0H314.7V674.8h1.012z" class="cls-3" transform="translate(-314.7 -674.8)"/>
                                        </g>
                                    </g>
                                </g>
                            </g>
                        </g>
                    </g>
                </g>
                <g id="Group_2808" transform="translate(0 6.443)">
                    <g id="Group_2807">
                        <g id="Group_2806">
                            <g id="Group_2805">
                                <g id="Group_2804">
                                    <g id="Group_2803">
                                        <g id="Group_2802">
                                            <path id="Rectangle_12286" d="M0 0H1.037V1.037H0z" class="cls-3"/>
                                        </g>
                                    </g>
                                </g>
                            </g>
                        </g>
                    </g>
                </g>
                <g id="Group_2815" transform="translate(0 2.122)">
                    <g id="Group_2814">
                        <g id="Group_2813">
                            <g id="Group_2812">
                                <g id="Group_2811">
                                    <g id="Group_2810">
                                        <g id="Group_2809">
                                            <path id="Path_25195" d="M276.137 594.737H275.1v-1.079h1.037zm0-2.158H275.1V591.5h1.037z" class="cls-3" transform="translate(-275.1 -591.5)"/>
                                        </g>
                                    </g>
                                </g>
                            </g>
                        </g>
                    </g>
                </g>
                <g id="Group_2822" transform="translate(0 0)">
                    <g id="Group_2821">
                        <g id="Group_2820">
                            <g id="Group_2819">
                                <g id="Group_2818">
                                    <g id="Group_2817">
                                        <g id="Group_2816">
                                            <path id="Rectangle_12287" d="M0 0H1.037V1.037H0z" class="cls-3"/>
                                        </g>
                                    </g>
                                </g>
                            </g>
                        </g>
                    </g>
                </g>
                <g id="Group_2829" transform="translate(2.054 0)">
                    <g id="Group_2828">
                        <g id="Group_2827">
                            <g id="Group_2826">
                                <g id="Group_2825">
                                    <g id="Group_2824">
                                        <g id="Group_2823">
                                            <path id="Path_25196" d="M333.929 551.637h-1.012V550.6h1.012zm-2.028 0h-1.011V550.6h1.01zm-2.023 0h-1.012V550.6h1.012zm-2.023 0h-1.012V550.6h1.012zm-2.023 0h-1.012V550.6h1.012zm-2.028 0h-1.012V550.6h1.008zm-2.023 0h-1.012V550.6h1.012zm-2.023 0h-1.012V550.6h1.012zm-2.023 0h-1.012V550.6h1.012zm-2.023 0H314.7V550.6h1.012z" class="cls-3" transform="translate(-314.7 -550.6)"/>
                                        </g>
                                    </g>
                                </g>
                            </g>
                        </g>
                    </g>
                </g>
                <g id="Group_2836" transform="translate(22.295 0)">
                    <g id="Group_2835">
                        <g id="Group_2834">
                            <g id="Group_2833">
                                <g id="Group_2832">
                                    <g id="Group_2831">
                                        <g id="Group_2830">
                                            <path id="Rectangle_12288" d="M0 0H1.037V1.037H0z" class="cls-3"/>
                                        </g>
                                    </g>
                                </g>
                            </g>
                        </g>
                    </g>
                </g>
                <g id="Group_2843" transform="translate(22.295 2.122)">
                    <g id="Group_2842">
                        <g id="Group_2841">
                            <g id="Group_2840">
                                <g id="Group_2839">
                                    <g id="Group_2838">
                                        <g id="Group_2837">
                                            <path id="Path_25197" d="M705.937 594.737H704.9v-1.079h1.037zm0-2.158H704.9V591.5h1.037z" class="cls-3" transform="translate(-704.9 -591.5)"/>
                                        </g>
                                    </g>
                                </g>
                            </g>
                        </g>
                    </g>
                </g>
            </g>
            <g id="Group_2859" transform="translate(80.535 182.2)">
                <g id="Group_2851" transform="translate(0.524 0.519)">
                    <g id="Group_2850">
                        <g id="Group_2849">
                            <g id="Group_2848">
                                <g id="Group_2847">
                                    <g id="Group_2846">
                                        <g id="Group_2845">
                                            <path id="Path_25198" d="M245.954 192.2h24.168a1.16 1.16 0 0 1 1.162 1.162v13.793a1.16 1.16 0 0 1-1.162 1.162h-13.544a1.168 1.168 0 0 0-.913.441l-3.968 4.985a.4.4 0 0 1-.716-.249v-4.01a1.16 1.16 0 0 0-1.162-1.162h-3.859a1.16 1.16 0 0 1-1.162-1.162v-13.8a1.149 1.149 0 0 1 1.156-1.16z" class="cls-3" transform="translate(-244.797 -192.2)"/>
                                        </g>
                                    </g>
                                </g>
                            </g>
                        </g>
                    </g>
                </g>
                <g id="Group_2858" transform="translate(0 0)">
                    <g id="Group_2857">
                        <g id="Group_2856">
                            <g id="Group_2855">
                                <g id="Group_2854">
                                    <g id="Group_2853">
                                        <g id="Group_2852">
                                            <path id="Path_25199" d="M241.812 204.936a.932.932 0 0 1-.311-.052.912.912 0 0 1-.617-.871V200a.643.643 0 0 0-.643-.643h-3.859a1.684 1.684 0 0 1-1.681-1.681v-13.8a1.684 1.684 0 0 1 1.681-1.681h24.168a1.684 1.684 0 0 1 1.681 1.681v13.793a1.684 1.684 0 0 1-1.681 1.681H247a.632.632 0 0 0-.5.244l-3.968 4.985a.926.926 0 0 1-.72.357zm-5.431-21.7a.643.643 0 0 0-.643.643v13.793a.643.643 0 0 0 .643.643h3.859a1.684 1.684 0 0 1 1.681 1.685v3.678l3.761-4.726a1.667 1.667 0 0 1 1.318-.633h13.544a.643.643 0 0 0 .643-.643v-13.795a.643.643 0 0 0-.643-.643z" class="cls-4" transform="translate(-234.7 -182.2)"/>
                                        </g>
                                    </g>
                                </g>
                            </g>
                        </g>
                    </g>
                </g>
            </g>
            <g id="Group_2937" transform="translate(85.11 184.45)">
                <g id="Group_2866" transform="translate(0.519 2.73)">
                    <g id="Group_2865">
                        <g id="Group_2864">
                            <g id="Group_2863">
                                <g id="Group_2862">
                                    <g id="Group_2861">
                                        <g id="Group_2860">
                                            <path id="Path_25200" d="M339.171 283.237h-4.233a2.039 2.039 0 0 1-2.038-2.037v-.96a2.039 2.039 0 0 1 2.039-2.039h4.233z" class="cls-5" transform="translate(-332.9 -278.2)"/>
                                        </g>
                                    </g>
                                </g>
                            </g>
                        </g>
                    </g>
                </g>
                <g id="Group_2873" transform="translate(0.524 2.735)">
                    <g id="Group_2872">
                        <g id="Group_2871">
                            <g id="Group_2870">
                                <g id="Group_2869">
                                    <g id="Group_2868">
                                        <g id="Group_2867">
                                            <path id="Path_25201" d="M335.516 278.3a2.515 2.515 0 0 0-2.516 2.516 2.5 2.5 0 0 0 .057.524 2.516 2.516 0 0 1 2.464-2h3.756v-1.04z" class="cls-3" transform="translate(-333 -278.3)"/>
                                        </g>
                                    </g>
                                </g>
                            </g>
                        </g>
                    </g>
                </g>
                <g id="Group_2880" transform="translate(0 2.212)">
                    <g id="Group_2879">
                        <g id="Group_2878">
                            <g id="Group_2877">
                                <g id="Group_2876">
                                    <g id="Group_2875">
                                        <g id="Group_2874">
                                            <path id="Path_25202" d="M330.209 274.274h-4.752a2.559 2.559 0 0 1-2.557-2.557v-.96a2.559 2.559 0 0 1 2.557-2.557h4.752zm-4.752-5.032a1.522 1.522 0 0 0-1.52 1.52v.954a1.522 1.522 0 0 0 1.52 1.52h3.714v-4h-3.714z" class="cls-4" transform="translate(-322.9 -268.2)"/>
                                        </g>
                                    </g>
                                </g>
                            </g>
                        </g>
                    </g>
                </g>
                <g id="Group_2887" transform="translate(14.146 3.135)">
                    <g id="Group_2886">
                        <g id="Group_2885">
                            <g id="Group_2884">
                                <g id="Group_2883">
                                    <g id="Group_2882">
                                        <g id="Group_2881">
                                            <path id="Path_25203" d="M596.425 290.233h-.825V286h.825a1.812 1.812 0 0 1 1.81 1.81v.607a1.816 1.816 0 0 1-1.81 1.816zm.213-3.169v2.1a.781.781 0 0 0 .56-.747v-.607a.781.781 0 0 0-.561-.747z" class="cls-4" transform="translate(-595.6 -286)"/>
                                        </g>
                                    </g>
                                </g>
                            </g>
                        </g>
                    </g>
                </g>
                <g id="Group_2894" transform="translate(6.79 0.521)">
                    <g id="Group_2893">
                        <g id="Group_2892">
                            <g id="Group_2891">
                                <g id="Group_2890">
                                    <g id="Group_2889">
                                        <g id="Group_2888">
                                            <path id="Path_25204" d="M460.684 244.929a10.385 10.385 0 0 0-6.884-2.609v-3.942a10.385 10.385 0 0 0 6.884-2.609.6.6 0 0 1 .991.446v8.269a.6.6 0 0 1-.991.445z" class="cls-2" transform="translate(-453.8 -235.619)"/>
                                        </g>
                                    </g>
                                </g>
                            </g>
                        </g>
                    </g>
                </g>
                <g id="Group_2901" transform="translate(11.334 3.073)">
                    <g id="Group_2900">
                        <g id="Group_2899">
                            <g id="Group_2898">
                                <g id="Group_2897">
                                    <g id="Group_2896">
                                        <g id="Group_2895">
                                            <path id="Rectangle_12289" d="M0 0H1.037V5.462H0z" class="cls-3"/>
                                        </g>
                                    </g>
                                </g>
                            </g>
                        </g>
                    </g>
                </g>
                <g id="Group_2908" transform="translate(6.79 0.519)">
                    <g id="Group_2907">
                        <g id="Group_2906">
                            <g id="Group_2905">
                                <g id="Group_2904">
                                    <g id="Group_2903">
                                        <g id="Group_2902">
                                            <path id="Path_25205" d="M460.684 235.727a10.385 10.385 0 0 1-6.884 2.609v1.4a10.385 10.385 0 0 0 6.884-2.609.6.6 0 0 1 .991.446v-1.4a.6.6 0 0 0-.991-.446z" class="cls-3" transform="translate(-453.8 -235.575)"/>
                                        </g>
                                    </g>
                                </g>
                            </g>
                        </g>
                    </g>
                </g>
                <g id="Group_2915" transform="translate(6.277 0)">
                    <g id="Group_2914">
                        <g id="Group_2913">
                            <g id="Group_2912">
                                <g id="Group_2911">
                                    <g id="Group_2910">
                                        <g id="Group_2909">
                                            <path id="Path_25206" d="M451.691 236.067a1.112 1.112 0 0 1-.731-.28 9.865 9.865 0 0 0-6.541-2.48h-.519v-4.98h.519a9.865 9.865 0 0 0 6.541-2.48 1.11 1.11 0 0 1 1.847.835v8.269a1.1 1.1 0 0 1-.654 1.017 1.138 1.138 0 0 1-.462.099zm-.047-1.058a.068.068 0 0 0 .083.01.069.069 0 0 0 .047-.067v-8.269a.066.066 0 0 0-.047-.067.077.077 0 0 0-.083.01 10.927 10.927 0 0 1-6.712 2.729v2.926a10.927 10.927 0 0 1 6.712 2.729z" class="cls-4" transform="translate(-443.9 -225.566)"/>
                                        </g>
                                    </g>
                                </g>
                            </g>
                        </g>
                    </g>
                </g>
                <g id="Group_2922" transform="translate(3.273 7.767)">
                    <g id="Group_2921">
                        <g id="Group_2920">
                            <g id="Group_2919">
                                <g id="Group_2918">
                                    <g id="Group_2917">
                                        <g id="Group_2916">
                                            <path id="Path_25207" d="M389.066 379.351h-1.344a.877.877 0 0 1-.846-.654L386 375.3h2.023z" class="cls-2" transform="translate(-386 -375.3)"/>
                                        </g>
                                    </g>
                                </g>
                            </g>
                        </g>
                    </g>
                </g>
                <g id="Group_2929" transform="translate(3.273 7.767)">
                    <g id="Group_2928">
                        <g id="Group_2927">
                            <g id="Group_2926">
                                <g id="Group_2925">
                                    <g id="Group_2924">
                                        <g id="Group_2923">
                                            <path id="Path_25208" d="M388.018 376v-.7H386l.176.7z" class="cls-3" transform="translate(-386 -375.3)"/>
                                        </g>
                                    </g>
                                </g>
                            </g>
                        </g>
                    </g>
                </g>
                <g id="Group_2936" transform="translate(2.604 7.248)">
                    <g id="Group_2935">
                        <g id="Group_2934">
                            <g id="Group_2933">
                                <g id="Group_2932">
                                    <g id="Group_2931">
                                        <g id="Group_2930">
                                            <path id="Path_25209" d="M377.5 370.389h-2.018a1.388 1.388 0 0 1-1.344-1.043L373.1 365.3h3.092zm-3.066-4.051l.711 2.749a.355.355 0 0 0 .342.265h.674l-.778-3.014z" class="cls-4" transform="translate(-373.1 -365.3)"/>
                                        </g>
                                    </g>
                                </g>
                            </g>
                        </g>
                    </g>
                </g>
            </g>
        </g>
    </g>
</svg>
