<svg xmlns="http://www.w3.org/2000/svg" width="500" height="500" viewBox="0 0 712.95 768">
    <defs>
        <style>
            .cls-1{fill:#f5f5f5}.cls-2{fill:#e0e0e0}.cls-3{fill:#fff}.cls-4{fill:#fafafa}.cls-5{fill:#ebebeb}.cls-6{fill:#263238}.cls-7{fill:#b78876}.cls-8{fill:#aa6550}.cls-9{fill:#2541b2}.cls-10{opacity:.6}.cls-12{fill:#455a64}.cls-13{opacity:.3}.cls-14{fill:#ffbe9d}.cls-15{fill:#eb996e}.cls-16{fill:#995037}.cls-17{opacity:.2}
        </style>
    </defs>
    <g id="At_the_office-pana_2_" transform="translate(-16.23 293.619)">
        <g id="freepik--background-complete--inject-40">
            <path id="Path_24673" d="M295.29 441.42v24.2h74.42v-24.2z" class="cls-1"/>
            <path id="Path_24674" d="M292.17 434.66v6.76h80.14v-6.76h-80.14z" class="cls-2"/>
            <path id="Path_24675" d="M332.24 465.62h37.47v-24.2h2.6v-6.76h-41.63v6.14z" class="cls-2"/>
            <path id="Rectangle_12163" d="M0 0H15.09V3.64H0z" class="cls-2" transform="translate(305.7 445.32)"/>
            <path id="Rectangle_12164" d="M0 0H19.38V7.69H0z" class="cls-3" transform="translate(303.76 453.52)"/>
            <path id="Path_24676" d="M302.13 410.48v24.2h74.42v-24.2z" class="cls-1"/>
            <path id="Path_24677" d="M299.01 403.71v6.77h80.14v-6.77h-80.14z" class="cls-2"/>
            <path id="Path_24678" d="M339.08 434.68h37.47v-24.2h2.6v-6.77h-41.63v6.14z" class="cls-2"/>
            <path id="Rectangle_12165" d="M0 0H15.09V3.64H0z" class="cls-2" transform="translate(312.54 414.38)"/>
            <path id="Rectangle_12166" d="M0 0H19.38V7.69H0z" class="cls-3" transform="translate(310.6 422.58)"/>
            <path id="Rectangle_12168" d="M0 0H10.64V19.18H0z" class="cls-2" transform="translate(109.51 445.85)"/>
            <path id="Rectangle_12171" d="M0 0H10.64V19.18H0z" class="cls-1" transform="translate(30.56 445.85)"/>
            <path id="Rectangle_12172" d="M0 0H10.64V19.18H0z" class="cls-1" transform="translate(91.74 445.85)"/>
            <path id="Path_24686" d="M102 432.71v-7.62c0-4.89 0-12-.07-20.77l.12.12-73.67.05.17-.17v28.39l-.17-.17 52.77.08 15.35.05h.04l-15.31.05-52.89.07h-.17v-28.64h.17l73.67.05h.12v.12c0 8.83 0 15.94-.06 20.85v7.05a2.677 2.677 0 0 0-.07.49z" class="cls-2"/>
            <path id="Path_24687" d="M67.37 418.51a3.571 3.571 0 0 1-.14-.52 2.14 2.14 0 0 0-2.79-1.42 2.071 2.071 0 1 0 2.79 2.47 4.759 4.759 0 0 1 .14-.53 1 1 0 0 1 0 .56 2.25 2.25 0 0 1-.8 1.31 2.376 2.376 0 1 1 0-3.73 2.26 2.26 0 0 1 .8 1.3 1 1 0 0 1 0 .56z" class="cls-2"/>
            <path id="Rectangle_12173" d="M0 0H77.5V69.34H0z" class="cls-4" transform="translate(355.82 158.33)"/>
            <path id="Path_24693" d="M433.32 227.67v-19.08c0-12.11-.06-29.42-.09-50.26l.17.18h-77.49l.21-.21v69.34l-.18-.18 56.06.09h.07l-56.17.09h-.18v-69.72h77.89v.17c0 20.88-.07 38.23-.09 50.37 0 6.05 0 10.79-.05 14v3.68a8.034 8.034 0 0 1-.15 1.53z" class="cls-2"/>
            <path id="Path_24694" d="M385.54 170.65c0 .12-4.08.21-9.11.21s-9.11-.09-9.11-.21 4.07-.2 9.11-.2 9.11.09 9.11.2z" class="cls-2"/>
            <path id="Path_24695" d="M418.38 175.86c0 .11-11.21.21-25 .21s-25-.1-25-.21 11.2-.21 25-.21 25 .09 25 .21z" class="cls-2"/>
            <path id="Rectangle_12174" d="M0 0H3.27V3.27H0z" class="cls-2" transform="translate(367.45 184.68)"/>
            <path id="Rectangle_12175" d="M0 0H3.27V3.27H0z" class="cls-2" transform="translate(375.49 184.68)"/>
            <path id="Rectangle_12176" d="M0 0H3.27V3.27H0z" class="cls-2" transform="translate(383.67 184.53)"/>
            <path id="Rectangle_12177" d="M0 0H3.27V3.27H0z" class="cls-2" transform="translate(391.56 184.68)"/>
            <path id="Rectangle_12178" d="M0 0H3.27V3.27H0z" class="cls-2" transform="translate(399.6 184.68)"/>
            <path id="Rectangle_12179" d="M0 0H3.27V3.27H0z" class="cls-2" transform="translate(407.64 184.68)"/>
            <path id="Rectangle_12180" d="M0 0H3.27V3.27H0z" class="cls-5" transform="translate(415.67 184.68)"/>
            <path id="Rectangle_12181" d="M0 0H3.27V3.27H0z" class="cls-5" transform="translate(367.45 191.62)"/>
            <path id="Rectangle_12182" d="M0 0H3.27V3.27H0z" class="cls-2" transform="translate(375.49 191.62)"/>
            <path id="Rectangle_12183" d="M0 0H3.27V3.27H0z" class="cls-5" transform="translate(383.52 191.62)"/>
            <path id="Rectangle_12184" d="M0 0H3.27V3.27H0z" class="cls-2" transform="translate(391.56 191.62)"/>
            <path id="Rectangle_12185" d="M0 0H3.27V3.27H0z" class="cls-2" transform="translate(399.6 191.62)"/>
            <path id="Rectangle_12186" d="M0 0H3.27V3.27H0z" class="cls-2" transform="translate(407.78 191.47)"/>
            <path id="Rectangle_12187" d="M0 0H3.27V3.27H0z" class="cls-2" transform="translate(415.67 191.62)"/>
            <path id="Rectangle_12188" d="M0 0H3.27V3.27H0z" class="cls-2" transform="translate(367.45 198.56)"/>
            <path id="Rectangle_12189" d="M0 0H3.27V3.27H0z" class="cls-2" transform="translate(375.64 198.41)"/>
            <path id="Rectangle_12190" d="M0 0H3.27V3.27H0z" class="cls-2" transform="translate(383.52 198.56)"/>
            <path id="Rectangle_12191" d="M0 0H3.27V3.27H0z" class="cls-5" transform="translate(391.56 198.56)"/>
            <path id="Rectangle_12192" d="M0 0H3.27V3.27H0z" class="cls-2" transform="translate(399.6 198.56)"/>
            <path id="Rectangle_12193" d="M0 0H3.27V3.27H0z" class="cls-2" transform="translate(407.64 198.56)"/>
            <path id="Rectangle_12194" d="M0 0H3.27V3.27H0z" class="cls-2" transform="translate(415.67 198.56)"/>
            <path id="Rectangle_12195" d="M0 0H3.27V3.27H0z" class="cls-2" transform="translate(367.45 205.5)"/>
            <path id="Rectangle_12196" d="M0 0H3.27V3.27H0z" class="cls-2" transform="translate(375.49 205.5)"/>
            <path id="Rectangle_12197" d="M0 0H3.27V3.27H0z" class="cls-2" transform="translate(383.52 205.5)"/>
            <path id="Rectangle_12198" d="M0 0H3.27V3.27H0z" class="cls-2" transform="translate(391.71 205.35)"/>
            <path id="Rectangle_12199" d="M0 0H3.27V3.27H0z" class="cls-2" transform="translate(399.6 205.5)"/>
            <path id="Rectangle_12200" d="M0 0H3.27V3.27H0z" class="cls-5" transform="translate(407.64 205.5)"/>
            <path id="Rectangle_12201" d="M0 0H3.27V3.27H0z" class="cls-2" transform="translate(415.67 205.5)"/>
            <path id="Rectangle_12202" d="M0 0H3.27V3.27H0z" class="cls-2" transform="translate(367.45 212.44)"/>
            <path id="Rectangle_12203" d="M0 0H3.27V3.27H0z" class="cls-5" transform="translate(375.49 212.44)"/>
            <path id="Rectangle_12204" d="M0 0H3.27V3.27H0z" class="cls-2" transform="translate(383.52 212.44)"/>
            <path id="Rectangle_12205" d="M0 0H3.27V3.27H0z" class="cls-2" transform="translate(391.56 212.44)"/>
            <path id="Rectangle_12206" d="M0 0H3.27V3.27H0z" class="cls-2" transform="translate(399.6 212.44)"/>
            <path id="Rectangle_12207" d="M0 0H3.27V3.27H0z" class="cls-2" transform="translate(407.78 212.3)"/>
            <path id="Rectangle_12208" d="M0 0H3.27V3.27H0z" class="cls-2" transform="translate(415.67 212.44)"/>
            <path id="Path_24696" d="M662.07 210.52v-32.81c0-20.87-.07-50.75-.12-86.78l.22.21h-150.3l.26-.26v119.59l-.23-.23 108.58.11 30.76.07h.07l-30.71.06-108.73.11h-.23V90.51h150.79v.22c0 36.09-.09 66-.11 86.91 0 10.43 0 18.6-.06 24.18v6.34a12.864 12.864 0 0 1-.19 2.36z" class="cls-2"/>
            <path id="Rectangle_12209" d="M0 0H5.44V60.7H0z" class="cls-2" transform="translate(531.19 113.09)"/>
            <path id="Rectangle_12210" d="M0 0H5.44V40.08H0z" class="cls-5" transform="translate(541.68 133.71)"/>
            <path id="Rectangle_12211" d="M0 0H5.44V53.46H0z" class="cls-2" transform="translate(552.18 120.64)"/>
            <path id="Rectangle_12212" d="M0 0H5.44V58.36H0z" class="cls-5" transform="translate(562.67 115.44)"/>
            <path id="Rectangle_12213" d="M0 0H5.44V38.85H0z" class="cls-2" transform="translate(573.16 134.94)"/>
            <path id="Rectangle_12214" d="M0 0H5.44V31.23H0z" class="cls-5" transform="translate(583.66 142.56)"/>
            <path id="Rectangle_12215" d="M0 0H5.44V54.47H0z" class="cls-2" transform="translate(594.15 119.32)"/>
            <path id="Rectangle_12216" d="M0 0H5.44V44.65H0z" class="cls-5" transform="translate(604.64 129.14)"/>
            <path id="Rectangle_12217" d="M0 0H5.44V52.5H0z" class="cls-2" transform="translate(615.14 121.29)"/>
            <path id="Rectangle_12218" d="M0 0H5.44V35.76H0z" class="cls-5" transform="translate(625.63 138.03)"/>
            <path id="Rectangle_12219" d="M0 0H5.44V42.57H0z" class="cls-2" transform="translate(636.12 131.22)"/>
            <path id="Path_24697" d="M643.78 178c0 .12-25.79.22-57.58.22s-57.58-.1-57.58-.22 25.77-.22 57.58-.22 57.58.12 57.58.22z" class="cls-2"/>
            <path id="Path_24698" d="M538.94 182.8a37 37 0 0 1-8.06 0 35.421 35.421 0 0 1 8.06 0z" class="cls-2"/>
            <path id="Path_24699" d="M552.32 183a52.911 52.911 0 0 1-9.64 0 52.907 52.907 0 0 1 9.64 0z" class="cls-2"/>
            <path id="Path_24700" d="M563.73 183a52.911 52.911 0 0 1-9.64 0 52.907 52.907 0 0 1 9.64 0z" class="cls-2"/>
            <path id="Path_24701" d="M575.15 183a52.911 52.911 0 0 1-9.64 0 52.907 52.907 0 0 1 9.64 0z" class="cls-2"/>
            <path id="Path_24702" d="M586.56 183a52.911 52.911 0 0 1-9.64 0 52.907 52.907 0 0 1 9.64 0z" class="cls-2"/>
            <path id="Path_24703" d="M598 183a52.909 52.909 0 0 1-9.64 0 52.907 52.907 0 0 1 9.64 0z" class="cls-2"/>
            <path id="Path_24704" d="M609.38 183a52.909 52.909 0 0 1-9.64 0 52.907 52.907 0 0 1 9.64 0z" class="cls-2"/>
            <path id="Path_24705" d="M620.79 183a52.909 52.909 0 0 1-9.64 0 52.907 52.907 0 0 1 9.64 0z" class="cls-2"/>
            <path id="Path_24706" d="M632.2 183a52.909 52.909 0 0 1-9.64 0 52.907 52.907 0 0 1 9.64 0z" class="cls-2"/>
            <path id="Path_24707" d="M643.62 183a52.909 52.909 0 0 1-9.64 0 52.907 52.907 0 0 1 9.64 0z" class="cls-2"/>
            <path id="Rectangle_12220" d="M0 0H159.39V4.49H0z" class="cls-5" transform="translate(506.95 90.22)"/>
            <path id="Path_24708" d="M373.19 215.87l-1.05-3.67 2.11.1.19 3.39z" class="cls-2"/>
            <path id="Path_24709" d="M370.13 215.76l-2.4 13.03-6.07 17.22 34.21-4.93-13.81-15.03-5.76-11.17-6.17.88" class="cls-2"/>
            <path id="Path_24710" d="M302.84 307.18v-.54a10.86 10.86 0 1 1 21.71 0v.54z" class="cls-2"/>
            <path id="Path_24711" d="M313.67 296.21a.43.43 0 0 1-.41-.32l-14.39-54.83a.434.434 0 0 1 .84-.22l14.38 54.83a.44.44 0 0 1-.31.53z" class="cls-2"/>
            <path id="Path_24712" d="M309.87 297.57a.43.43 0 0 1-.41-.32l-14.39-54.83a.434.434 0 0 1 .84-.22l14.38 54.8a.44.44 0 0 1-.31.53z" class="cls-2"/>
            <path id="Path_24713" d="M294.4 241.49a2.72 2.72 0 1 0 2.72-2.71 2.72 2.72 0 0 0-2.72 2.71z" class="cls-2"/>
            <path id="Path_24714" d="M297.36 241.85l-.49-.71 50.98-35.17 29.83 16.96-.43.75-29.35-16.69z" class="cls-2"/>
            <path id="Rectangle_12221" d="M0 0H61.06V0.86H0z" class="cls-2" transform="translate(299.59 243.025) rotate(-34.7)"/>
            <path id="Path_24715" d="M346.25 207.84a2.44 2.44 0 1 0 .711-1.732 2.44 2.44 0 0 0-.711 1.732z" class="cls-2"/>
            <path id="Path_24716" d="M371.738 79.22l-41.8 14.038h94.439L385.135 79.22z" class="cls-2" transform="translate(0 -242.05)"/>
            <path id="Path_25078" d="M371.738 79.22l-41.8 14.038h94.439L385.135 79.22z" class="cls-2" transform="translate(161 -77.05)"/>
            <path id="Path_24717" d="M385.229 92.89a20.383 20.383 0 0 0-.316 2.469 12.316 12.316 0 0 0 1.56 6.488c.651 1.273 1.493 2.622 2.153 4.21a9.32 9.32 0 0 1 .555 5.435 9.742 9.742 0 0 1-2.947 5.253 8.986 8.986 0 0 1-6.029 2.306 9.229 9.229 0 0 1-8.832-12.66 17.655 17.655 0 0 1 2.517-4.029 16.4 16.4 0 0 0 2.048-3.254 7.6 7.6 0 0 0 .66-2.794 5.205 5.205 0 0 0-.565-2.383 2.066 2.066 0 0 1 .345.555 4.68 4.68 0 0 1 .411 1.828 7.522 7.522 0 0 1-.593 2.871 16.011 16.011 0 0 1-2.029 3.359 17.533 17.533 0 0 0-2.4 3.971 9.129 9.129 0 0 0 2.641 10.086 9.014 9.014 0 0 0 5.8 1.971 8.526 8.526 0 0 0 5.742-2.163 9.4 9.4 0 0 0 2.871-5 8.919 8.919 0 0 0-.488-5.187c-.622-1.55-1.445-2.871-2.086-4.2a12.2 12.2 0 0 1-1.435-6.7 10.427 10.427 0 0 1 .3-1.847 2.476 2.476 0 0 1 .124-.593z" class="cls-2" transform="translate(-1.759 -242.639)"/>
            <path id="Path_25081" d="M385.229 92.89a20.383 20.383 0 0 0-.316 2.469 12.316 12.316 0 0 0 1.56 6.488c.651 1.273 1.493 2.622 2.153 4.21a9.32 9.32 0 0 1 .555 5.435 9.742 9.742 0 0 1-2.947 5.253 8.986 8.986 0 0 1-6.029 2.306 9.229 9.229 0 0 1-8.832-12.66 17.655 17.655 0 0 1 2.517-4.029 16.4 16.4 0 0 0 2.048-3.254 7.6 7.6 0 0 0 .66-2.794 5.205 5.205 0 0 0-.565-2.383 2.066 2.066 0 0 1 .345.555 4.68 4.68 0 0 1 .411 1.828 7.522 7.522 0 0 1-.593 2.871 16.011 16.011 0 0 1-2.029 3.359 17.533 17.533 0 0 0-2.4 3.971 9.129 9.129 0 0 0 2.641 10.086 9.014 9.014 0 0 0 5.8 1.971 8.526 8.526 0 0 0 5.742-2.163 9.4 9.4 0 0 0 2.871-5 8.919 8.919 0 0 0-.488-5.187c-.622-1.55-1.445-2.871-2.086-4.2a12.2 12.2 0 0 1-1.435-6.7 10.427 10.427 0 0 1 .3-1.847 2.476 2.476 0 0 1 .124-.593z" class="cls-2" transform="translate(159.241 -77.639)"/>
            <path id="Path_24718" d="M382.043 93.82a14.721 14.721 0 0 1-.258 1.761 48.051 48.051 0 0 0-.478 4.785 38.875 38.875 0 0 0 .316 7.1 1.627 1.627 0 0 0 .383.794.785.785 0 0 0 .727.258c.517-.105.794-.89.689-1.512a2.986 2.986 0 0 0-5.885-.086 1.34 1.34 0 0 0 .785 1.5 1.187 1.187 0 0 0 1.359-.785 5.741 5.741 0 0 0 .316-1.914c.048-.632.077-1.244.086-1.847a32.484 32.484 0 0 0-.144-3.311 31.835 31.835 0 0 0-.8-4.785c-.268-1.1-.45-1.713-.411-1.722a2.048 2.048 0 0 1 .182.421c.115.278.258.7.421 1.254a28.439 28.439 0 0 1 .957 4.785 32.354 32.354 0 0 1 .2 3.359q0 .9-.057 1.866a6.2 6.2 0 0 1-.335 2.019 1.914 1.914 0 0 1-.727.88 1.368 1.368 0 0 1-1.206.172 1.818 1.818 0 0 1-1.12-2.01 3.474 3.474 0 0 1 6.861.077 2.307 2.307 0 0 1-.153 1.2 1.349 1.349 0 0 1-.957.852 1.263 1.263 0 0 1-1.167-.4 2.1 2.1 0 0 1-.5-1.024 36.362 36.362 0 0 1-.22-7.215 37.107 37.107 0 0 1 .641-4.785c.124-.565.22-.957.306-1.282a1.475 1.475 0 0 1 .191-.4z" class="cls-2" transform="translate(-2.028 -242.679)"/>
            <path id="Path_25080" d="M382.043 93.82a14.721 14.721 0 0 1-.258 1.761 48.051 48.051 0 0 0-.478 4.785 38.875 38.875 0 0 0 .316 7.1 1.627 1.627 0 0 0 .383.794.785.785 0 0 0 .727.258c.517-.105.794-.89.689-1.512a2.986 2.986 0 0 0-5.885-.086 1.34 1.34 0 0 0 .785 1.5 1.187 1.187 0 0 0 1.359-.785 5.741 5.741 0 0 0 .316-1.914c.048-.632.077-1.244.086-1.847a32.484 32.484 0 0 0-.144-3.311 31.835 31.835 0 0 0-.8-4.785c-.268-1.1-.45-1.713-.411-1.722a2.048 2.048 0 0 1 .182.421c.115.278.258.7.421 1.254a28.439 28.439 0 0 1 .957 4.785 32.354 32.354 0 0 1 .2 3.359q0 .9-.057 1.866a6.2 6.2 0 0 1-.335 2.019 1.914 1.914 0 0 1-.727.88 1.368 1.368 0 0 1-1.206.172 1.818 1.818 0 0 1-1.12-2.01 3.474 3.474 0 0 1 6.861.077 2.307 2.307 0 0 1-.153 1.2 1.349 1.349 0 0 1-.957.852 1.263 1.263 0 0 1-1.167-.4 2.1 2.1 0 0 1-.5-1.024 36.362 36.362 0 0 1-.22-7.215 37.107 37.107 0 0 1 .641-4.785c.124-.565.22-.957.306-1.282a1.475 1.475 0 0 1 .191-.4z" class="cls-2" transform="translate(158.972 -77.679)"/>
            <path id="Path_24719" d="M380.618 4.2c.037.48.053.966.048 1.452 0 1.032 0 2.407.048 4.126 0 3.687 0 8.845.077 15.167 0 12.913.048 30.564.077 50.068s-.057 37.155-.077 50.068c0 6.323-.057 11.462-.077 15.282 0 1.7 0 3.076-.048 4.107 0 .486-.011.971-.048 1.452a13.026 13.026 0 0 1-.048-1.452c0-1.032 0-2.407-.048-4.107 0-3.706 0-8.864-.086-15.282 0-12.913 0-30.564-.067-50.068s.048-37.155.067-50.068c0-6.323.067-11.462.086-15.167 0-1.719 0-3.095.048-4.126a13.019 13.019 0 0 1 .048-1.452z" class="cls-2" transform="translate(-2.171 -297.819)"/>
            <path id="Path_25079" d="M380.618 4.2c.037 1.05.053 2.112.048 3.174 0 2.255 0 5.262.048 9.02 0 8.06 0 19.335.077 33.158 0 28.231.048 66.818.077 109.456s-.057 81.226-.077 109.456c0 13.823-.057 25.057-.077 33.409 0 3.717 0 6.724-.048 8.979 0 1.062-.011 2.124-.048 3.174-.043-1.047-.059-2.111-.048-3.174 0-2.255 0-5.262-.048-8.979 0-8.1 0-19.377-.086-33.409 0-28.231 0-66.818-.067-109.456s.048-81.226.067-109.456c0-13.823.067-25.057.086-33.158 0-3.759 0-6.765.048-9.02-.011-1.063.005-2.127.048-3.174z" class="cls-2" transform="translate(158.829 -297.819)"/>
            <path id="Path_24720" d="M373.62 78.7l2.58-11.61h8.612l2.2 11.607z" class="cls-2" transform="translate(-1.882 -241.528)"/>
            <path id="Path_25077" d="M373.62 78.7l2.58-11.61h8.612l2.2 11.607z" class="cls-2" transform="translate(159.118 -76.528)"/>
            <path id="Rectangle_12222" d="M0 0H4.91V105.54H0z" class="cls-2" transform="translate(223.46 76.35)"/>
            <rect id="Rectangle_12223" width="70.46" height="104.87" class="cls-1" rx=".07" transform="translate(152.25 77.17)"/>
            <path id="Path_24721" d="M223.46 182.85h-72a.07.07 0 0 1-.07-.07V76.42a.07.07 0 0 1 .07-.07h72a.08.08 0 0 1 .07.07v106.36a.08.08 0 0 1-.07.07zm-70.32-1.63h68.68a.07.07 0 0 0 .07-.07V78.06a.08.08 0 0 0-.07-.08h-68.68a.08.08 0 0 0-.07.08v103.09a.07.07 0 0 0 .07.07z" class="cls-5"/>
            <rect id="Rectangle_12224" width="56.39" height="91.86" class="cls-4" rx=".07" transform="translate(159.35 83.64)"/>
            <rect id="Rectangle_12225" width="31.66" height="37.11" class="cls-5" rx=".06" transform="translate(171.65 109.68)"/>
            <path id="Path_24722" d="M200.81 142.25c0 .12-1.53.8-4.5.46a11 11 0 0 1-5.05-2 10.3 10.3 0 0 1-3.93-6.18 8.88 8.88 0 0 1 3-8.44 8 8 0 0 1 2.28-1.34 6.11 6.11 0 0 1 2.85-.32 5 5 0 0 1 2.85 1.24 3.72 3.72 0 0 1 1.12 3.32 5.48 5.48 0 0 1-1.56 2.85 10.391 10.391 0 0 1-2.39 1.75 13.13 13.13 0 0 1-5.69 1.63 11.27 11.27 0 0 1-6.06-1.38 11 11 0 0 1-4.47-4.63 9.46 9.46 0 0 1-.8-6.48 9.67 9.67 0 0 1 3.42-5.34 8.57 8.57 0 0 1 2.86-1.44 7.15 7.15 0 0 1 3.22-.1 5.27 5.27 0 0 1 2.93 1.65 4.86 4.86 0 0 1 1.11 3.1 6 6 0 0 1-.77 3 7.87 7.87 0 0 1-1.8 2.17 12.16 12.16 0 0 1-4.49 2.39 11.54 11.54 0 0 1-4.72.36 9.62 9.62 0 0 1-4.11-1.57 8.91 8.91 0 0 1-3.92-6.22 7.5 7.5 0 0 1 1.46-5.32 6.36 6.36 0 0 1 2.68-2.15c.74-.28 1.17-.27 1.18-.2s-.33.26-.93.66a7 7 0 0 0-2.09 2.25 6.65 6.65 0 0 0-.86 4.55 7.49 7.49 0 0 0 3.49 4.89 8.63 8.63 0 0 0 7.2.68 10 10 0 0 0 3.6-2 4.41 4.41 0 0 0 1.68-3.37 2.43 2.43 0 0 0-2.17-2.39 4.69 4.69 0 0 0-2.07.09 5.82 5.82 0 0 0-2 1 7.12 7.12 0 0 0-2.47 3.92 6.87 6.87 0 0 0 .61 4.71 8.53 8.53 0 0 0 3.4 3.54 8.82 8.82 0 0 0 4.69 1.09 10.72 10.72 0 0 0 4.61-1.26 8 8 0 0 0 1.84-1.3 3.08 3.08 0 0 0 .93-1.52 1.3 1.3 0 0 0-.37-1.22 2.74 2.74 0 0 0-1.53-.67 3.71 3.71 0 0 0-1.79.15 6 6 0 0 0-1.68.91 7 7 0 0 0-2.18 3 6.84 6.84 0 0 0-.36 3.45 8.9 8.9 0 0 0 3 5.35 10.74 10.74 0 0 0 4.34 2.16c2.78.6 4.39.27 4.41.52z" class="cls-2"/>
        </g>
        <g id="freepik--Floor--inject-40">
            <path id="Path_24723" d="M729.18 465c0 .14-159.61.26-356.46.26s-356.49-.09-356.49-.26 159.58-.26 356.49-.26 356.46.15 356.46.26z" class="cls-6"/>
        </g>
        <g id="freepik--character-3--inject-40">
            <path id="Path_24724" d="M519.93 182.8c2.11-3.06 3.27-5.35 4.76-7.28 1.84-2.38 2.44-3.49 2-3.81s-.37-.28-4.33 3.56c0 0 5.61-5.54 3.45-5.29-.95.11-5.66 4.66-5.66 4.66 4.12-3.31 5.14-5.21 4.61-5.8-.77-.87-6.44 4.71-6.44 4.71a66.775 66.775 0 0 0 5-5.14c.59-.97-.78-.73-1.82-.22s-7.44 4.86-9.32 6a1.29 1.29 0 0 1-1.93-.39c-1.13-3-3.6-4.71-4.49-4.86a1 1 0 0 0-.69 1.72 11.609 11.609 0 0 1 1.68 2.76 7.461 7.461 0 0 1 .72 2.47c.11 1 .17 1.85.19 2.57l-2.85 15.9 10 7z" class="cls-7"/>
            <path id="Path_24725" d="M520 177.64a27.8 27.8 0 0 0 5.29-5.4 29.4 29.4 0 0 0-5.29 5.4z" class="cls-8"/>
            <path id="Path_24726" d="M518.37 176.28a17.18 17.18 0 0 0 3.16-2.52 16.932 16.932 0 0 0 2.82-2.89 32.481 32.481 0 0 0-6 5.41z" class="cls-8"/>
            <path id="Path_24727" d="M516.68 174.85a29.382 29.382 0 0 0 5.72-5 14.479 14.479 0 0 0-3 2.33 14 14 0 0 0-2.72 2.67z" class="cls-8"/>
            <path id="Path_24728" d="M451.1 133.85a14.74 14.74 0 0 1 15.9 13.81c.41 6.85.79 14.26.74 18-.1 8-8.11 9.26-8.11 9.26s1.15 13.92 1 16.17l-21.2 1-1.92-42.83a14.75 14.75 0 0 1 13.59-15.37z" class="cls-7"/>
            <path id="Path_24729" d="M459.61 174.79a18.57 18.57 0 0 1-10.44-3s2.47 5.76 10.46 5z" class="cls-8"/>
            <path id="Path_24730" d="M438.24 152c-.13-.06-5.5-1.63-5.33 3.85s5.64 4.17 5.65 4-.32-7.85-.32-7.85z" class="cls-7"/>
            <path id="Path_24731" d="M436.82 157.81a2.258 2.258 0 0 1-.26.15.92.92 0 0 1-.71 0 2.37 2.37 0 0 1-1.16-2.08 3.23 3.23 0 0 1 .22-1.38 1.12 1.12 0 0 1 .7-.75.48.48 0 0 1 .57.24c.08.15.05.26.08.27s.11-.1.06-.32a.59.59 0 0 0-.23-.34.72.72 0 0 0-.53-.12 1.33 1.33 0 0 0-1 .88 3.34 3.34 0 0 0-.28 1.54 2.48 2.48 0 0 0 1.47 2.32 1 1 0 0 0 .87-.17c.19-.05.22-.23.2-.24z" class="cls-8"/>
            <path id="Path_24732" d="M464.94 152.75a1.15 1.15 0 0 1-1.11 1.16 1.09 1.09 0 0 1-1.17-1 1.13 1.13 0 0 1 1.1-1.16 1.1 1.1 0 0 1 1.18 1z" class="cls-6"/>
            <path id="Path_24733" d="M464.91 150.51c-.14.15-1-.49-2.24-.49s-2.14.62-2.27.47.08-.33.47-.62a3.15 3.15 0 0 1 1.82-.56 3 3 0 0 1 1.78.58c.38.29.53.56.44.62z" class="cls-6"/>
            <path id="Path_24734" d="M452.84 152.75a1.16 1.16 0 0 1-1.11 1.16 1.1 1.1 0 0 1-1.18-1 1.15 1.15 0 0 1 1.1-1.16 1.11 1.11 0 0 1 1.19 1z" class="cls-6"/>
            <path id="Path_24735" d="M452.8 150.74c-.14.15-1-.49-2.24-.49s-2.13.62-2.26.47.07-.33.47-.62a3.14 3.14 0 0 1 1.81-.56 3 3 0 0 1 1.79.58c.37.29.5.56.43.62z" class="cls-6"/>
            <path id="Path_24736" d="M457.27 159.87a8.35 8.35 0 0 1 2-.36c.32 0 .61-.09.67-.31a1.67 1.67 0 0 0-.21-.93c-.3-.76-.61-1.56-.93-2.39a40.751 40.751 0 0 1-2.09-6.27 41.2 41.2 0 0 1 2.59 6.08c.31.84.6 1.65.89 2.41a1.84 1.84 0 0 1 .16 1.24.79.79 0 0 1-.52.46 2.149 2.149 0 0 1-.53.07 7.79 7.79 0 0 1-2.03 0z" class="cls-6"/>
            <path id="Path_24737" d="M453.65 160.72c.2 0 .2 1.33 1.35 2.28s2.56.8 2.57 1-.31.26-.92.27a3.33 3.33 0 0 1-2.15-.75 2.93 2.93 0 0 1-1-1.9c-.09-.57.06-.9.15-.9z" class="cls-6"/>
            <path id="Path_24738" d="M453.12 145.92c-.12.33-1.35.17-2.79.35s-2.62.57-2.81.26c-.08-.14.12-.45.59-.78a4.88 4.88 0 0 1 4.27-.47c.53.22.79.48.74.64z" class="cls-6"/>
            <path id="Path_24739" d="M464.45 147c-.21.28-1.06 0-2.08 0s-1.88.18-2.08-.11c-.09-.14 0-.42.42-.69a2.89 2.89 0 0 1 1.7-.45 2.82 2.82 0 0 1 1.66.56c.36.21.48.5.38.69z" class="cls-6"/>
            <path id="Path_24740" d="M437.72 151.83a8.51 8.51 0 0 0 0 2.52 2.9 2.9 0 0 0 1.4 2c1.38.69 3.11-.37 3.72-1.78a9.18 9.18 0 0 0 .31-4.55 22 22 0 0 1 .09-6.27 9 9 0 0 1 3-5.37 5.68 5.68 0 0 1 5.9-.85 32.5 32.5 0 0 1 3.12 2.3 4.84 4.84 0 0 0 3.31.83 3.12 3.12 0 0 0 2.54-2.11 3.38 3.38 0 0 0-1.3-3.36 7.66 7.66 0 0 0-3.5-1.41 18.85 18.85 0 0 0-10.39.81 13.63 13.63 0 0 0-7.55 7c-1.59 3.75-.51 6.72-.74 10.89" class="cls-6"/>
            <path id="Path_24741" d="M519.11 187.4L506 184.24l-8.65 23.46-23.9-21.38c-2.55-1.86-6.93-2.09-10.26-2.51h-.26c-1.29-.15-1.92-.34-2.7-.43-5.76 4.33-15.62 4.61-21.28.14 0 0-4.29 1-6.85 1.46-8.07 1.55-13.88 7.42-15.5 12.85l10.11 23.3 1.93 22.13-5.59 19.82a3.43 3.43 0 0 0 2.87 4.34l50.05.76.82-.4a9.32 9.32 0 0 0 1.34-6.34c-2.16-9.48-.65-37.76-1.11-46.44 9.82 9.54 20.65 17.45 28.56 12.55 6.59-4.11 13.53-40.15 13.53-40.15z" class="cls-2"/>
            <path id="Path_24743" d="M437.34 184.94l1.16-8.01 10.91 4.01 3.08 5.42 1.91-5.95 5.98-2.06 2.56 5.32-4.39 6.21-8.23 1.67z" class="cls-2"/>
            <path id="Path_24744" d="M452.68 187.6a2.326 2.326 0 0 1-.41-.33 11.92 11.92 0 0 1-1-1.08 16.07 16.07 0 0 1-2.63-4.53h.4l-2.52 6.34c-.44 1.09-.87 2.14-1.27 3.14l-.13.33-.26-.25c-2.2-2.13-4.1-4-5.44-5.33l-1.56-1.59a3.249 3.249 0 0 1-.52-.62 3.411 3.411 0 0 1 .64.5l1.65 1.49c1.4 1.28 3.34 3.1 5.57 5.21l-.39.08 1.25-3.14c.94-2.3 1.82-4.45 2.58-6.33l.21-.52.19.53a18 18 0 0 0 2.43 4.53c.74.97 1.25 1.53 1.21 1.57z" class="cls-6"/>
            <path id="Path_24745" d="M462.94 183.67a8.1 8.1 0 0 1-1.28 1.76 17.79 17.79 0 0 1-4.17 3.68l-.24.14-.1-.27c-.36-1-.77-2-1.21-3.11-.66-1.63-1.27-3.18-1.75-4.56h.43c-.36 1.81-.81 3.29-1.08 4.33a9.362 9.362 0 0 1-.47 1.64 6.3 6.3 0 0 1 .22-1.7c.2-1.06.58-2.56.89-4.35l.14-.79.29.76c.5 1.36 1.13 2.89 1.79 4.53.44 1.09.84 2.15 1.19 3.13l-.34-.12a19.691 19.691 0 0 0 4.19-3.46 18 18 0 0 1 1.5-1.61z" class="cls-6"/>
            <path id="Path_24746" d="M456.63 269.14s0-.29.06-.83.15-1.38.25-2.39.22-2.3.33-3.77c.05-.74.1-1.53.16-2.36s.07-1.72.11-2.65c.17-3.71.16-8.14.07-13.06s-.4-10.31-.78-16c-.82-11.33-1.94-21.55-2.78-28.94-.42-3.66-.76-6.64-1-8.76-.11-1-.19-1.79-.26-2.38a4.79 4.79 0 0 1-.05-.84 4.93 4.93 0 0 1 .15.83c.09.58.2 1.37.35 2.37.29 2.06.7 5 1.16 8.74.93 7.38 2.1 17.61 2.92 28.94.39 5.67.64 11.08.74 16s0 9.36-.17 13.08c-.05.93-.1 1.81-.14 2.65s-.15 1.62-.21 2.36c-.13 1.48-.24 2.75-.41 3.78s-.26 1.79-.34 2.37a4.8 4.8 0 0 1-.16.86z" class="cls-6"/>
            <path id="Path_24747" d="M497.08 216.76a22.707 22.707 0 0 1-.25-4.76 22.648 22.648 0 0 1 .25-4.75 22.651 22.651 0 0 1 .25 4.75 22.707 22.707 0 0 1-.25 4.76z" class="cls-6"/>
            <path id="Path_24748" d="M500.42 217.36c0 .45-.67-.82-2.14-4.9a21.861 21.861 0 0 1-1.32-5.18 42.72 42.72 0 0 1 1.79 5 46.25 46.25 0 0 1 1.67 5.08z" class="cls-6"/>
            <path id="Path_24749" d="M468.12 436.66l-.76 18.17s18.21 6.88 18.4 10.25l-35.28-.21v-28.36z" class="cls-9"/>
            <path id="Path_24750" d="M456.46 453.24a1.45 1.45 0 0 0-1 1.64 1.39 1.39 0 0 0 1.62 1 1.52 1.52 0 0 0 1.06-1.74 1.45 1.45 0 0 0-1.8-.87" class="cls-2"/>
            <g id="Group_2654" class="cls-10">
                <path id="Path_24751" d="M450.48 464.87l.11-2.86 33.79 1.27s1.56.69 1.38 1.8z" class="cls-3"/>
            </g>
            <path id="Path_24752" d="M467.93 454.66c0 .17-.87.24-1.72.79s-1.3 1.27-1.46 1.2.1-1.06 1.15-1.71 2.1-.44 2.03-.28z" class="cls-6"/>
            <path id="Path_24753" d="M471.62 456.21c0 .17-.7.46-1.29 1.18s-.77 1.5-.94 1.49-.27-1 .48-1.87 1.75-.96 1.75-.8z" class="cls-6"/>
            <path id="Path_24754" d="M473.7 460.65c-.16 0-.39-.83.06-1.77s1.25-1.31 1.33-1.16-.43.64-.79 1.42-.43 1.5-.6 1.51z" class="cls-6"/>
            <path id="Path_24755" d="M467.65 450.5c-.08.15-.87-.09-1.84 0s-1.73.37-1.82.22.64-.76 1.79-.82 1.95.46 1.87.6z" class="cls-6"/>
            <path id="Path_24756" d="M467.73 446.83a3.349 3.349 0 0 1-1.76 0 8.081 8.081 0 0 1-1.85-.58 9.077 9.077 0 0 1-1-.54 2.37 2.37 0 0 1-.53-.42.76.76 0 0 1-.08-.92 1 1 0 0 1 .76-.39 2.13 2.13 0 0 1 .66.1 5.929 5.929 0 0 1 1.1.38 6.08 6.08 0 0 1 1.62 1.08c.82.76 1.09 1.41 1 1.44s-.47-.48-1.3-1.12a7.141 7.141 0 0 0-1.57-.89 6.274 6.274 0 0 0-1-.32c-.38-.1-.69-.11-.79.06s0 .09 0 .2a1.65 1.65 0 0 0 .39.3 7.44 7.44 0 0 0 .93.54 10.233 10.233 0 0 0 1.7.67 11.262 11.262 0 0 1 1.72.41z" class="cls-6"/>
            <path id="Path_24757" d="M467.51 447.08a2.88 2.88 0 0 1-.46-1.71 5.841 5.841 0 0 1 .25-1.94 5.75 5.75 0 0 1 .46-1.07 1.44 1.44 0 0 1 1.13-.88.84.84 0 0 1 .74.49 2.611 2.611 0 0 1 .17.65 3.649 3.649 0 0 1 0 1.19 4.06 4.06 0 0 1-.77 1.82c-.69.91-1.41 1.12-1.43 1.06a7.819 7.819 0 0 0 1.08-1.29 4.17 4.17 0 0 0 .57-1.66 3.51 3.51 0 0 0 0-1c-.05-.38-.19-.68-.33-.64a1.283 1.283 0 0 0-.62.57 5.848 5.848 0 0 0-.44 1 6.2 6.2 0 0 0-.36 1.76c-.08.97.1 1.62.01 1.65z" class="cls-6"/>
            <path id="Path_24758" d="M407.26 431.32l-5.73 22.74-9.72 16.68a2.41 2.41 0 0 0 1 3.37 2.41 2.41 0 0 0 2.2 0c4.36-2.35 20.37-11.09 20.7-12.78.38-2 7.64-23.59 7.64-23.59z" class="cls-9"/>
            <g id="Group_2655" class="cls-10">
                <path id="Path_24759" d="M392.82 474.11l23.32-14.35-.26 1a3.6 3.6 0 0 1-1.45 2c-1.91 1.29-7.23 4.74-19.34 11.34a2.43 2.43 0 0 1-2.27 0z" class="cls-3"/>
            </g>
            <g id="Group_2656" class="cls-10">
                <path id="Path_24760" d="M413.52 451.19a1.44 1.44 0 0 0-.89 1.72 1.4 1.4 0 0 0 1.7.9 1.52 1.52 0 0 0 .93-1.83 1.44 1.44 0 0 0-1.87-.74" class="cls-3"/>
            </g>
            <path id="Path_24761" d="M400.72 465.66a7.5 7.5 0 0 0-1.5-2.31 7.15 7.15 0 0 0-2.46-1.21c0-.07.33-.16.88-.09a3.86 3.86 0 0 1 3.06 2.72c.14.54.08.89.02.89z" class="cls-6"/>
            <path id="Path_24762" d="M398.27 468.24c-.13.07-.66-.87-1.73-1.53a18.859 18.859 0 0 0-2.13-.89 2.68 2.68 0 0 1 2.4.46c1.19.72 1.59 1.93 1.46 1.96z" class="cls-6"/>
            <path id="Path_24763" d="M404.79 462.61a25.332 25.332 0 0 0-2.52-2.54 25.767 25.767 0 0 0-3.14-1.71 6.58 6.58 0 0 1 5.66 4.25z" class="cls-6"/>
            <path id="Path_24764" d="M407.11 455.84c-.1.12-1.21-.75-2.81-1.26s-3-.47-3-.62a4.64 4.64 0 0 1 3.17.13 4.7 4.7 0 0 1 2.64 1.75z" class="cls-6"/>
            <path id="Path_24765" d="M409 449.21a12 12 0 0 0-2.89-1.39 11.513 11.513 0 0 0-3.21-.07c0-.06.3-.28.91-.43a5.15 5.15 0 0 1 2.42 0 5.21 5.21 0 0 1 2.15 1.09 2.661 2.661 0 0 1 .62.8z" class="cls-6"/>
            <path id="Path_24766" d="M406.46 446.57a1.93 1.93 0 0 1 .2-.86 6 6 0 0 1 1.3-2 2.66 2.66 0 0 1 1.48-1 1 1 0 0 1 1 .5 1.55 1.55 0 0 1 .07 1.12 3.38 3.38 0 0 1-3.7 2.23 3.94 3.94 0 0 1-3.18-3 1.36 1.36 0 0 1 .24-1.12 1 1 0 0 1 1.09-.22 3.34 3.34 0 0 1 1.27 1.19 6.739 6.739 0 0 1 1.06 2.18 2.1 2.1 0 0 1 .13.88 10.94 10.94 0 0 0-1.48-2.84 3.08 3.08 0 0 0-1.14-1 .5.5 0 0 0-.59.12.89.89 0 0 0-.11.74 3.5 3.5 0 0 0 2.78 2.58 2.94 2.94 0 0 0 3.18-1.85 1.14 1.14 0 0 0 0-.78.53.53 0 0 0-.55-.29 2.47 2.47 0 0 0-1.26.78 9 9 0 0 0-1.79 2.64z" class="cls-6"/>
            <path id="Path_24767" d="M447.89 184.58l2.48 1.29-.47 4.17-3.86-.81z" class="cls-9"/>
            <g id="Group_2657" opacity="0.4">
                <path id="Path_24768" d="M447.89 184.58l2.48 1.29-.47 4.17-3.86-.81z"/>
            </g>
            <path id="Path_24769" d="M453.57 185.61l1.87-1.64 1.72 4.36-2.46 1.18z" class="cls-9"/>
            <path id="Path_24770" d="M450.83 191.06l-1.16 49.31 8.33 8.24 4.04-10.95-8-46.86z" class="cls-9"/>
            <path id="Path_24771" d="M450.88 184.35c.57-.07 1.35-.22 2-.35a1.36 1.36 0 0 1 1.49.68l1.05 1.94a1.4 1.4 0 0 1 .14.92l-.42 2.17a1.37 1.37 0 0 1-1.14 1.09l-2.38.48a1.38 1.38 0 0 1-1.5-.73l-1.12-2.34a1.43 1.43 0 0 1 0-1.18l.83-1.87a1.37 1.37 0 0 1 1.05-.81z" class="cls-9"/>
            <path id="Path_24772" d="M454.34 184.87a4.844 4.844 0 0 1-.63.79c-.41.47-1 1.11-1.63 1.81s-1.24 1.32-1.67 1.76a5.158 5.158 0 0 1-.74.7 4.839 4.839 0 0 1 .63-.79c.41-.47 1-1.11 1.64-1.81s1.23-1.32 1.67-1.77a5.778 5.778 0 0 1 .73-.69z" class="cls-6"/>
            <path id="Path_24773" d="M451.91 187.14a5.711 5.711 0 0 1-1.15-1 5.38 5.38 0 0 1-1-1.11 5.889 5.889 0 0 1 1.15 1 6.782 6.782 0 0 1 1 1.11z" class="cls-6"/>
            <path id="Path_24774" d="M454.69 190.3a26.327 26.327 0 0 1 .59-2.85 2.81 2.81 0 0 0-.59-1.85 1.58 1.58 0 0 1-.29-.81 4.632 4.632 0 0 0 .41.74c.13.22.32.48.48.8a1.9 1.9 0 0 1 .19 1.15c-.16.81-.38 1.49-.51 2a3.933 3.933 0 0 1-.28.82z" class="cls-6"/>
            <path id="Path_24775" d="M476 268l-3.5 181a2.22 2.22 0 0 1-2.24 2.18l-21.09-.19a2.23 2.23 0 0 1-2.2-2.27L450.22 293l-27.43 154.64a4 4 0 0 1-4.05 3.28l-17.69-.61a4 4 0 0 1-3.79-4.59L425 267.3z" class="cls-6"/>
            <path id="Path_24776" d="M409.62 441.34a2.739 2.739 0 0 1 .05-.43l.19-1.24c.18-1.12.44-2.73.78-4.78.69-4.17 1.69-10.17 2.93-17.57 2.47-14.85 5.88-35.33 9.65-57.95s7.06-43.15 9.4-58c1.15-7.41 2.09-13.41 2.74-17.59.32-2.06.58-3.66.75-4.78l.21-1.24c.05-.28.09-.42.09-.42a3.343 3.343 0 0 1 0 .42 12.54 12.54 0 0 1-.16 1.25c-.15 1.12-.38 2.73-.66 4.8C435 288 434.07 294 433 301.42c-2.25 14.87-5.51 35.39-9.25 58s-7.23 43.11-9.8 57.93c-1.3 7.39-2.35 13.37-3.08 17.54-.38 2.05-.67 3.65-.87 4.76-.1.53-.18.94-.24 1.24a1.789 1.789 0 0 1-.14.45z" class="cls-12"/>
            <path id="Path_24777" d="M463.67 442c-.14 0 .1-36.84.53-82.27s.89-82.27 1-82.27-.1 36.83-.53 82.28-.87 82.26-1 82.26z" class="cls-12"/>
            <path id="Path_24778" d="M473.12 442.63c0 .14-5.75.25-12.84.25s-12.84-.11-12.84-.25 5.75-.24 12.84-.24 12.84.11 12.84.24z" class="cls-12"/>
            <path id="Path_24779" d="M424.05 441.65a3.69 3.69 0 0 1-1 .1l-2.81.1-9.26.22c-3.62.08-6.9.11-9.27.09-1.19 0-2.15 0-2.81-.07a3.63 3.63 0 0 1-1-.09 4.348 4.348 0 0 1 1-.1l2.81-.09 9.27-.23c3.62-.07 6.9-.1 9.27-.08 1.19 0 2.15 0 2.81.06a4.7 4.7 0 0 1 .99.09z" class="cls-12"/>
            <path id="Path_24780" d="M453.9 270.18a18.818 18.818 0 0 1-.07 3.13c-.11 1.93-.29 4.6-.53 7.53-.13 1.47-.21 2.87-.39 4.16a8 8 0 0 1-1.12 3.27 4.64 4.64 0 0 1-1.71 1.59 1.58 1.58 0 0 1-.82.24 5.21 5.21 0 0 0 2.22-2 8.08 8.08 0 0 0 1-3.14c.15-1.25.21-2.66.34-4.13.24-2.94.48-5.59.68-7.52a19.674 19.674 0 0 1 .4-3.13z" class="cls-12"/>
            <g id="Group_2658" class="cls-13">
                <path id="Path_24781" d="M426.69 252.93a9.45 9.45 0 0 0 8.22 2.36c2.07-.42 4-1.55 6.15-1.41 2.31.15 4.22 1.77 6.33 2.72 3.93 1.79 8.52 1.22 12.7.1 1.92-.51 3.92-1.2 5.16-2.76a9.241 9.241 0 0 0 1.59-4.28 44.109 44.109 0 0 0 .62-8.51 8.13 8.13 0 0 0-1.37-5.06 5.79 5.79 0 0 0-3.81-1.92 14.73 14.73 0 0 0-4.34.24 71.73 71.73 0 0 0-31.48 13.5"/>
            </g>
            <path id="Path_24782" d="M447 243.53s-26.5 11.84-29.19 12.47c-8.94 2-19.16-6.48-16.32-16.1 1.05-3.58 15.3-43.18 15.3-43.18l13.56 18.73-5.74 19.18 15-1z" class="cls-2"/>
            <path id="Path_24783" d="M438.41 233.75a5.12 5.12 0 0 1-1.05.15l-2.9.24c-2.46.19-5.91.43-9.84.68h-.33l.1-.32.88-3c1.34-4.48 2.58-8.52 3.5-11.45l1.11-3.45a7.65 7.65 0 0 1 .47-1.25 7.488 7.488 0 0 1-.3 1.3c-.25.91-.57 2.09-1 3.5-.84 2.94-2 7-3.37 11.48-.3 1-.6 2-.89 3l-.23-.3c3.92-.23 7.38-.41 9.85-.52l2.9-.11a5.469 5.469 0 0 1 1.1.05z" class="cls-6"/>
            <path id="Path_24784" d="M444 245.08c.05.12-5.76 2.62-13 5.6s-13.11 5.29-13.16 5.17 5.76-2.63 13-5.6S444 245 444 245.08z" class="cls-6"/>
            <path id="Path_24785" d="M440.82 232.87l-2.09-10.17a1.31 1.31 0 0 1 1.29-1.57l26.32.13a1.31 1.31 0 0 1 1.29 1.46L464.91 246a1.83 1.83 0 0 1-1.82 1.61l-17.16-.14a1.83 1.83 0 0 1-1.75-1.37z" class="cls-12"/>
            <path id="Path_24786" d="M438.5 227.52a2.77 2.77 0 0 1 2.59 1.76 5.93 5.93 0 0 0 1.76 2.82c1.29.7 3.52 1.27 4.7.69s5.87-4.8 6.69-4.33 1.53 1.52.71 2.46-5.17 3.76-4.35 4.7 10-3.19 11.4-2.83 2.23 1.23 1.41 1.8-7.05 2.91-7.4 3.74c0 0 9.4-2.47 9.75-1.88s.94 1.52 0 1.88-9.05 2.46-9.75 2.82a17.288 17.288 0 0 1-3.63 1c-.25 0-2.09.62-3.78 1.2a8.3 8.3 0 0 1-5.85-.15l-.95-.39a3.74 3.74 0 0 1-2.32-3.68l.2-3.2-1-2.65z" class="cls-7"/>
            <path id="Path_24787" d="M454.3 225.05a1 1 0 1 1-1-1 1 1 0 0 1 1 1z" class="cls-4"/>
        </g>
        <g id="freepik--Desk--inject-40">
            <path id="Path_24788" d="M567.5 307.35h-78.86v-2.94h75.93a2.94 2.94 0 0 1 2.93 2.94z" class="cls-12"/>
            <rect id="Rectangle_12226" width="60.42" height="45.7" class="cls-12" rx="3.34" transform="translate(488.64 261.02)"/>
            <path id="Rectangle_12227" d="M0 0H55.38V40.7H0z" class="cls-4" transform="translate(491.16 263.2)"/>
            <path id="Path_24789" d="M546.53 303.9v-40.7l.06.05h-55.37l.08-.07v40.7l-.07-.06h-.07v-40.83h55.44v40.02a5.764 5.764 0 0 1-.07.89z" class="cls-6"/>
            <path id="Path_24790" d="M538.25 274.15h-38.21l.07-.07v18.79l-.07-.07h27.11L500 293h-.07v-18.92h38.28z" class="cls-2"/>
            <path id="Path_24791" d="M538.25 277.31s-8.57.07-19.13.07-19.12 0-19.12-.07 8.56-.06 19.12-.06 19.13.03 19.13.06z" class="cls-2"/>
            <path id="Path_24792" d="M538 279.83s-8.56.07-19.12.07-19.13 0-19.13-.07 8.56-.06 19.13-.06 19.12.03 19.12.06z" class="cls-2"/>
            <path id="Path_24793" d="M538.25 282.49s-8.57.07-19.13.07-19.12 0-19.12-.07 8.56-.07 19.12-.07 19.13.03 19.13.07z" class="cls-2"/>
            <path id="Path_24794" d="M538.25 285.08s-8.57.07-19.13.07-19.12 0-19.12-.07 8.56-.07 19.12-.07 19.13-.01 19.13.07z" class="cls-2"/>
            <path id="Path_24795" d="M538.25 287.67s-8.57.07-19.13.07-19.12 0-19.12-.07 8.56-.07 19.12-.07 19.13.03 19.13.07z" class="cls-2"/>
            <path id="Path_24796" d="M500 290.26s8.56-.07 19.12-.07 19.13 0 19.13.07-8.56.06-19.13.06-19.12-.03-19.12-.06z" class="cls-2"/>
            <path id="Path_24797" d="M507.57 293.23s-.06-4.27-.06-9.54 0-9.54.06-9.54.07 4.27.07 9.54-.03 9.54-.07 9.54z" class="cls-2"/>
            <path id="Path_24798" d="M515.24 293.23s-.07-4.27-.07-9.54 0-9.54.07-9.54.07 4.27.07 9.54-.03 9.54-.07 9.54z" class="cls-2"/>
            <path id="Path_24799" d="M522.91 293.23s-.07-4.27-.07-9.54 0-9.54.07-9.54.07 4.27.07 9.54.02 9.54-.07 9.54z" class="cls-2"/>
            <path id="Path_24800" d="M530.58 293.23s-.07-4.27-.07-9.54 0-9.54.07-9.54.07 4.27.07 9.54-.03 9.54-.07 9.54z" class="cls-2"/>
            <path id="Path_24801" d="M538.25 293.23s-.07-4.27-.07-9.54 0-9.54.07-9.54.07 4.27.07 9.54-.03 9.54-.07 9.54z" class="cls-2"/>
            <path id="Path_24802" d="M538.25 277.31a2.211 2.211 0 0 1-.29.23l-.86.61-3.21 2.21c-2.73 1.88-6.56 4.48-10.9 7.42h-.12l-3.26-1.09-4.41-1.49h.12l-7.69 5.15-5.55 1.92-1.52.51-.4.13h-.14a.5.5 0 0 1 .13-.06l.39-.16 1.5-.56 5.52-2 7.66-5.2h.11l4.42 1.49 3.25 1.1h-.11c4.35-2.94 8.19-5.51 10.95-7.34l3.26-2.15.88-.57a2.453 2.453 0 0 1 .27-.15z" class="cls-9"/>
            <circle id="Ellipse_493" cx=".47" cy=".47" r=".47" class="cls-9" transform="translate(507.1 289.79)"/>
            <circle id="Ellipse_494" cx=".47" cy=".47" r=".47" class="cls-9" transform="translate(514.77 284.61)"/>
            <circle id="Ellipse_495" cx=".47" cy=".47" r=".47" class="cls-9" transform="translate(522.44 287.15)"/>
            <circle id="Ellipse_496" cx=".47" cy=".47" r=".47" class="cls-9" transform="translate(530.19 282.04)"/>
            <path id="Path_24803" d="M538.25 290.26l-.15-.08-.41-.26-1.55-1-5.62-3.7h.12l-7.64 5.14-.1.07-.08-.1-4-5.43c-1.25-1.7-2.48-3.35-3.63-4.92h.2l-7.7 7.74-5.7 1.85-1.56.49-.41.12h-.14l.13-.06.4-.15 1.54-.54 5.67-1.94 7.65-7.79.11-.11.09.12 3.64 4.92c1.41 1.89 2.76 3.73 4 5.44h-.18l7.68-5.11h.12l5.57 3.78 1.52 1.05.39.28z" class="cls-12"/>
            <circle id="Ellipse_497" cx=".47" cy=".47" r=".47" class="cls-12" transform="translate(514.77 279.43)"/>
            <circle id="Ellipse_498" cx=".47" cy=".47" r=".47" class="cls-12" transform="translate(507.1 287.2)"/>
            <circle id="Ellipse_499" cx=".47" cy=".47" r=".47" class="cls-12" transform="translate(522.44 289.79)"/>
            <circle id="Ellipse_500" cx=".47" cy=".47" r=".47" class="cls-12" transform="translate(530.11 285.08)"/>
            <path id="Path_24804" d="M504.37 295.08a3.946 3.946 0 0 1-1.48 0 2.31 2.31 0 0 1 .74-.07 2.259 2.259 0 0 1 .74.07z" class="cls-2"/>
            <path id="Path_24805" d="M512.21 295.08a3.949 3.949 0 0 1-1.48 0 3.95 3.95 0 0 1 1.48 0z" class="cls-2"/>
            <path id="Path_24806" d="M520.05 295.08a3.949 3.949 0 0 1-1.48 0 3.95 3.95 0 0 1 1.48 0z" class="cls-2"/>
            <path id="Path_24807" d="M527.89 295.08a3.946 3.946 0 0 1-1.48 0 2.259 2.259 0 0 1 .74-.07 2.31 2.31 0 0 1 .74.07z" class="cls-2"/>
            <path id="Path_24808" d="M535.72 295.08a2 2 0 0 1-.74.07 1.939 1.939 0 0 1-.73-.07 2.221 2.221 0 0 1 .75-.08 2.26 2.26 0 0 1 .72.08z" class="cls-2"/>
            <path id="Path_24809" d="M498.92 292.84a1.63 1.63 0 0 1-.6.06 1.56 1.56 0 0 1-.59-.06 1.27 1.27 0 0 1 .59-.07 1.331 1.331 0 0 1 .6.07z" class="cls-2"/>
            <path id="Path_24810" d="M498.92 289.83a1.63 1.63 0 0 1-.6.06 1.56 1.56 0 0 1-.59-.06 1.27 1.27 0 0 1 .59-.07 1.33 1.33 0 0 1 .6.07z" class="cls-2"/>
            <path id="Path_24811" d="M498.92 286.82a1.63 1.63 0 0 1-.6.06 1.56 1.56 0 0 1-.59-.06 1.27 1.27 0 0 1 .59-.07 1.331 1.331 0 0 1 .6.07z" class="cls-2"/>
            <path id="Path_24812" d="M498.92 283.81a1.63 1.63 0 0 1-.6.06 1.56 1.56 0 0 1-.59-.06 1.27 1.27 0 0 1 .59-.07 1.331 1.331 0 0 1 .6.07z" class="cls-2"/>
            <path id="Path_24813" d="M498.92 280.8a1.63 1.63 0 0 1-.6.06 1.56 1.56 0 0 1-.59-.06 1.27 1.27 0 0 1 .59-.07 1.33 1.33 0 0 1 .6.07z" class="cls-2"/>
            <path id="Path_24814" d="M498.92 277.79a1.63 1.63 0 0 1-.6.06 1.56 1.56 0 0 1-.59-.06 1.269 1.269 0 0 1 .59-.07 1.331 1.331 0 0 1 .6.07z" class="cls-2"/>
            <path id="Path_24815" d="M498.92 274.78a1.63 1.63 0 0 1-.6.06 1.56 1.56 0 0 1-.59-.06 1.27 1.27 0 0 1 .59-.07 1.33 1.33 0 0 1 .6.07z" class="cls-2"/>
            <path id="Rectangle_12228" d="M0 0H10.99V0.78H0z" class="cls-9" transform="translate(499.8 267.64)"/>
            <path id="Path_24816" d="M530.41 269.92s-6.87.07-15.34.07-15.35 0-15.35-.07 6.87-.07 15.35-.07 15.34.03 15.34.07z" class="cls-6"/>
            <path id="Path_24817" d="M519.2 298.84s-4.19.07-9.36.07-9.35 0-9.35-.07 4.18-.07 9.35-.07 9.36.03 9.36.07z" class="cls-6"/>
            <path id="Path_24818" d="M505 300.25a14.162 14.162 0 0 1-2 .07 14 14 0 0 1-2-.07 17.352 17.352 0 0 1 2-.06 17.633 17.633 0 0 1 2 .06z" class="cls-6"/>
            <path id="Path_24819" d="M536.16 298.59s-3 .07-6.65.07-6.65 0-6.65-.07 3-.07 6.65-.07 6.65.03 6.65.07z" class="cls-6"/>
            <path id="Path_24820" d="M528.93 299.51a36.083 36.083 0 0 1-4.16 0 30.936 30.936 0 0 1 4.16 0z" class="cls-6"/>
            <path id="Path_24821" d="M202.05 465.03l16.52-146.14 14.02 4.94-22.9 141.2z" class="cls-6"/>
            <path id="Rectangle_12229" d="M0 0H422.75V18.49H0z" class="cls-12" transform="translate(195 307.18)"/>
            <path id="Path_24822" d="M284.56 307.46a1.994 1.994 0 0 1-.14.2l-.44.55a8.76 8.76 0 0 1-2.13 1.7 11.75 11.75 0 0 1-4.08 1.37 28.58 28.58 0 0 1-5.7.25 54.62 54.62 0 0 1-6.85-.79 61.663 61.663 0 0 0-7.81-.93c-5.54-.2-11.56 1.25-17.58 3.41s-11.67 4.61-17.06 6.1a46.674 46.674 0 0 1-7.78 1.54 32.49 32.49 0 0 1-6.91 0 23.649 23.649 0 0 1-9.48-3 14.9 14.9 0 0 1-2.93-2.19s.08 0 .21.13l.56.42a19.716 19.716 0 0 0 2.26 1.46 23.89 23.89 0 0 0 9.42 2.84 32 32 0 0 0 6.83-.05 47.134 47.134 0 0 0 7.69-1.57c5.35-1.51 11-4 17-6.13s12.13-3.62 17.76-3.4a61 61 0 0 1 7.87 1 56.667 56.667 0 0 0 6.8.84 28.4 28.4 0 0 0 5.64-.17 12.2 12.2 0 0 0 4-1.25 10.861 10.861 0 0 0 2.85-2.33z" class="cls-6"/>
            <path id="Path_24823" d="M238.31 307.74a11.7 11.7 0 0 1-1.28 1.09 29.411 29.411 0 0 1-3.85 2.48 33.652 33.652 0 0 1-6.31 2.57 34.759 34.759 0 0 1-8.24 1.29 31.55 31.55 0 0 1-14.74-3 9.37 9.37 0 0 1-3.55-2.91 5.14 5.14 0 0 1-.59-1.12c-.08-.27-.12-.41-.1-.42a10.381 10.381 0 0 0 .85 1.42 9.7 9.7 0 0 0 3.56 2.7 32.81 32.81 0 0 0 14.55 2.85A33.9 33.9 0 0 0 233 311a34.427 34.427 0 0 0 3.9-2.32 10.149 10.149 0 0 1 1.41-.94z" class="cls-6"/>
            <path id="Path_24824" d="M337.51 319.45l.65.24a13.122 13.122 0 0 0 1.95.52 11.54 11.54 0 0 0 7.4-1.16v.24a17.62 17.62 0 0 0-9.17-3.58 17.87 17.87 0 0 0-11.93 3.1 2 2 0 0 0-.93 1.2 1.29 1.29 0 0 0 .79 1.19 5.509 5.509 0 0 0 1.64.58l1.8.41c2.42.54 4.92 1.07 7.51 1.45a44.663 44.663 0 0 0 8 .54 30.084 30.084 0 0 0 4.1-.39c.68-.12 1.36-.25 2-.43a10.54 10.54 0 0 0 2-.64 6.48 6.48 0 0 0 2.56-1.85 2.91 2.91 0 0 0 .49-2.84 4.78 4.78 0 0 0-2-2.24 16.126 16.126 0 0 0-2.8-1.37 38.6 38.6 0 0 0-11.79-2.42 48.61 48.61 0 0 0-20 3.11 49.189 49.189 0 0 0-12.06 6.59c-1.29 1-2.29 1.78-2.92 2.36l-.75.64-.26.2a2.377 2.377 0 0 1 .23-.24l.71-.67c.61-.61 1.59-1.43 2.86-2.45a48.84 48.84 0 0 1 32.26-10 38.74 38.74 0 0 1 11.9 2.44 16.2 16.2 0 0 1 2.9 1.42 5.29 5.29 0 0 1 2.22 2.49 3.45 3.45 0 0 1-.57 3.34 7 7 0 0 1-2.76 2 11 11 0 0 1-2.06.67c-.69.18-1.38.31-2.08.43a29.419 29.419 0 0 1-4.17.4 44.671 44.671 0 0 1-8.07-.56c-2.6-.39-5.11-.93-7.53-1.48l-1.8-.42a5.92 5.92 0 0 1-1.78-.63 2.4 2.4 0 0 1-.74-.65 1.48 1.48 0 0 1-.27-1 2.34 2.34 0 0 1 1.12-1.52 18.21 18.21 0 0 1 12.23-3.11 17.86 17.86 0 0 1 9.32 3.73l.17.14-.19.1a11.56 11.56 0 0 1-7.56 1.06 8.42 8.42 0 0 1-2.62-.94z" class="cls-6"/>
            <path id="Path_24825" d="M391.91 307.94a2.7 2.7 0 0 1 .41.93 6.83 6.83 0 0 1 .28 2.77 13.71 13.71 0 0 1-4.11 8.07 20.851 20.851 0 0 1-3.85 3.27 17.338 17.338 0 0 1-3.71 1.8 18.128 18.128 0 0 1-2.69.67 4.249 4.249 0 0 1-1 .09c0-.1 1.42-.3 3.57-1.11a18.329 18.329 0 0 0 3.58-1.85 22.249 22.249 0 0 0 3.73-3.23 14 14 0 0 0 4.13-7.75 10.161 10.161 0 0 0-.34-3.66z" class="cls-6"/>
            <path id="Path_24826" d="M467.82 324.7a22.573 22.573 0 0 0-1.94-1.89 13.72 13.72 0 0 0-6.61-3 14.58 14.58 0 0 0-5 .14 21.849 21.849 0 0 1-5.9.55c-2.17-.2-4.12-1.51-5.88-2.89a20.081 20.081 0 0 0-5.9-3.5 21.7 21.7 0 0 0-13.11-.2 31.44 31.44 0 0 0-9.7 4.91 53.9 53.9 0 0 0-5.62 4.8l-1.43 1.42a5 5 0 0 1-.52.48 2.9 2.9 0 0 1 .44-.55c.3-.35.76-.86 1.37-1.49a47.262 47.262 0 0 1 5.54-4.95 31.1 31.1 0 0 1 9.79-5.08 21.93 21.93 0 0 1 13.42.17 20.4 20.4 0 0 1 6 3.59c1.76 1.37 3.59 2.61 5.62 2.81a21.9 21.9 0 0 0 5.78-.49 15 15 0 0 1 5.16-.09 13.63 13.63 0 0 1 6.68 3.19 8.9 8.9 0 0 1 1.81 2.07z" class="cls-6"/>
            <path id="Path_24827" d="M535.6 307.36a3.44 3.44 0 0 1-.46.63 21.827 21.827 0 0 1-1.45 1.72 38.873 38.873 0 0 1-6.17 5.48 49.777 49.777 0 0 1-10.7 5.94 43.663 43.663 0 0 1-6.91 2.2 35.229 35.229 0 0 1-7.72 1 38.059 38.059 0 0 1-14.66-3 49.092 49.092 0 0 1-10.65-6 41.586 41.586 0 0 1-6.13-5.53c-.68-.7-1.12-1.32-1.45-1.71a5.461 5.461 0 0 1-.46-.63 5.069 5.069 0 0 1 .55.56c.35.37.81 1 1.51 1.65a45.4 45.4 0 0 0 6.2 5.37 49.861 49.861 0 0 0 10.61 5.89 38.089 38.089 0 0 0 14.47 3 35.081 35.081 0 0 0 7.62-1 44.478 44.478 0 0 0 6.84-2.15 50.49 50.49 0 0 0 10.67-5.79 42.561 42.561 0 0 0 6.24-5.32c.7-.67 1.15-1.28 1.51-1.65a4.617 4.617 0 0 1 .54-.66z" class="cls-6"/>
            <path id="Path_24828" d="M525.92 307.18a3.037 3.037 0 0 1-.36.29c-.24.17-.61.44-1.1.75a44.994 44.994 0 0 1-4.23 2.39 45.682 45.682 0 0 1-6.69 2.73 30 30 0 0 1-8.73 1.49 36 36 0 0 1-15.5-3.92 34.925 34.925 0 0 1-4.2-2.46c-.48-.32-.82-.6-1.06-.79a1.612 1.612 0 0 1-.35-.3 14.533 14.533 0 0 1 1.52.92 45.505 45.505 0 0 0 4.25 2.3 37.35 37.35 0 0 0 15.34 3.73 30.392 30.392 0 0 0 8.59-1.43 48.789 48.789 0 0 0 6.67-2.6c1.84-.87 3.3-1.66 4.29-2.24a13.221 13.221 0 0 1 1.56-.86z" class="cls-6"/>
            <path id="Path_24829" d="M568.9 309.08h-.49L567 309l-1-.07h-4.09l-1.68.1-1.81.21c-1.26.11-2.58.4-4 .64a59.931 59.931 0 0 0-8.84 2.63 63.245 63.245 0 0 0-8.28 4.07c-1.19.78-2.36 1.45-3.36 2.22l-1.49 1.07-1.26 1.13c-.85.65-1.55 1.32-2.18 1.9l-.89.8-.69.71-1 1a2 2 0 0 1-.37.32 3.512 3.512 0 0 1 .29-.39l.91-1 .67-.76.85-.83c.62-.6 1.31-1.3 2.16-2l1.3-1.09c.47-.36 1-.72 1.48-1.1 1-.79 2.17-1.49 3.36-2.28a58.376 58.376 0 0 1 8.34-4.14 57.343 57.343 0 0 1 8.93-2.62c1.42-.23 2.75-.51 4-.6l1.83-.19 1.7-.05a25.259 25.259 0 0 1 2.92 0l1.2.05 1 .12 1.38.19a1.331 1.331 0 0 1 .52.04z" class="cls-6"/>
            <path id="Path_24830" d="M587 305.45v.35a7.852 7.852 0 0 1-.09 1 14.111 14.111 0 0 1-1 3.55 20.74 20.74 0 0 1-7.89 9.06 41.421 41.421 0 0 1-11.12 4.75c-1.49.42-2.7.72-3.54.92a7.911 7.911 0 0 1-1.32.25 6.406 6.406 0 0 1 1.26-.45l3.49-1.08a44.84 44.84 0 0 0 10.98-4.8 19.06 19.06 0 0 0 9.23-13.55z" class="cls-6"/>
            <path id="Path_24831" d="M475.42 324.33a19.7 19.7 0 0 0-2.33-2.77 21.55 21.55 0 0 0-8.52-4.76 46.62 46.62 0 0 0-6.65-1.47c-2.42-.38-5-.69-7.77-1.16a65.469 65.469 0 0 1-8.44-2.11 54.259 54.259 0 0 0-9-2.18 37.511 37.511 0 0 0-17.55 2.42 63.851 63.851 0 0 0-7.13 3.21c-2.19 1.12-4.19 2.22-6 3.25-3.64 2.06-6.54 3.81-8.53 5l-2.3 1.41-.6.36c-.14.08-.21.12-.22.11a.86.86 0 0 1 .19-.15l.57-.41c.51-.35 1.26-.85 2.25-1.49 2-1.27 4.83-3.07 8.45-5.18 1.82-1.05 3.81-2.17 6-3.31a62.155 62.155 0 0 1 7.17-3.28 37.53 37.53 0 0 1 17.77-2.48 54.88 54.88 0 0 1 9.09 2.2 66 66 0 0 0 8.37 2.13c2.72.48 5.33.8 7.76 1.21a44.605 44.605 0 0 1 6.69 1.54 21.07 21.07 0 0 1 8.55 5 10.83 10.83 0 0 1 2.18 2.91z" class="cls-6"/>
            <path id="Path_24832" d="M380.2 307.46a4.4 4.4 0 0 1-.06 1.18 14.19 14.19 0 0 1-.83 3.12 17.87 17.87 0 0 1-6.5 8.31 43.181 43.181 0 0 1-9.63 4.43c-1.29.43-2.34.74-3.07.93a5.339 5.339 0 0 1-1.16.24 5.4 5.4 0 0 1 1.1-.44l3-1.07a50.39 50.39 0 0 0 9.47-4.52 18.57 18.57 0 0 0 6.44-8 25.716 25.716 0 0 0 1.24-4.18z" class="cls-6"/>
            <path id="Path_24833" d="M282.06 325.67a7.11 7.11 0 0 1 1-1c.68-.62 1.71-1.46 3-2.46a86.921 86.921 0 0 1 10.78-7c4.39-2.42 8.5-4.35 11.48-5.71 1.49-.69 2.7-1.23 3.54-1.59a6.81 6.81 0 0 1 1.33-.51 7.226 7.226 0 0 1-1.24.69l-3.48 1.74c-2.93 1.45-7 3.43-11.38 5.84a104.906 104.906 0 0 0-10.81 6.78c-1.33 1-2.39 1.76-3.1 2.33a7.814 7.814 0 0 1-1.12.89z" class="cls-6"/>
            <path id="Path_24834" d="M302 308.21c0 .06-1-.12-2.73 0a19.27 19.27 0 0 0-7.05 2.14 65.5 65.5 0 0 0-9.17 6.15 46.308 46.308 0 0 1-5.51 3.58 31.256 31.256 0 0 1-6.6 2.54 61.329 61.329 0 0 1-13.51 1.62c-4.18.12-7.93 0-11.08.17a55.9 55.9 0 0 0-7.41.72c-.86.16-1.53.29-2 .4a3.74 3.74 0 0 1-.7.13 2.789 2.789 0 0 1 .67-.23c.44-.14 1.11-.3 2-.5a48.572 48.572 0 0 1 7.44-.89c3.16-.18 6.92-.13 11.08-.28a62.508 62.508 0 0 0 13.39-1.65 30.939 30.939 0 0 0 6.49-2.48 47.54 47.54 0 0 0 5.47-3.52A63.215 63.215 0 0 1 292 310a18.849 18.849 0 0 1 7.2-2 12 12 0 0 1 2 .07 3.371 3.371 0 0 1 .8.14z" class="cls-6"/>
            <path id="Path_24835" d="M565.63 307.11c0 .14-17.67.26-39.45.26s-39.47-.12-39.47-.26 17.67-.26 39.47-.26 39.45.15 39.45.26z" class="cls-6"/>
            <path id="Rectangle_12230" d="M0 0H56.97V8.51H0z" class="cls-6" transform="translate(343.39 298.88)"/>
            <path id="Rectangle_12231" d="M0 0H15.06V4.58H0z" class="cls-2" transform="translate(343.39 300.85)"/>
            <path id="Rectangle_12232" d="M0 0H56.97V8.51H0z" class="cls-9" transform="translate(348.47 290.37)"/>
            <path id="Rectangle_12233" d="M0 0H38.64V4.26H0z" class="cls-2" transform="translate(366.81 292.41)"/>
            <path id="Rectangle_12234" d="M0 0H56.97V8.51H0z" class="cls-6" transform="translate(396.94 290.36) rotate(180)"/>
            <path id="Rectangle_12235" d="M0 0H15.06V4.58H0z" class="cls-2" transform="translate(396.94 288.4) rotate(180)"/>
        </g>
        <g id="freepik--character-4--inject-40" transform="translate(-2.021)">
            <path id="Path_24836" d="M540.16 433.07l6.84 16.87s-14.91 12.57-14 15.81l33.18-12-9.47-26.75z" class="cls-9"/>
            <path id="Path_24837" d="M556.69 444.79a1.45 1.45 0 0 1 1.5 1.21 1.39 1.39 0 0 1-1.19 1.49 1.51 1.51 0 0 1-1.57-1.28c0-.71.7-1.52 1.4-1.42" class="cls-2"/>
            <g id="Group_2659" class="cls-10">
                <path id="Path_24838" d="M566.22 453.75l-1.07-2.65-31.41 12.49s-1.24 1.18-.7 2.16z" class="cls-3"/>
            </g>
            <path id="Path_24839" d="M546.35 450c.07.16.9 0 1.89.18s1.65.76 1.78.64-.45-1-1.65-1.23-2.11.24-2.02.41z" class="cls-6"/>
            <path id="Path_24840" d="M543.39 452.66c0 .17.82.19 1.62.68s1.22 1.15 1.38 1.09-.07-1-1.07-1.61-1.98-.31-1.93-.16z" class="cls-6"/>
            <path id="Path_24841" d="M542.92 457.54c.16 0 .09-.91-.64-1.64s-1.62-.82-1.64-.66.62.46 1.21 1.08.91 1.26 1.07 1.22z" class="cls-6"/>
            <path id="Path_24842" d="M545.23 446c.12.12.78-.37 1.72-.64s1.76-.24 1.79-.41-.86-.5-2-.16-1.64 1.06-1.51 1.21z" class="cls-6"/>
            <path id="Path_24843" d="M543.92 442.52a3.25 3.25 0 0 0 1.66-.61 7.689 7.689 0 0 0 1.55-1.16 10.7 10.7 0 0 0 .77-.85 2.531 2.531 0 0 0 .36-.58.74.74 0 0 0-.24-.88.92.92 0 0 0-.84-.12 2.4 2.4 0 0 0-.6.31 7.348 7.348 0 0 0-.9.73 6.412 6.412 0 0 0-1.17 1.56 3 3 0 0 0-.49 1.7c.09 0 .29-.61.86-1.48a6.5 6.5 0 0 1 1.18-1.37 5.462 5.462 0 0 1 .84-.64c.32-.22.62-.33.77-.21s.06.07 0 .2a1.62 1.62 0 0 1-.27.42 9.613 9.613 0 0 1-.69.82 9.994 9.994 0 0 1-1.39 1.19 12.586 12.586 0 0 0-1.4.97z" class="cls-6"/>
            <path id="Path_24844" d="M544.22 442.68a2.89 2.89 0 0 0-.14-1.77 6 6 0 0 0-.89-1.73 5.261 5.261 0 0 0-.79-.86 1.46 1.46 0 0 0-1.36-.46.86.86 0 0 0-.53.72 2.369 2.369 0 0 0 0 .67 3.929 3.929 0 0 0 .41 1.12 4.06 4.06 0 0 0 1.33 1.46c1 .62 1.7.57 1.7.51a13.608 13.608 0 0 1-1.45-.85 4.05 4.05 0 0 1-1.09-1.37 3.52 3.52 0 0 1-.32-1c-.08-.37 0-.7.1-.71a1 1 0 0 1 .78.33 5.7 5.7 0 0 1 .73.75 6.349 6.349 0 0 1 .93 1.55c.44.96.49 1.64.59 1.64z" class="cls-6"/>
            <path id="Path_24845" d="M571.39 430l6.79 16.87s-14.86 12.57-13.91 15.81l33.18-12-9.51-26.68z" class="cls-9"/>
            <path id="Path_24846" d="M587.92 441.7a1.45 1.45 0 0 1 1.5 1.21 1.4 1.4 0 0 1-1.19 1.5 1.52 1.52 0 0 1-1.57-1.29c0-.71.7-1.52 1.4-1.42" class="cls-2"/>
            <g id="Group_2660" class="cls-10">
                <path id="Path_24847" d="M597.45 450.66l-1.06-2.66L565 460.51s-1.24 1.17-.7 2.15z" class="cls-3"/>
            </g>
            <path id="Path_24848" d="M577.58 446.88c.07.16.9-.06 1.89.17s1.66.76 1.78.64-.45-1-1.65-1.22-2.11.27-2.02.41z" class="cls-6"/>
            <path id="Path_24849" d="M574.62 449.58c0 .17.82.19 1.62.67s1.22 1.16 1.38 1.09-.07-1-1.07-1.6-1.98-.32-1.93-.16z" class="cls-6"/>
            <path id="Path_24850" d="M574.15 454.46c.16 0 .1-.91-.64-1.65s-1.62-.82-1.64-.66.62.47 1.21 1.08.92 1.27 1.07 1.23z" class="cls-6"/>
            <path id="Path_24851" d="M576.46 442.86c.12.13.78-.37 1.72-.64s1.76-.23 1.79-.4-.86-.5-2-.17-1.63 1.11-1.51 1.21z" class="cls-6"/>
            <path id="Path_24852" d="M575.15 439.43a3.22 3.22 0 0 0 1.66-.61 7.692 7.692 0 0 0 1.55-1.16 9.2 9.2 0 0 0 .77-.85 2.15 2.15 0 0 0 .36-.57.75.75 0 0 0-.24-.89.92.92 0 0 0-.84-.11 2.169 2.169 0 0 0-.59.31 6.711 6.711 0 0 0-.91.72 6.408 6.408 0 0 0-1.17 1.56 3.069 3.069 0 0 0-.49 1.71c.1 0 .29-.62.86-1.49a6.758 6.758 0 0 1 1.18-1.37 5.721 5.721 0 0 1 .85-.64c.31-.22.61-.33.76-.21s.07.07 0 .2a1.468 1.468 0 0 1-.27.42 9.619 9.619 0 0 1-.69.82 10.092 10.092 0 0 1-1.39 1.2 15.7 15.7 0 0 0-1.4.96z" class="cls-6"/>
            <path id="Path_24853" d="M575.45 439.59a2.85 2.85 0 0 0-.14-1.76 5.749 5.749 0 0 0-.89-1.74 5.259 5.259 0 0 0-.79-.86 1.46 1.46 0 0 0-1.36-.45.84.84 0 0 0-.53.71 2.732 2.732 0 0 0 0 .67 3.932 3.932 0 0 0 .41 1.12 4.06 4.06 0 0 0 1.33 1.46c1 .63 1.7.58 1.7.52a12.848 12.848 0 0 1-1.45-.86 4.18 4.18 0 0 1-1.09-1.37 3.463 3.463 0 0 1-.32-1c-.07-.37 0-.71.1-.72a1 1 0 0 1 .78.34 5.811 5.811 0 0 1 .74.75 6.378 6.378 0 0 1 .92 1.54c.45.99.49 1.66.59 1.65z" class="cls-6"/>
            <path id="Path_24854" d="M594.27 211.42l-3.17 26 4.93 12-19.5.69-4-9.36s-9.66-1.09-10-7.27c-.24-4 6.13-32.73 6.13-32.73z" class="cls-14"/>
            <path id="Path_24855" d="M588 242.31c2.3-1.56 3.46-2.6 4.47-5.19s1.66-5.31 2.81-7.84 3-5.05 4.14-7.71 1.8-5.81.64-8.48c0 0-.42-3.43-5-4.68 0 0-2.61-7.27-8.59-7.95-8.14-.93-7.86-3.32-13.17-5.35a5.15 5.15 0 0 0-6.89 2.48s-3.27 1.5-4 4.49v.08a7.13 7.13 0 0 0 3.32 7.81l1 .58a6.81 6.81 0 0 1 2.5 2c.88 1.34.69 3.1.3 4.65a12.628 12.628 0 0 0-.73 4.72c.07.54.38 1.19.93 1.16s.8-.9 1-1.52c.57-1.81 3.24-2.71 4.62-1a2.86 2.86 0 0 1 .12 3.61c-.89 1.17-2.46 1.9-3 3.29-1 2.33 1.44 5 2.25 6.6a9.3 9.3 0 0 0 1 1.57 23.1 23.1 0 0 0 6.8 5.92 6.24 6.24 0 0 0 6.38.32" class="cls-6"/>
            <path id="Path_24856" d="M507.79 273.68c-3.42-1.46-5.62-2.78-7.92-3.61-2.82-1-3.92-1.65-3.69-2.17.3-.69.16-.44 5.56.7 0 0-7.7-1.69-5.74-2.64.86-.41 7.27.93 7.27.93-5.25-.61-7.13-1.66-7-2.45.19-1.15 8 .54 8 .54a59.53 59.53 0 0 1-6.92-1.7c-1-.53.27-1 1.42-1.15s8.89.13 11.09.09a1.29 1.29 0 0 0 1.42-1.36c-.64-3.13.52-5.91 1.19-6.51a1 1 0 0 1 1.51 1.09 11.77 11.77 0 0 0 0 3.23 7.538 7.538 0 0 0 .71 2.47c.44.91.85 1.65 1.21 2.28l10.9 11.92-4.71 11.31z" class="cls-14"/>
            <path id="Path_24857" d="M505 269.36a15 15 0 0 1-3.73-.63 14.46 14.46 0 0 1-3.62-1.11 14.421 14.421 0 0 1 3.73.62 14.1 14.1 0 0 1 3.62 1.12z" class="cls-15"/>
            <path id="Path_24858" d="M505.63 267.33a16.811 16.811 0 0 1-4-.44 16.221 16.221 0 0 1-3.93-.94 32.171 32.171 0 0 1 7.95 1.38z" class="cls-15"/>
            <path id="Path_24859" d="M506.3 265.22a14.339 14.339 0 0 1-3.81-.36 14.5 14.5 0 0 1-3.73-.85 15.441 15.441 0 0 1 3.81.36 14.5 14.5 0 0 1 3.73.85z" class="cls-15"/>
            <path id="Path_24860" d="M579.18 324.5l-46.61 7a22.71 22.71 0 0 0-15.62 10 22.7 22.7 0 0 0-2.79 18.75l24.61 78.49 22.23-8.36L547.35 361l72.11-4.83V324.5l-40.28-1.5" class="cls-6"/>
            <path id="Path_24861" d="M612 324.5l-46.61 7a22.68 22.68 0 0 0-15.62 10 22.7 22.7 0 0 0-2.77 18.81l21.46 73.82 24.83-6.55L580.18 361l48.17-3.23V326.1L612 323" class="cls-6"/>
            <path id="Path_24862" d="M519.38 266.35c1-.13 32.63 24.55 32.63 24.55L531.8 299l-20.49-20.32s-1.31-11.04 8.07-12.33z" class="cls-9"/>
            <path id="Path_24863" d="M621.78 256.66c-5.28-7.65-14.26-10.3-17.37-11a9.129 9.129 0 0 0-2-.22h-26.96a18.88 18.88 0 0 0-13.09 5.2A64.789 64.789 0 0 0 552 264l-13.57 18.87-8.34 14 1.7 2.14a14 14 0 0 0 16.75 4.27c2.75-1.29 4.76-3.68 6.63-6.43 3.41-5 7-10.42 9.32-14.55l13.6 38.89-7.27 4.63 30.66 12.39 31.92-13.65-8.82-31.42s14 1.35 15.27-4.14-11.61-23-18.07-32.34z" class="cls-9"/>
            <path id="Path_24864" d="M618.62 270.91a127.286 127.286 0 0 1 6.38 11.78c.26.52 1 .06.78-.46a100.4 100.4 0 0 0-6.64-11.62c-.2-.32-.71 0-.51.3z" class="cls-4"/>
            <path id="Path_24865" d="M625 268.64a127.276 127.276 0 0 1 6.37 11.78c.26.52 1 .06.78-.46a99.575 99.575 0 0 0-6.64-11.62c-.2-.32-.71 0-.51.3z" class="cls-4"/>
            <path id="Path_24866" d="M612.49 271.81c1.35 5.22 2.41 10.52 3.27 15.84.12.75 1.26.43 1.13-.31a104.7 104.7 0 0 0-3.89-15.67.25.25 0 1 0-.48.14z" class="cls-4"/>
            <path id="Path_24867" d="M598.05 273.3a63.293 63.293 0 0 1 2.63 15.7c0 .74 1.18.75 1.15 0a52.259 52.259 0 0 0-3.22-15.86c-.12-.35-.68-.21-.56.16z" class="cls-4"/>
            <path id="Path_24868" d="M609.86 286a70.525 70.525 0 0 1-3.49-14.8c-.07-.69-1.1-.72-1.09 0a29.71 29.71 0 0 0 4 15c.18.28.68.1.57-.25z" class="cls-4"/>
            <path id="Path_24869" d="M591.6 273.72a67.374 67.374 0 0 0 2.18 14.94.521.521 0 1 0 1-.29c-.94-4.91-1.84-9.79-2.65-14.73 0-.32-.58-.24-.57.08z" class="cls-4"/>
            <path id="Path_24870" d="M583.86 274.6c1.34 5.48 2.34 11 3.33 16.53.09.52 1 .41.93-.13a89 89 0 0 0-3.86-16.51.21.21 0 0 0-.4.11z" class="cls-4"/>
            <path id="Path_24871" d="M576.78 275.88a65.329 65.329 0 0 0 1.67 15.27c.14.54.89.3.82-.23a140.628 140.628 0 0 1-1.83-15 .33.33 0 0 0-.66 0z" class="cls-4"/>
            <path id="Path_24872" d="M554.16 289.85c4.24-4 8-9 11.48-13.62.31-.41-.38-.94-.72-.55-3.81 4.36-8 9-11 13.95-.11.18.14.36.29.22z" class="cls-4"/>
            <path id="Path_24873" d="M549.2 285.4a48.121 48.121 0 0 0 9.8-12.1.464.464 0 0 0-.8-.47c-2.93 4.28-6.2 8.16-9.39 12.21a.251.251 0 0 0 .35.36z" class="cls-4"/>
            <path id="Path_24874" d="M552.19 270.86c-2.82 3.16-5.74 6.26-8.4 9.55-.36.44.24 1.07.63.64 2.83-3.17 5.43-6.55 8.11-9.85.19-.24-.13-.58-.34-.34z" class="cls-4"/>
            <path id="Path_24875" d="M569.59 276.64c1.2 5.07 1.91 10.22 3 15.31.11.48.93.39.88-.12a115.452 115.452 0 0 0-3.23-15.38.35.35 0 0 0-.67.19z" class="cls-4"/>
            <g id="Group_2661" class="cls-13">
                <path id="Path_24876" d="M610.49 287.54a7.4 7.4 0 0 0-5.72 2.86 17.66 17.66 0 0 0-3 5.88 61.23 61.23 0 0 0-3.18 20.8c0 2.16.07 4.64-1.56 6.05-1.4 1.21-3.47 1.11-5.2 1.79-2.75 1.07-5.11 4.75-4.31 7.59l15.48 5.85z"/>
            </g>
            <path id="Path_24877" d="M593.17 320.11a5.332 5.332 0 0 1-1.75.68 20.614 20.614 0 0 1-9.02.4 5.52 5.52 0 0 1-1.81-.52 63.129 63.129 0 0 0 6.32.3 60.784 60.784 0 0 0 6.26-.86z" class="cls-6"/>
            <path id="Path_24878" d="M537.68 362.29l-12.26 102.87h5.3l13.02-102.87z" class="cls-12"/>
            <path id="Path_24879" d="M586.55 362.29l11.26 102.87h5.78l-10.98-102.87z" class="cls-12"/>
            <path id="Path_24880" d="M647.16 362.29l9.39 102.87h6.44l-10.71-102.87h-7.77" class="cls-12"/>
            <path id="Path_24881" d="M615.84 273.91h45.45a7.07 7.07 0 0 1 7 8.07l-10.76 75.09a6.09 6.09 0 0 1-6 5.22h-58.9z" class="cls-12"/>
            <path id="Path_24882" d="M531.63 362.29c.11-1.14 0-6.82 0-6.82l56.36 1a8.66 8.66 0 0 0 8.7-7.25l11.23-68.63a8 8 0 0 1 7.92-6.73l-12.25 77.27a13.17 13.17 0 0 1-13 11.11z" class="cls-12"/>
            <path id="Path_24883" d="M615.84 273.91a.62.62 0 0 1 0 .24l-.08.69c-.09.65-.22 1.54-.37 2.66-.36 2.35-.86 5.68-1.47 9.77-1.3 8.28-3.08 19.65-5 32.21-1 6.28-2 12.27-2.83 17.72q-.66 4.08-1.26 7.73a52.34 52.34 0 0 1-1.37 6.7 18.239 18.239 0 0 1-2.32 5.16 12.94 12.94 0 0 1-2.91 3.13 9.812 9.812 0 0 1-2.35 1.32 4.4 4.4 0 0 1-.9.26 11.821 11.821 0 0 0 3.13-1.74 15.5 15.5 0 0 0 5-8.23 55.2 55.2 0 0 0 1.3-6.67c.37-2.43.78-5 1.2-7.74.86-5.45 1.81-11.44 2.8-17.73 2-12.54 3.86-23.9 5.19-32.18.69-4.08 1.24-7.39 1.64-9.74.19-1.12.35-2 .47-2.65.05-.27.09-.5.13-.68a1.227 1.227 0 0 1 0-.23z" class="cls-6"/>
            <path id="Path_24884" d="M618.36 274.41a22.11 22.11 0 0 1-2.74-3.88 20.908 20.908 0 0 1-2.29-4.16 22.4 22.4 0 0 1 2.73 3.88 21.3 21.3 0 0 1 2.3 4.16z" class="cls-6"/>
            <path id="Path_24885" d="M532.59 291a40.443 40.443 0 0 1 3.52-5.49 42.742 42.742 0 0 1 3.95-5.19 41.175 41.175 0 0 1-3.52 5.49 42.754 42.754 0 0 1-3.95 5.19z" class="cls-6"/>
            <path id="Path_24886" d="M570.61 272.85A7.419 7.419 0 0 1 570 274c-.47.82-1.07 1.85-1.79 3.07-1.53 2.59-3.69 6.13-6.18 10s-4.84 7.27-6.59 9.71c-.88 1.22-1.61 2.19-2.12 2.85a6.167 6.167 0 0 1-.84 1 6.144 6.144 0 0 1 .67-1.12l2-2.95c1.68-2.49 4-5.94 6.47-9.78l6.3-9.88c.81-1.27 1.46-2.29 1.93-3a5.481 5.481 0 0 1 .76-1.05z" class="cls-6"/>
        </g>
        <g id="freepik--character-2--inject-40">
            <path id="Path_24887" d="M298.11 156.83c-2.07-3-.79-7.64 2.3-9.63a9.31 9.31 0 0 1 10.34.74c2.94 2.21 3.76 6.06 3.28 9.36-.36 2.45-4.2 7.45-7.86 5.25" class="cls-6"/>
            <path id="Path_24888" d="M276.06 177.63c-8.13-15.75 8.89-24.71 18.53-22.5 9.06 2.08 13.09 6.34 14.86 12.24a29.59 29.59 0 0 1 0 18.19c-1 2.87-3 5.82-6 6.33" class="cls-6"/>
            <path id="Path_24889" d="M300.74 163.81a3 3 0 0 1 2.87 2.94l.32 41.09c.18 4.85-6.76 7.94-11.95 8.09-5.24.15-5.54-2.41-5.85-7-.51-7.69-.65-10.58-.65-10.54s-6.67-.77-8.47-9.33c-.9-4.26-1-11.31-1-17.08.07-5.2 3.18-11.72 8.37-11.43z" class="cls-14"/>
            <path id="Path_24890" d="M278.33 177.22a1.12 1.12 0 0 0 1.12 1.07 1.06 1.06 0 0 0 1.09-1.06 1.1 1.1 0 0 0-1.12-1.06 1.05 1.05 0 0 0-1.09 1.05z" class="cls-6"/>
            <path id="Path_24891" d="M277.76 175.55c.14.14.95-.52 2.14-.58s2.1.5 2.22.35-.09-.33-.49-.58a3 3 0 0 0-1.78-.46 2.93 2.93 0 0 0-1.7.65c-.35.3-.46.56-.39.62z" class="cls-6"/>
            <path id="Path_24892" d="M289.54 176.66a1.12 1.12 0 0 0 1.12 1.07 1.06 1.06 0 0 0 1.09-1.06 1.11 1.11 0 0 0-1.12-1.06 1.05 1.05 0 0 0-1.09 1.05z" class="cls-6"/>
            <path id="Path_24893" d="M289.48 175.19c.15.14.95-.52 2.15-.58s2.09.5 2.21.34-.09-.32-.49-.58a3.07 3.07 0 0 0-1.78-.45 3 3 0 0 0-1.7.64c-.35.3-.46.57-.39.63z" class="cls-6"/>
            <path id="Path_24894" d="M285.6 184.24a7.73 7.73 0 0 0-2-.25c-.31 0-.6-.06-.66-.27a1.57 1.57 0 0 1 .16-.91l.78-2.36a41.562 41.562 0 0 0 1.72-6.16 39.061 39.061 0 0 0-2.21 6l-.75 2.37a1.79 1.79 0 0 0-.1 1.2.76.76 0 0 0 .53.42 2 2 0 0 0 .52.05 7.731 7.731 0 0 0 2.01-.09z" class="cls-6"/>
            <path id="Path_24895" d="M285.48 198.38a21.94 21.94 0 0 0 11.41-3.66s-2.51 6.07-11.19 5.69z" class="cls-15"/>
            <path id="Path_24896" d="M286.25 187.09a2.12 2.12 0 0 1 1.88-.89 2 2 0 0 1 1.39.65 1.27 1.27 0 0 1 .17 1.42 1.44 1.44 0 0 1-1.55.47 4.44 4.44 0 0 1-1.56-.83 1.18 1.18 0 0 1-.36-.34.38.38 0 0 1 0-.44" class="cls-15"/>
            <path id="Path_24897" d="M289.15 184.89c-.2 0-.14 1.29-1.2 2.27s-2.44.9-2.44 1.08.32.23.9.22a3.2 3.2 0 0 0 2-.83 2.81 2.81 0 0 0 .92-1.89c.06-.55-.1-.86-.18-.85z" class="cls-6"/>
            <path id="Path_24898" d="M288.84 173.13c.13.32 1.32.11 2.72.21s2.56.42 2.73.12c.08-.14-.14-.44-.61-.73a4.52 4.52 0 0 0-2-.6 4.59 4.59 0 0 0-2.11.35c-.57.23-.79.52-.73.65z" class="cls-6"/>
            <path id="Path_24899" d="M278 172.08c.22.26 1-.06 2-.12s1.83.09 2-.2c.08-.14-.07-.41-.44-.65a2.92 2.92 0 0 0-1.67-.36 2.8 2.8 0 0 0-1.58.63c-.31.29-.38.62-.31.7z" class="cls-6"/>
            <path id="Path_24900" d="M278.5 161.09a8.35 8.35 0 0 0 3.5 8 16.13 16.13 0 0 0 4.92 1.93l3.29.9a27 27 0 0 0 7.42 1.29c-.13 2.82-.46 4.72 1.06 7.1 1.36 2.14 3.34 3.65 5.9 3a84.23 84.23 0 0 0 1-16.87 7.93 7.93 0 0 0-.85-4.21c-1.3-2-4-2.4-6.43-2.59l-10.09-.79a20.41 20.41 0 0 0-4.94 0 6.8 6.8 0 0 0-4.26 2.3" class="cls-6"/>
            <path id="Path_24901" d="M311 173.27h-.38a2.75 2.75 0 0 1-1.07-.24 4.44 4.44 0 0 1-1.41-1 22.432 22.432 0 0 1-1.44-1.76 8.16 8.16 0 0 0-2-1.83 10.68 10.68 0 0 0-2.81-1.3 24 24 0 0 0-7.11-.78 32.321 32.321 0 0 1-7.23-.5 10.34 10.34 0 0 1-5.21-2.77 8 8 0 0 1-1.37-1.84 6.08 6.08 0 0 1-.58-1.63 4.41 4.41 0 0 1-.07-1.46 12.321 12.321 0 0 0 .2 1.43 6.259 6.259 0 0 0 .62 1.57 7.82 7.82 0 0 0 1.38 1.75 10.16 10.16 0 0 0 5.1 2.64 33.349 33.349 0 0 0 7.16.46 23.7 23.7 0 0 1 7.2.83 10.79 10.79 0 0 1 2.88 1.36 8.42 8.42 0 0 1 2 1.92c.51.67.94 1.3 1.39 1.78a4.781 4.781 0 0 0 1.33 1 3.53 3.53 0 0 0 1.42.37z" class="cls-12"/>
            <path id="Path_24902" d="M309.63 168a2.7 2.7 0 0 0-.18-1.22 5 5 0 0 0-2.58-2.14 17 17 0 0 0-4.92-1.32 44.18 44.18 0 0 0-6.29 0 29.281 29.281 0 0 1-6.35-.22 12.68 12.68 0 0 1-4.83-1.88 8.28 8.28 0 0 1-2.47-2.48 7.521 7.521 0 0 1-.43-.85 1.52 1.52 0 0 1-.11-.31 10.061 10.061 0 0 0 .66 1.09 8.569 8.569 0 0 0 2.48 2.35 12.94 12.94 0 0 0 4.75 1.77 30.651 30.651 0 0 0 6.28.19 41.939 41.939 0 0 1 6.34 0 16.939 16.939 0 0 1 5 1.42 5 5 0 0 1 2.6 2.3 2 2 0 0 1 .13 1 .9.9 0 0 1-.08.3z" class="cls-12"/>
            <path id="Path_24903" d="M313.41 151.42a1.28 1.28 0 0 1 .14.58 3.59 3.59 0 0 1-.28 1.59 9 9 0 0 1-3.61 3.83 8.34 8.34 0 0 1-2.73 1.06 8.169 8.169 0 0 1-2.39.07 11.413 11.413 0 0 1-1.58-.28 2.1 2.1 0 0 1-.55-.2c0-.06.82.16 2.15.24a8.619 8.619 0 0 0 2.31-.15 8.2 8.2 0 0 0 2.61-1 9.32 9.32 0 0 0 3.56-3.64 4.26 4.26 0 0 0 .37-2.1z" class="cls-12"/>
            <path id="Path_24904" d="M310.29 147.61a1.77 1.77 0 0 1 0 .58 8.512 8.512 0 0 1-.3 1.55 10.34 10.34 0 0 1-2.6 4.48 10.5 10.5 0 0 1-4.46 2.65 8.431 8.431 0 0 1-1.54.3 1.63 1.63 0 0 1-.58 0c0-.06.81-.13 2.05-.55a10.82 10.82 0 0 0 6.9-7c.41-1.19.47-2.01.53-2.01z" class="cls-12"/>
            <path id="Path_24905" d="M309.43 185a3.005 3.005 0 0 1 0-.45v-1.31a14.74 14.74 0 0 0-.88-4.68 9.229 9.229 0 0 0-1.68-2.79 7.69 7.69 0 0 0-3.08-2.07c-2.5-.94-5.51-.79-8.6-.92a26.421 26.421 0 0 1-8.61-1.65 14.32 14.32 0 0 1-5.83-4.12 10.85 10.85 0 0 1-2.24-4.26 7.789 7.789 0 0 1-.23-1.3 2 2 0 0 1 0-.46 10.291 10.291 0 0 0 .38 1.72 11.16 11.16 0 0 0 2.3 4.14 14.43 14.43 0 0 0 5.76 4 26.49 26.49 0 0 0 8.5 1.59c3.07.14 6.12 0 8.7 1a7.68 7.68 0 0 1 3.18 2.17 9.17 9.17 0 0 1 1.7 2.9 14 14 0 0 1 .79 4.76v1.31c0 .31-.14.42-.16.42z" class="cls-12"/>
            <path id="Path_24906" d="M307.47 162.78a15.07 15.07 0 0 1-1.24-1.32 20.719 20.719 0 0 0-7.08-4.9 14.537 14.537 0 0 1-1.67-.69 6.75 6.75 0 0 1 1.76.46 17.17 17.17 0 0 1 7.18 5 6.9 6.9 0 0 1 1.05 1.45z" class="cls-9"/>
            <path id="Path_24907" d="M302.69 178.13c.12-.06 4.52-2.27 4.83 2.89s-4.94 4.41-5 4.27.17-7.16.17-7.16z" class="cls-14"/>
            <path id="Path_24908" d="M304 183.23a1.923 1.923 0 0 0 .25.12.9.9 0 0 0 .68 0 2.22 2.22 0 0 0 .91-2 3 3 0 0 0-.33-1.28 1 1 0 0 0-.72-.65.47.47 0 0 0-.52.28c-.06.15 0 .25-.05.26s-.11-.08-.08-.29a.52.52 0 0 1 .18-.34.68.68 0 0 1 .49-.16 1.27 1.27 0 0 1 1 .74 3.1 3.1 0 0 1 .4 1.42 2.34 2.34 0 0 1-1.18 2.31 1 1 0 0 1-.83-.08c-.2-.2-.2-.32-.2-.33z" class="cls-15"/>
            <path id="Path_24909" d="M226.67 224.35s-3.47-6.82-4.35-7.48-8.64-3.36-9.3-3.14-10 2-8.89 3.06 7.6-.21 7.6-.21l.88.42s-5.62 1-6.8 1.69-.69 2 .34 1.86 5.92-1.15 6.21-1-5.3 1.4-5.9 1.77c-.81.49-.87 1.94.16 1.86.6-.06 5.88-1.51 5.88-1.51a46 46 0 0 0-4.56 2.06.77.77 0 0 0 .8 1.3c.63-.14 3.57-1.61 4.41-1.8 0 0 .78.19 1.52 1.77s5.9 5.5 5.9 5.5z" class="cls-14"/>
            <path id="Path_24910" d="M224.53 224.48a1.86 1.86 0 0 1-2.17 0c-.68-.39-1.2-1-1.84-1.44-1.93-1.31-4.66-.94-6.52-2.34-.26-.2-.52-.52-.38-.82s.49-.31.79-.3l7.71.06" class="cls-14"/>
            <path id="Path_24911" d="M222.12 219.67a3.171 3.171 0 0 0-.83-.09c-.54 0-1.32-.07-2.28-.09l-3.37-.08h-1a1.52 1.52 0 0 0-1.13.25.65.65 0 0 0-.12.72 1.31 1.31 0 0 0 .4.49 4.86 4.86 0 0 0 1 .58 27.862 27.862 0 0 0 4 1.08 5.76 5.76 0 0 1 1.59.7 10.829 10.829 0 0 1 1.22 1 2.72 2.72 0 0 0 2.18.73c.57-.12.75-.43.73-.43a2.2 2.2 0 0 1-.75.26 2.62 2.62 0 0 1-2-.8 15.292 15.292 0 0 0-1.21-1 6.392 6.392 0 0 0-1.69-.78A33.351 33.351 0 0 1 215 221a4.61 4.61 0 0 1-.89-.52c-.25-.19-.38-.46-.24-.57a1.5 1.5 0 0 1 .81-.13h4.37c1 0 1.74 0 2.28-.05a3.551 3.551 0 0 0 .79-.06z" class="cls-15"/>
            <path id="Path_24912" d="M204.15 216.82a4.35 4.35 0 0 0 1.71.44 9.92 9.92 0 0 0 1.93.05c.71-.09 1.49-.22 2.31-.34l1.74-.29h-.1a26.346 26.346 0 0 0 4 1.2 24 24 0 0 0-3.91-1.6h-.06l-1.73.26-2.29.37a10.891 10.891 0 0 1-1.86 0 15.83 15.83 0 0 0-1.74-.09z" class="cls-15"/>
            <path id="Path_24913" d="M253.89 420.75l8.4 15.6s-13 13.78-11.76 16.81L281.36 438l-12.09-24.84z" class="cls-9"/>
            <path id="Path_24914" d="M271.17 430.31a1.41 1.41 0 0 1 1.58 1 1.34 1.34 0 0 1-1 1.57 1.49 1.49 0 0 1-1.67-1.07 1.39 1.39 0 0 1 1.21-1.52" class="cls-2"/>
            <g id="Group_2662" class="cls-10">
                <path id="Path_24915" d="M281.36 438l-1.36-2.5-29 15.5s-1.08 1.27-.45 2.16z" class="cls-3"/>
            </g>
            <path id="Path_24916" d="M261.72 436.44c.08.15.86-.15 1.84 0s1.69.56 1.8.43-.55-.88-1.74-1-2 .45-1.9.57z" class="cls-6"/>
            <path id="Path_24917" d="M259.14 439.37c0 .17.82.1 1.64.48s1.31 1 1.46.91-.18-1-1.22-1.44-1.94-.09-1.88.05z" class="cls-6"/>
            <path id="Path_24918" d="M259.22 444.15c.15 0 0-.89-.81-1.53s-1.66-.61-1.66-.45.65.38 1.3.91 1.01 1.13 1.17 1.07z" class="cls-6"/>
            <path id="Path_24919" d="M260.2 432.67c.13.11.72-.44 1.59-.8s1.68-.42 1.69-.59-.88-.39-1.91.05-1.51 1.26-1.37 1.34z" class="cls-6"/>
            <path id="Path_24920" d="M258.56 429.5a3.29 3.29 0 0 0 1.54-.77 8.122 8.122 0 0 0 1.37-1.3 6.918 6.918 0 0 0 .65-.9 2.24 2.24 0 0 0 .29-.6.73.73 0 0 0-.32-.83.9.9 0 0 0-.83 0 2.11 2.11 0 0 0-.54.36 6.1 6.1 0 0 0-.8.81 5.9 5.9 0 0 0-1 1.63 2.85 2.85 0 0 0-.29 1.71c.09 0 .21-.63.66-1.54a6.891 6.891 0 0 1 1-1.45 5.646 5.646 0 0 1 .75-.71c.28-.25.56-.39.72-.29s.07.07.05.19a1.639 1.639 0 0 1-.22.44 9.39 9.39 0 0 1-.58.87 9.889 9.889 0 0 1-1.21 1.31c-.72.66-1.28.99-1.24 1.07z" class="cls-6"/>
            <path id="Path_24921" d="M258.86 429.61a2.66 2.66 0 0 0-.33-1.69 5.639 5.639 0 0 0-1-1.58 5.26 5.26 0 0 0-.86-.75 1.44 1.44 0 0 0-1.37-.29.81.81 0 0 0-.43.75 2.279 2.279 0 0 0 .12.64 3.73 3.73 0 0 0 .51 1 4 4 0 0 0 1.45 1.27 2.29 2.29 0 0 0 1.7.32 15.269 15.269 0 0 1-1.49-.68 3.759 3.759 0 0 1-1.21-1.21 3.7 3.7 0 0 1-.41-.9c-.11-.35-.12-.68 0-.71a1 1 0 0 1 .79.24 5.7 5.7 0 0 1 .79.65 6 6 0 0 1 1.06 1.4c.47.93.59 1.56.68 1.54z" class="cls-6"/>
            <path id="Path_24922" d="M262.12 434.26l-3.2 17.42s-18.78 2.61-19.69 5.77l33.57 7.41 6.09-26.95z" class="cls-9"/>
            <path id="Path_24923" d="M269.62 452.52a1.39 1.39 0 0 1 .6 1.77 1.34 1.34 0 0 1-1.75.62 1.49 1.49 0 0 1-.63-1.88 1.4 1.4 0 0 1 1.9-.44" class="cls-2"/>
            <g id="Group_2663" class="cls-10">
                <path id="Path_24924" d="M272.8 464.86l.5-2.74-32.37-6.12s-1.63.32-1.7 1.41z" class="cls-3"/>
            </g>
            <path id="Path_24925" d="M258.42 451.39c0 .17.77.42 1.46 1.13s1 1.49 1.13 1.46.13-1-.72-1.88-1.88-.87-1.87-.71z" class="cls-6"/>
            <path id="Path_24926" d="M254.57 452.07c-.07.15.58.59 1 1.4s.41 1.59.57 1.62.47-.88-.05-1.88-1.48-1.29-1.52-1.14z" class="cls-6"/>
            <path id="Path_24927" d="M251.64 455.84c.15.07.55-.7.33-1.69s-.91-1.51-1-1.39.27.7.44 1.52.07 1.51.23 1.56z" class="cls-6"/>
            <path id="Path_24928" d="M259.59 447.5c0 .17.83.11 1.75.37s1.57.72 1.68.6-.45-.86-1.53-1.16-1.96.05-1.9.19z" class="cls-6"/>
            <path id="Path_24929" d="M260.29 444a3.249 3.249 0 0 0 1.69.36 7.591 7.591 0 0 0 1.88-.15 7.866 7.866 0 0 0 1.07-.3 2.121 2.121 0 0 0 .6-.28.74.74 0 0 0 .27-.86 1 1 0 0 0-.64-.53 2.15 2.15 0 0 0-.65-.05 5.738 5.738 0 0 0-1.12.12 6.129 6.129 0 0 0-1.78.68c-.94.55-1.34 1.1-1.29 1.15s.56-.36 1.48-.78a6.349 6.349 0 0 1 2.72-.6c.37 0 .68.05.73.23s0 .09-.08.18a1.441 1.441 0 0 1-.43.2 8.743 8.743 0 0 1-1 .31 9.108 9.108 0 0 1-1.74.32 10.932 10.932 0 0 0-1.71 0z" class="cls-6"/>
            <path id="Path_24930" d="M260.46 444.28a3.05 3.05 0 0 0 .8-1.53 5.781 5.781 0 0 0 .18-1.89 5.689 5.689 0 0 0-.21-1.11 1.42 1.42 0 0 0-.88-1.09.83.83 0 0 0-.81.32 2.53 2.53 0 0 0-.31.58 4.18 4.18 0 0 0-.25 1.13 3.93 3.93 0 0 0 .34 1.89c.46 1 1.1 1.36 1.13 1.31a13.148 13.148 0 0 1-.75-1.46 4.12 4.12 0 0 1-.18-1.7 3.47 3.47 0 0 1 .24-1c.13-.34.33-.6.46-.54a1.191 1.191 0 0 1 .46.68 5.39 5.39 0 0 1 .22 1 5.87 5.87 0 0 1 0 1.75c-.22 1.04-.53 1.62-.44 1.66z" class="cls-6"/>
            <path id="Path_24931" d="M277.51 273.88L226 340.29a24 24 0 0 0-3.77 22.51l37.31 76.2 12.52-21.29-21.39-60.17 27.9-33.54L291 272.59z" class="cls-6"/>
            <path id="Path_24932" d="M257.46 449.08l23.09-161.18 1.15-14.42L310 272s9.9 15.42 10.37 24.86-25.77 75.47-25.77 75.47l-3.77 26.35L275 454.44z" class="cls-6"/>
            <path id="Path_24933" d="M281.46 276.48c.14 0-5.11 38.68-11.74 86.33s-12.12 86.29-12.26 86.27 5.12-38.67 11.74-86.34 12.12-86.28 12.26-86.26z" class="cls-12"/>
            <path id="Path_24934" d="M250.51 357.61c-.06.07-.63-.43-1.69-1a10.71 10.71 0 0 0-9-.35c-1.09.47-1.7.92-1.76.85a4.42 4.42 0 0 1 1.64-1.11 9.76 9.76 0 0 1 9.3.36 4.25 4.25 0 0 1 1.51 1.25z" class="cls-12"/>
            <path id="Path_24935" d="M311.69 281.85a3.465 3.465 0 0 1-.62.36 9.321 9.321 0 0 1-1.82.65 12.71 12.71 0 0 1-2.86.4 14.77 14.77 0 0 1-3.53-.35 15.259 15.259 0 0 1-3.32-1.22 13.491 13.491 0 0 1-2.4-1.61 10 10 0 0 1-1.36-1.39c-.28-.36-.42-.57-.39-.59s.71.72 2 1.69a14.592 14.592 0 0 0 2.39 1.47 16.428 16.428 0 0 0 3.22 1.14 16.09 16.09 0 0 0 3.4.38 13.937 13.937 0 0 0 2.78-.28c1.55-.32 2.47-.74 2.51-.65z" class="cls-12"/>
            <path id="Path_24936" d="M229 376.6a10.613 10.613 0 0 1-.89-1.58c-.55-1-1.33-2.53-2.25-4.4a64.816 64.816 0 0 1-2.93-6.74 36.286 36.286 0 0 1-1.25-4.16 23.168 23.168 0 0 1-.64-4.64 19.43 19.43 0 0 1 .41-4.68 25.649 25.649 0 0 1 1.34-4.16 36.419 36.419 0 0 1 3.63-6.39c1.2-1.72 2.26-3 3-3.94.36-.45.67-.79.87-1a1.569 1.569 0 0 1 .33-.33 13.34 13.34 0 0 1-1.05 1.48c-.69.93-1.7 2.28-2.85 4a37.677 37.677 0 0 0-3.49 6.38 26 26 0 0 0-1.29 4.08 19.43 19.43 0 0 0-.39 4.55 23.11 23.11 0 0 0 .62 4.54 34.276 34.276 0 0 0 1.2 4.12c.91 2.59 1.94 4.85 2.81 6.74l2.1 4.47.55 1.23a1.891 1.891 0 0 1 .17.43z" class="cls-12"/>
            <path id="Path_24937" d="M271.41 214.21l-19.15 22.04-24.83-13.74-8.68 8.69 32.24 22.09 14.38-.22 12.27-24.19z" class="cls-9"/>
            <path id="Path_24938" d="M264.41 230.48l10.65 44.89 35.76-3.07 4.6-35.3 9.58-15.08s-2.37-14.17-18.09-14.28l-2.55-6-18.85 1.58-2.24 5.49s-15.51 1.11-15.15 15.19z" class="cls-9"/>
            <g id="Group_2664" class="cls-13">
                <path id="Path_24939" d="M273.45 268.63a18.72 18.72 0 0 0 16-3.07 5.66 5.66 0 0 1 2.13-1.23 5.19 5.19 0 0 1 2.56.37 47.281 47.281 0 0 0 11.86 2.12 8.33 8.33 0 0 0 4.12-.55 3.22 3.22 0 0 0 1.91-3.39 110 110 0 0 0-18.6-5 25.48 25.48 0 0 0-9.95-.27c-3.26.73-6.28 2.67-9.14 4.56a4 4 0 0 0-1.83 1.88c-.56 1.65 1.11 3.38.77 5.09"/>
            </g>
            <path id="Path_24940" d="M300.27 221.35c1 .91 14.3 23.71 14.3 23.71l-21.24 4.64-.73 10.47 20.89 3 9.39 1a12.08 12.08 0 0 0 10.89-4.69 12.09 12.09 0 0 0 1.49-12.07l-10.85-27.62z" class="cls-9"/>
            <path id="Path_24941" d="M320.42 245c0 .14-6 1.32-13.5 2.62s-13.57 2.24-13.59 2.1 6-1.31 13.5-2.62 13.57-2.26 13.59-2.1z" class="cls-6"/>
            <path id="Path_24942" d="M315.39 245.83a6.662 6.662 0 0 1-.57-1.14c-.36-.84-.82-1.91-1.37-3.17-1.14-2.68-2.67-6.41-4.34-10.53q-1.245-3.09-2.33-5.83a10.58 10.58 0 0 1-.93-5.09 5.16 5.16 0 0 1 1.53-3.12 4.092 4.092 0 0 1 .78-.57 1 1 0 0 1 .31-.12 12.01 12.01 0 0 0-.94.83 5.19 5.19 0 0 0-1.31 3 10.52 10.52 0 0 0 1 4.87c.74 1.79 1.53 3.75 2.37 5.8 1.67 4.13 3.15 7.87 4.2 10.59.49 1.29.9 2.37 1.22 3.24a5 5 0 0 1 .38 1.24z" class="cls-6"/>
            <path id="Path_24943" d="M326.29 264.27a5.712 5.712 0 0 1-1.34.05c-.86 0-2.11 0-3.64-.11-3.08-.16-7.31-.54-12-1.19s-8.84-1.37-11.86-1.89l-3.59-.65a5.93 5.93 0 0 1-1.3-.31 7.759 7.759 0 0 1 1.34.11c.85.1 2.08.26 3.6.48 3 .44 7.24 1.1 11.88 1.74s8.85 1.09 11.91 1.34l3.63.28a7.082 7.082 0 0 1 1.37.15z" class="cls-6"/>
            <path id="Path_24944" d="M270.88 250.13a13 13 0 0 0-.56-3.79c-.32-1.15-.85-2.48-1.25-4.05a8 8 0 0 1-.28-2.54 10.61 10.61 0 0 1 .57-2.68 42.59 42.59 0 0 1 4.51-8.28l1.54-2.39a5.462 5.462 0 0 1 .59-.87 3.3 3.3 0 0 1-.41 1c-.31.6-.79 1.45-1.41 2.48a51.421 51.421 0 0 0-4.33 8.26 10.34 10.34 0 0 0-.55 2.54 7.351 7.351 0 0 0 .24 2.4c.35 1.53.85 2.88 1.14 4.06a10.24 10.24 0 0 1 .36 2.85 4.24 4.24 0 0 1-.08.78c-.04.15-.06.24-.08.23z" class="cls-6"/>
            <path id="Path_24945" d="M288.38 209.51a10 10 0 0 1-.07-3.26 10.261 10.261 0 0 1 .45-3.23 10.631 10.631 0 0 1 .07 3.26 10.761 10.761 0 0 1-.45 3.23z" class="cls-6"/>
            <path id="Path_24946" d="M295.37 208.88a19.85 19.85 0 0 1-1-6.37 9.93 9.93 0 0 1 .77 3.14 10.311 10.311 0 0 1 .23 3.23z" class="cls-6"/>
            <path id="Path_24947" d="M301.41 207.72a14.47 14.47 0 0 1-1.54-5.25 14.47 14.47 0 0 1 1.54 5.25z" class="cls-6"/>
            <g id="Group_2665" class="cls-13">
                <path id="Path_24948" d="M306.42 224.48c.11 6.84 1.33 12.51 1.44 19.35a4.39 4.39 0 0 0 .33 1.94c.77 1.48 2.51 1 4.17.94a15.731 15.731 0 0 0 2.54-.54 2.23 2.23 0 0 0-.21-1.51c-2.76-7.11-5.51-13.08-8.27-20.18"/>
            </g>
            <path id="Path_24949" d="M230.93 238.02l10.27 9.9 16.58 15.98 28.52-1.42-23.09-26.07z" class="cls-6"/>
            <path id="Path_24950" d="M235.43 237.72s-7.45 3.31.14 9 18 7.85 19.56 12a7 7 0 0 1-1 7l21.85-1s6.49-5.6 1.65-10.59S260.09 242 258.62 240s2.07-3.51 2.07-3.51z" class="cls-2"/>
            <path id="Path_24951" d="M242.35 237.4l-.86-1.01 11.79-.73v1.22z" class="cls-12"/>
            <path id="Path_24952" d="M256.7 240.73a14.341 14.341 0 0 1-2.93.45c-1.82.19-4.34.4-7.13.56s-5.32.21-7.16.17a12.67 12.67 0 0 1-3-.25 27.776 27.776 0 0 1 3-.12c1.82 0 4.35-.17 7.13-.32l7.13-.41a20.789 20.789 0 0 1 2.96-.08z" class="cls-4"/>
            <path id="Path_24953" d="M259 244a89.742 89.742 0 0 1-9.55.71 90.559 90.559 0 0 1-9.57.2 84.845 84.845 0 0 1 9.55-.72A88.821 88.821 0 0 1 259 244z" class="cls-4"/>
            <path id="Path_24954" d="M264.08 246.77a13.829 13.829 0 0 1-2.74.48c-1.7.23-4 .48-6.66.69s-5 .31-6.69.35a13.81 13.81 0 0 1-2.78-.06 15.472 15.472 0 0 1 2.76-.31l6.67-.5 6.66-.53a16.122 16.122 0 0 1 2.78-.12z" class="cls-4"/>
            <path id="Path_24955" d="M267.51 250.51a66.138 66.138 0 0 1-8.17.91 65.54 65.54 0 0 1-8.21.39 65.511 65.511 0 0 1 8.17-.91 63.277 63.277 0 0 1 8.21-.39z" class="cls-4"/>
            <path id="Path_24956" d="M272.65 253.87a62.558 62.558 0 0 1-7.91 1.09 61.43 61.43 0 0 1-7.95.57 61.838 61.838 0 0 1 7.9-1.09 59.373 59.373 0 0 1 7.96-.57z" class="cls-4"/>
            <path id="Path_24957" d="M275.05 258.62a10.73 10.73 0 0 1-2.37.39c-1.47.17-3.5.35-5.76.46s-4.29.14-5.77.12a10.3 10.3 0 0 1-2.4-.16 12.813 12.813 0 0 1 2.39-.21l5.76-.27 5.75-.31a11 11 0 0 1 2.4-.02z" class="cls-4"/>
            <path id="Path_24958" d="M292.61 260l-5.42-.85-20.19.49s-1.05-.3-.14-.88c.44-.28 7.87-2.12 7.87-2.12l-10.66.86a14 14 0 0 1 4.06-4.86c2.58-1.76 7.58-2.9 7.58-2.9l-3.23-2.45s10.55-1.38 11.91-.18a40.55 40.55 0 0 1 3 3.08l5.83-.06" class="cls-14"/>
            <path id="Path_24959" d="M278.45 256.05c0 .15-3.19.25-7.09.63s-7.06.86-7.08.71a7.649 7.649 0 0 1 2-.53c1.27-.24 3-.51 5-.7s3.75-.25 5.05-.25a7.941 7.941 0 0 1 2.12.14z" class="cls-15"/>
            <path id="Path_24960" d="M277.83 253.42a37.33 37.33 0 0 1-6.06 1.12 35 35 0 0 1-6.13.6 37.328 37.328 0 0 1 6.06-1.14 36.14 36.14 0 0 1 6.13-.58z" class="cls-15"/>
        </g>
        <g id="freepik--character-1--inject-40" transform="translate(19 -2.689)">
            <path id="Path_24961" d="M179.03 197.72l-.91 2.99h14.47l-.77-2.03z" class="cls-12"/>
            <path id="Path_24962" d="M193.05 207.18l-.24-.19h-14.92l-.23.19z" class="cls-6"/>
            <path id="Path_24963" d="M190.54 223.73l3.06-22.6h-16.5l3.07 22.6s6.29.91 10.37 0z" class="cls-6"/>
            <path id="Path_24964" d="M193.8 201.47h-16.89v-.26a1.34 1.34 0 0 1 1.35-1.35h14.19a1.35 1.35 0 0 1 1.35 1.35z" class="cls-12"/>
            <path id="Path_24965" d="M191.87 216.01h-13.03l-1.18-8.83h15.39z" class="cls-2"/>
            <path id="Path_24966" d="M187.18 213c.84-1.49 1.3-3.33-.39-4.4 0 0-1.6-1-3.36.91-1.37 1.5-2 3.26-.91 4.61 1.34 1.65 3.81.39 4.66-1.12zm-2.63-.23a3.49 3.49 0 0 0-1.41 1.66c-.16-1.07.3-1.67 1.88-2.9a4 4 0 0 0 1.65-2.73c.84 2.03-.99 3.2-2.12 3.98z" class="cls-6"/>
            <path id="Path_24967" d="M178.84 198.35l2.82.41v.58h-3.12z" class="cls-6"/>
            <path id="Path_24968" d="M183.85 213.23s-24.22 24.35-26.37 25c0 0-7.35-14.32-8-14.84l-14.12 7.94 8.28 17.76A13.2 13.2 0 0 0 166 253l23.8-28.06 4.8-5.32a12.55 12.55 0 0 0 1.9-4.85 8.61 8.61 0 0 0-.2-3.24 3.27 3.27 0 0 0-.13-2.51 1.86 1.86 0 0 0-1.3-.85c1.05-2.6-1.8-3.89-3.23-1.74" class="cls-8"/>
            <path id="Path_24969" d="M183 214.12a5.62 5.62 0 0 0-2.19-3 6.12 6.12 0 0 0-3.36-1.32s.29-1.74 3.16-1.36 3.65 2.24 7.2 1.36l.77 3.32z" class="cls-8"/>
            <path id="Path_24970" d="M195.13 207.71c.13.06-.28 1.09-1.23 2a4.415 4.415 0 0 1-2 1.28c0-.12.78-.73 1.66-1.64s1.44-1.71 1.57-1.64z" class="cls-16"/>
            <path id="Path_24971" d="M196.24 211.46c.13 0-.09.79-.68 1.49s-1.27 1.06-1.35.94.41-.62.95-1.27.94-1.23 1.08-1.16z" class="cls-16"/>
            <path id="Path_24972" d="M155.45 248a16.45 16.45 0 0 1 .31-5.26 16.1 16.1 0 0 1 1.5-5.06c.14 0-.5 2.3-1 5.14s-.65 5.18-.81 5.18z" class="cls-16"/>
            <path id="Path_24973" d="M68.38 199.43l-.91 2.98h14.46l-.76-2.03z" class="cls-12"/>
            <path id="Path_24974" d="M82.4 208.89l-.24-.2H67.24l-.24.2z" class="cls-6"/>
            <path id="Path_24975" d="M79.88 225.43L83 202.84H66.45l3.07 22.59s6.28.92 10.36 0z" class="cls-6"/>
            <path id="Path_24976" d="M83.15 203.18H66.26v-.27a1.35 1.35 0 0 1 1.35-1.35h14.18a1.36 1.36 0 0 1 1.36 1.35z" class="cls-12"/>
            <path id="Path_24977" d="M81.22 217.71H68.18L67 208.89h15.4z" class="cls-2"/>
            <path id="Path_24978" d="M76.52 214.72c.84-1.5 1.31-3.34-.38-4.41 0 0-1.6-1-3.37.91-1.36 1.51-2 3.26-.9 4.62 1.34 1.63 3.81.37 4.65-1.12zm-2.63-.24a3.61 3.61 0 0 0-1.41 1.67c-.15-1.08.3-1.68 1.88-2.9a4.07 4.07 0 0 0 1.64-2.74c.86 2.03-1 3.19-2.11 3.97z" class="cls-6"/>
            <path id="Path_24979" d="M68.19 200.05l2.81.41v.58h-3.11z" class="cls-6"/>
            <path id="Path_24980" d="M68.38 259.15s-2.87-3.39-2.13-27.58l-.17-13 11.27-3.4L85.14 259z" class="cls-8"/>
            <path id="Path_24981" d="M77 216a7.43 7.43 0 0 1 2.46-3.4 6.12 6.12 0 0 1 3.36-1.31s-.29-1.75-3.17-1.36-3.64 2.24-7.19 1.36l-4.11 7.34z" class="cls-8"/>
            <path id="Path_24982" d="M73.21 211.88c-.17-.45-6-5.13-6-5.13s-3 .12-1.88 2.85a2.45 2.45 0 0 0-1.13 3.65s-1.32.95-.39 3.6a24.25 24.25 0 0 0 2.54 5z" class="cls-8"/>
            <path id="Path_24983" d="M74.81 237.73l-6.56 15.67A8.89 8.89 0 0 0 74 264.55 8.88 8.88 0 0 0 85.14 259l5.26-15.5z" class="cls-8"/>
            <path id="Path_24984" d="M68.84 252.12a8.33 8.33 0 0 1 .53-2.17c.41-1.32 1-3.12 1.82-5.07s1.6-3.68 2.22-4.91a8.42 8.42 0 0 1 1.13-1.97 10.71 10.71 0 0 1-.8 2.09c-.53 1.27-1.28 3-2.07 4.95s-1.46 3.72-2 5a11.17 11.17 0 0 1-.83 2.08z" class="cls-16"/>
            <path id="Path_24985" d="M73.47 240.44c0 .16-1.12.31-2.24 1.09s-1.7 1.76-1.83 1.69.27-1.27 1.53-2.12a3.08 3.08 0 0 1 2.54-.66z" class="cls-16"/>
            <path id="Path_24986" d="M101.31 156.72c.65 1.88-1.58 3.49-3.52 3.93s-4.3.73-5.19 2.51c-.77 1.55 0 3.51-.69 5.09-1.33 3-6.73 2.38-7.79 5.49-.72 2.13 1.28 4.34 1 6.58-.21 1.93-2 3.25-3.53 4.41s-3.19 2.79-2.94 4.72c.28 2.22 3 3.76 2.75 6s-3.21 3.21-3.64 5.38c-.5 2.57 2.72 4.23 3.75 6.64.8 1.84.31 4.21 1.64 5.7S87 214.4 89 214l20-4.24c-1.35-3.17-.08-6.87 1.85-9.72s4.5-5.25 6.15-8.27 2.2-7.05 0-9.72" class="cls-6"/>
            <path id="Path_24987" d="M136.51 172.73a22.2 22.2 0 0 0-.66-3.16 3 3 0 0 0-.8-1.3c-.39-.38-.91-.14-1.23.4a9.68 9.68 0 0 0 0 8.11c.32.54.84.78 1.23.41a3.17 3.17 0 0 0 .8-1.3 22.83 22.83 0 0 0 .66-3.16 2.38 2.38 0 0 1 .07.88 8.83 8.83 0 0 1-.38 2.4 3.52 3.52 0 0 1-.87 1.51 1.12 1.12 0 0 1-1.07.25 1.81 1.81 0 0 1-.84-.72 9.77 9.77 0 0 1 0-8.65 1.74 1.74 0 0 1 .84-.71 1.08 1.08 0 0 1 1.07.25 3.43 3.43 0 0 1 .87 1.5 8.83 8.83 0 0 1 .38 2.4 2.46 2.46 0 0 1-.07.89z" class="cls-6"/>
            <path id="Path_24988" d="M103.85 191.16c-3.62-6.12-4.65-14.27-5.57-21.32-.43-3.32-1.19-8 1.15-10.12 2.5-2.22 2.74-5.65 5.61-7.36a8.83 8.83 0 0 1 9.48.1" class="cls-6"/>
            <path id="Path_24989" d="M113.89 212.83a9.81 9.81 0 0 0 10.58-9.38c.23-5.35.42-10.75.42-10.75s8.11-.7 8.71-8.7.4-26.51.4-26.51a27.94 27.94 0 0 0-28.23 1.73l.42 28.21v15.17c-.01 5.04 2.62 9.83 7.7 10.23z" class="cls-8"/>
            <path id="Path_24990" d="M125.64 174.15a4.09 4.09 0 0 0-5.47-1.21 4.65 4.65 0 0 0-1.57 5.82 6.17 6.17 0 0 0 3.92 3 3.07 3.07 0 0 1 2.4 3.32c-.23 2-3.58 2.76-5.1 4.42-2.35 2.58-7.51 3.66-11 4.06s-3 .43-5-2.38a10.86 10.86 0 0 1-1.93-6.51q-.15-8.86-.31-17.73a25.52 25.52 0 0 1 .42-6.36 8.56 8.56 0 0 1 3.37-5.25c1.95-1.28 4.42-1.38 6.65-2.09 2.78-.89 5.14-2.73 7.74-4.05s5.79-2.1 8.39-.79c1.87 1 3.12 2.82 4.93 3.86 2.59 1.48 6.12 1.16 7.37 5a6.47 6.47 0 0 1-.06 4.08c-1.77 5.17-8.2 7.25-12.82 5-.09.88.77 2.84-.16 5.61-.3.88-.41 2.24-1.8 2.26" class="cls-6"/>
            <path id="Path_24991" d="M124.19 179.15a.748.748 0 0 1-.11.34 1.2 1.2 0 0 1-.89.45 2.21 2.21 0 0 1-2.07-2.22 2.31 2.31 0 0 1 .59-1.7 2.48 2.48 0 0 1 1.26-.72c.82-.17 1.3.14 1.26.19a9.114 9.114 0 0 0-1.15.2 2 2 0 0 0-1.39 2 1.86 1.86 0 0 0 1.5 1.84c.67.04.95-.44 1-.38z" class="cls-16"/>
            <path id="Path_24992" d="M136.53 172.34a29.268 29.268 0 0 1-5.4 1.15 29.5 29.5 0 0 1-5.47.63 30 30 0 0 1 5.39-1.15 29.481 29.481 0 0 1 5.48-.63z" class="cls-6"/>
            <path id="Path_24993" d="M104.5 199a2.34 2.34 0 0 0 2.78 1.12 6.73 6.73 0 0 0 2.7-1.83 7 7 0 0 1 2.67-1.87c2.13-.65 4.75.78 6.55-.55 1.63-1.2 1.42-3.94 3-5.18.85-.67 2-.75 2.91-1.39 1.62-1.2 1.36-3.88 0-5.37s-3.42-2.1-5.36-2.64l-17.23 7.34z" class="cls-6"/>
            <path id="Path_24994" d="M125 167.86l-.15.1a3.441 3.441 0 0 1-.45.26 10.1 10.1 0 0 1-1.89.68 22.348 22.348 0 0 1-3.12.49 33.393 33.393 0 0 0-4.12.57 7.8 7.8 0 0 0-4.25 2.32c-1.16 1.35-1.59 3.29-2.49 5.17a6.75 6.75 0 0 1-2 2.52 10.5 10.5 0 0 1-3 1.48c-2.11.71-4.44 1.13-6.2 2.63a4.36 4.36 0 0 0-1.59 2.81 19.711 19.711 0 0 0 0 3.35 5.47 5.47 0 0 1-3 5.54c-1.8 1.06-3.69 1.63-5.2 2.59a6 6 0 0 0-1.85 1.71 4.45 4.45 0 0 0-.7 2.19 14.88 14.88 0 0 0 .56 4.07 10.55 10.55 0 0 1 .28 3.17 4.37 4.37 0 0 1-.57 1.92 2 2 0 0 1-.44.55 4.73 4.73 0 0 0 .81-2.49 10.73 10.73 0 0 0-.37-3.08 15.21 15.21 0 0 1-.64-4.16 4.86 4.86 0 0 1 .73-2.39 6.46 6.46 0 0 1 2-1.86c1.57-1 3.46-1.59 5.18-2.63a5.67 5.67 0 0 0 2.14-2.07 5.74 5.74 0 0 0 .56-3.05 20.67 20.67 0 0 1 0-3.43 5 5 0 0 1 1.77-3.14c1.91-1.61 4.32-2 6.38-2.72a9.749 9.749 0 0 0 2.86-1.39 6.2 6.2 0 0 0 1.88-2.34c.88-1.79 1.33-3.78 2.59-5.23a8.19 8.19 0 0 1 4.5-2.4 32.509 32.509 0 0 1 4.17-.5 23.644 23.644 0 0 0 3.11-.4 15.1 15.1 0 0 0 2.51-.84z" class="cls-12"/>
            <path id="Path_24995" d="M120.32 170.73c0 .05-.62 0-1.68.24a7.55 7.55 0 0 0-3.86 2.31 7 7 0 0 0-1.54 2.69 11.86 11.86 0 0 0-.31 3.6 9.4 9.4 0 0 1-.6 4.11 4.14 4.14 0 0 1-1.5 1.69 17.369 17.369 0 0 1-2 1.06 5.05 5.05 0 0 0-1.71 1.22 3 3 0 0 0-.67 1.84c-.1 1.34.19 2.83-.46 4.11a6.84 6.84 0 0 1-2.68 2.66c-1 .6-2 1-2.83 1.54a6.92 6.92 0 0 0-2 1.65 4.57 4.57 0 0 0-.86 1.73 4 4 0 0 0 0 1.66.91.91 0 0 1-.17-.41 2.85 2.85 0 0 1-.06-1.29 4.57 4.57 0 0 1 .83-1.87 7 7 0 0 1 2-1.78c.84-.54 1.82-1 2.79-1.6a6.32 6.32 0 0 0 2.47-2.5c.57-1.11.31-2.48.39-3.93a3.52 3.52 0 0 1 .78-2.14 5.53 5.53 0 0 1 1.88-1.35c1.35-.66 2.71-1.26 3.26-2.52a9 9 0 0 0 .58-3.88 12.29 12.29 0 0 1 .38-3.73 7.24 7.24 0 0 1 1.68-2.81 7.54 7.54 0 0 1 4.09-2.26 6 6 0 0 1 1.28-.1 1.29 1.29 0 0 1 .52.06z" class="cls-12"/>
            <path id="Path_24996" d="M92.76 271.08l5.58-16.21-3.88-19.67-3 8.68L72.67 237s12.15-24.28 12.75-25.56c5.56-11.66 20.35-11.66 20.35-11.66l18.83.49a20.59 20.59 0 0 1 16.18 6.28c5.39 5.43 17.69 29.2 17.69 29.2l-19.82 6.17-3.92-7.33 1.14 15.41 3.9 23.56z" class="cls-2"/>
            <path id="Path_24997" d="M140.08 205.87c0 .14-11.44.26-25.54.26S89 206 89 205.87s11.44-.27 25.55-.27 25.53.12 25.53.27z" class="cls-9"/>
            <path id="Path_24998" d="M132.08 205.3c0 .06-.53.08-1.38.44a6.37 6.37 0 0 0-2.87 2.56 8.54 8.54 0 0 0-1.17 5.55 21.79 21.79 0 0 0 2.22 6.8c2.19 4.67 4.12 8.94 5.5 12l1.6 3.67a7.211 7.211 0 0 1 .52 1.38 7.571 7.571 0 0 1-.72-1.28c-.46-.95-1.06-2.16-1.77-3.6-1.47-3-3.45-7.27-5.65-12a21.55 21.55 0 0 1-2.23-7 8.85 8.85 0 0 1 1.36-5.83 6.26 6.26 0 0 1 3.13-2.55 3.48 3.48 0 0 1 1.08-.23c.3.07.38.07.38.09z" class="cls-6"/>
            <path id="Path_24999" d="M98.53 255.76c-.16 0-2.42-10.18-5-22.79s-4.68-22.88-4.53-22.91 2.41 10.17 5 22.79 4.68 22.87 4.53 22.91z" class="cls-6"/>
            <path id="Path_25000" d="M126.82 240.45a4.61 4.61 0 0 1 0 1.36 12.89 12.89 0 0 1-.91 3.59 17.47 17.47 0 0 1-8.23 8.78 24.2 24.2 0 0 1-11.88 2.38 27.861 27.861 0 0 1-3.67-.37 5.73 5.73 0 0 1-1.31-.31c0-.11 1.91.25 5 .28a25.33 25.33 0 0 0 11.61-2.49 17.71 17.71 0 0 0 8.12-8.43 19.54 19.54 0 0 0 1.27-4.79z" class="cls-6"/>
            <path id="Path_25001" d="M146.47 214.31c0 .15-14 .27-31.23.27S84 214.46 84 214.31s14-.26 31.23-.26 31.24.12 31.24.26z" class="cls-9"/>
            <path id="Path_25002" d="M151.09 222.17c0 .15-15.83.26-35.34.26s-35.34-.11-35.34-.26 15.82-.26 35.34-.26 35.34.09 35.34.26z" class="cls-9"/>
            <path id="Path_25003" d="M154.2 229.38c0 .14-17.38.26-38.81.26s-38.81-.12-38.81-.26 17.38-.26 38.81-.26 38.81.11 38.81.26z" class="cls-9"/>
            <path id="Path_25004" d="M93.1 238.18a17 17 0 0 1-2.7-.74c-1.65-.49-3.93-1.17-6.46-1.84s-4.86-1.22-6.53-1.61a15.64 15.64 0 0 1-2.71-.7 14.518 14.518 0 0 1 2.78.34c1.7.3 4 .79 6.59 1.46s4.82 1.41 6.44 2a13 13 0 0 1 2.59 1.09z" class="cls-9"/>
            <path id="Path_25005" d="M135.17 236.89a9.11 9.11 0 0 1-1.6.05h-4.37l-14.39-.15H96.05a8.78 8.78 0 0 1-1.6-.07 11.059 11.059 0 0 1 1.6-.14c1-.05 2.52-.11 4.36-.16 3.69-.11 8.78-.19 14.4-.16s10.72.15 14.4.3c1.84.07 3.33.14 4.36.21a10 10 0 0 1 1.6.12z" class="cls-9"/>
            <path id="Path_25006" d="M157.18 233.29h-.1l-.6.12-2.25.39c-1.9.32-4.53.75-7.43 1.19s-5.55.82-7.46 1.07a18.86 18.86 0 0 1-3.11.3 18.582 18.582 0 0 1 3.06-.66c1.89-.34 4.52-.78 7.43-1.22s5.54-.81 7.46-1c.95-.12 1.73-.19 2.27-.23a5 5 0 0 1 .63 0 .25.25 0 0 1 .18.05c.07.05-.07-.01-.08-.01z" class="cls-9"/>
            <path id="Path_25007" d="M125.93 243.87c0 .14-6.65.26-14.85.26s-14.85-.12-14.85-.26 6.65-.26 14.85-.26 14.85.11 14.85.26z" class="cls-9"/>
            <path id="Path_25008" d="M135.53 246.27a25.259 25.259 0 0 1-5.07.26 25.26 25.26 0 0 1-5.07-.26 24.4 24.4 0 0 1 5.07-.26 24.4 24.4 0 0 1 5.07.26z" class="cls-9"/>
            <path id="Path_25009" d="M119.44 252.59a18.339 18.339 0 0 1-3.13.23c-1.93.07-4.6.09-7.55 0s-5.63-.22-7.55-.37a17.641 17.641 0 0 1-3.11-.38 19.221 19.221 0 0 1 3.13 0l7.54.22 7.54.13a19.07 19.07 0 0 1 3.13.17z" class="cls-9"/>
            <path id="Path_25010" d="M136.33 254.71a97.725 97.725 0 0 1-10.18.26 97.722 97.722 0 0 1-10.18-.26 101.163 101.163 0 0 1 10.18-.26 101.168 101.168 0 0 1 10.18.26z" class="cls-9"/>
            <path id="Path_25011" d="M137.86 262.09a9.179 9.179 0 0 1-1.64.07h-4.46c-3.77 0-9-.14-14.73-.32s-11-.41-14.72-.64c-1.88-.13-3.4-.23-4.45-.33a11.871 11.871 0 0 1-1.63-.2 8.65 8.65 0 0 1 1.64 0l4.46.16 14.72.49 14.72.47 4.46.18a9.353 9.353 0 0 1 1.63.12z" class="cls-9"/>
            <path id="Path_25012" d="M139.25 270.46a11.8 11.8 0 0 1-1.79 0l-4.85-.19c-4.09-.18-9.74-.46-16-.81s-11.89-.69-16-1l-4.85-.35a14.322 14.322 0 0 1-1.78-.2 10.66 10.66 0 0 1 1.78 0l4.85.19c4.09.18 9.75.47 16 .82s11.9.69 16 1l4.84.35a10.471 10.471 0 0 1 1.8.19z" class="cls-9"/>
            <g id="Group_2666" class="cls-17">
                <path id="Path_25013" d="M99.92 254.5c3.53 2.64 8.74 1.76 13.1 1a19 19 0 0 0 11.4-6.18 7.62 7.62 0 0 0 2.12-5.39c-.17-2-1.92-3.89-3.89-3.65-2.25.27-3.34 2.8-4.43 4.8a17.49 17.49 0 0 1-18.22 8.6.44.44 0 0 0-.08.82z"/>
            </g>
            <g id="Group_2667" class="cls-17">
                <path id="Path_25014" d="M126.82 216.14c1.1 8.89 2.54 16.18 4.39 24.93.91 4.31 2 8.81 5 12.06l-1.7-19.7z"/>
            </g>
            <path id="Path_25015" d="M101.6 197.59a6.39 6.39 0 0 0-3 9.54 3.07 3.07 0 0 1 .81 1.77c-.08 1.58-2.63 1.62-3.44 3a2.46 2.46 0 0 0 .68 2.87 21.633 21.633 0 0 0 2.64 1.76 3.22 3.22 0 0 1 1.62 2.57c.89 0 1.42-1.1 1.28-2a8.55 8.55 0 0 0-1.1-2.43 2.56 2.56 0 0 1-.11-2.55c.59-.83 1.78-.86 2.73-1.23a3.81 3.81 0 0 0 2-4.89c-.58-1.29-1.91-2.59-1.26-3.83.36-.7 1.2-1 1.88-1.35a4.9 4.9 0 0 0 .64-8.16" class="cls-6"/>
            <path id="Path_25016" d="M83.43 349.7l-5.58 103.36 17.04 4.12 12.78-105.3z" class="cls-8"/>
            <path id="Path_25017" d="M77.34 452.66l-2.9 12.77h19.61l.84-8.31z" class="cls-9"/>
            <path id="Path_25018" d="M94.45 463.58a14.437 14.437 0 0 1-2.85.16c-1.77 0-4.21 0-6.9-.13l-6.88-.29a15.21 15.21 0 0 1-2.85-.23 14.132 14.132 0 0 1 2.86-.15c1.77 0 4.2 0 6.89.13l6.88.29a15.882 15.882 0 0 1 2.85.22z" class="cls-6"/>
            <path id="Path_25019" d="M86.14 455.15a15.9 15.9 0 0 1 0 4.14 15.61 15.61 0 0 1-.55 4.09 15.6 15.6 0 0 1 0-4.13 16 16 0 0 1 .55-4.1z" class="cls-6"/>
            <g id="Group_2668" class="cls-10">
                <path id="Path_25020" d="M74.44 465.43h19.61l.19-1.85-19.45-.49-.35 2.12" class="cls-3"/>
            </g>
            <path id="Path_25021" d="M145.1 428.89l4.14 31.17 15.08-1.05-3.17-28.58z" class="cls-8"/>
            <path id="Path_25022" d="M164.48 455.63s17 5.73 17.23 8.82l-32.41.94-.29-8.47 1.19.24a24.11 24.11 0 0 0 14.28-1.53z" class="cls-9"/>
            <g id="Group_2669" class="cls-10">
                <path id="Path_25023" d="M152.8 458.4a1.32 1.32 0 0 0-.87 1.53 1.27 1.27 0 0 0 1.51.88 1.4 1.4 0 0 0 .92-1.63 1.33 1.33 0 0 0-1.68-.74" class="cls-3"/>
            </g>
            <g id="Group_2670" class="cls-10">
                <path id="Path_25024" d="M149.3 465.39v-2.63l31.07.08s1.46.59 1.33 1.61z" class="cls-3"/>
            </g>
            <path id="Path_25025" d="M165 455.45c0 .16-.79.25-1.56.79s-1.15 1.2-1.3 1.15.06-1 1-1.61 1.86-.48 1.86-.33z" class="cls-6"/>
            <path id="Path_25026" d="M168.44 456.76c0 .15-.64.44-1.16 1.12s-.65 1.4-.81 1.4-.28-.9.38-1.73 1.58-.94 1.59-.79z" class="cls-6"/>
            <path id="Path_25027" d="M170.49 460.77c-.15 0-.39-.75 0-1.63s1.11-1.24 1.18-1.11-.37.61-.67 1.33-.36 1.39-.51 1.41z" class="cls-6"/>
            <path id="Path_25028" d="M164.64 455.37a3.12 3.12 0 0 1-1.62 0 7.391 7.391 0 0 1-1.71-.47 9.281 9.281 0 0 1-.95-.47 1.881 1.881 0 0 1-.5-.37.7.7 0 0 1-.1-.84.87.87 0 0 1 .68-.38 2 2 0 0 1 .62.07 5.183 5.183 0 0 1 1 .31 5.91 5.91 0 0 1 1.53.94c.77.68 1.05 1.26 1 1.29s-.45-.43-1.23-1a6.121 6.121 0 0 0-1.47-.77 5.4 5.4 0 0 0-.94-.26c-.35-.08-.64-.08-.72.08s0 .08 0 .18a2.091 2.091 0 0 0 .37.27 9.139 9.139 0 0 0 .87.46 9.57 9.57 0 0 0 1.59.56 10.434 10.434 0 0 1 1.58.4z" class="cls-6"/>
            <path id="Path_25029" d="M164.44 455.6a2.63 2.63 0 0 1-.47-1.55 5.27 5.27 0 0 1 .17-1.79 6.08 6.08 0 0 1 .38-1 1.32 1.32 0 0 1 1-.85.76.76 0 0 1 .69.43 2.181 2.181 0 0 1 .18.59 3.35 3.35 0 0 1 0 1.09 3.65 3.65 0 0 1-.64 1.7c-.61.86-1.26 1.07-1.28 1a11 11 0 0 0 .95-1.22 3.73 3.73 0 0 0 .47-1.54 3.259 3.259 0 0 0-.06-.93c-.06-.35-.2-.62-.32-.58a1.248 1.248 0 0 0-.56.55 5.241 5.241 0 0 0-.37.89 5.71 5.71 0 0 0-.27 1.63c.03.98.22 1.56.13 1.58z" class="cls-6"/>
            <path id="Path_25030" d="M92.76 271.08s-12 20-12 31.94l-3 145.61 20.68 3L113 309.37s33.1 144.13 34.22 144.13 18.32-3.08 18.32-3.08l-26.08-178.69z" class="cls-9"/>
            <path id="Path_25031" d="M126.14 312.58c0 .16-6.34-1.25-14.07-3.13s-14-3.55-13.93-3.7 6.34 1.25 14.07 3.14 13.97 3.54 13.93 3.69z" class="cls-6"/>
            <path id="Path_25032" d="M100.44 306.93a2.521 2.521 0 0 1 0 .37l-.16 1.07c-.15 1-.37 2.35-.65 4.1-.58 3.57-1.39 8.72-2.35 15.11-1.93 12.76-4.32 30.43-6.34 50S87.67 415 87 427.86c-.35 6.45-.6 11.66-.75 15.27l-.2 4.15-.05 1.08a2.239 2.239 0 0 1 0 .37 2.21 2.21 0 0 1 0-.37v-1.08c0-1 0-2.38.09-4.16.09-3.61.29-8.83.59-15.28.61-12.89 1.78-30.7 3.79-50.3s4.46-37.27 6.48-50c1-6.38 1.88-11.53 2.52-15.08.32-1.75.57-3.12.75-4.09.09-.44.16-.8.21-1.06a1.8 1.8 0 0 1 .01-.38z" class="cls-6"/>
            <path id="Path_25033" d="M130.36 309.34c.14 0 5.9 31.93 12.87 71.36s12.51 71.44 12.37 71.47-5.91-31.93-12.88-71.38-12.51-71.42-12.36-71.45z" class="cls-6"/>
            <path id="Path_25034" d="M79 189a5.06 5.06 0 0 1 .73.88 11.579 11.579 0 0 1 1.51 2.73 5.65 5.65 0 0 1 .35 2.17 4.59 4.59 0 0 1-.83 2.39c-.49.75-1.12 1.41-1.68 2.14a4.48 4.48 0 0 0-1 2.49 5 5 0 0 0 .76 2.61 23.886 23.886 0 0 0 1.52 2.21 10.771 10.771 0 0 1 1.26 2.15 5.56 5.56 0 0 1 .41 2.15 7.82 7.82 0 0 0 .15 1.71 2.46 2.46 0 0 0 .61 1.09 1.9 1.9 0 0 0 1 .5 1.191 1.191 0 0 1-1.08-.35 2.63 2.63 0 0 1-.76-1.15 8 8 0 0 1-.24-1.78 5.24 5.24 0 0 0-.44-2 10.19 10.19 0 0 0-1.25-2 22.36 22.36 0 0 1-1.57-2.23 5.44 5.44 0 0 1-.84-2.89 4.86 4.86 0 0 1 1.05-2.82c.58-.75 1.21-1.4 1.68-2.1a4.49 4.49 0 0 0 .53-4.17 13.47 13.47 0 0 0-1.33-2.74A5.441 5.441 0 0 1 79 189z" class="cls-12"/>
        </g>
    </g>
</svg>
